<svg width="332" height="273" viewBox="0 0 332 273" fill="none" xmlns="http://www.w3.org/2000/svg">
<path d="M311.637 107.797C308.575 95.8449 303.573 84.7863 296.936 75.2934C274.232 43.1941 240.811 26.9342 207.049 22.932C122.057 12.8965 99.5203 77.2972 83.8942 89.1454C53.39 112.285 -2.90831 143.052 19.1763 199.574C31.3629 230.745 67.157 233.519 91.331 233.71C161.852 234.256 171.343 221.441 208.863 232.034C246.384 242.626 284.4 239.809 304.037 203.025C318.016 176.839 319.296 137.008 311.637 107.797Z" fill="#A4CE4A"/>
<path opacity="0.7" d="M311.637 107.797C308.575 95.8449 303.573 84.7863 296.936 75.2934C274.232 43.1941 240.811 26.9342 207.049 22.932C122.057 12.8965 99.5203 77.2972 83.8942 89.1454C53.39 112.285 -2.90831 143.052 19.1763 199.574C31.3629 230.745 67.157 233.519 91.331 233.71C161.852 234.256 171.343 221.441 208.863 232.034C246.384 242.626 284.4 239.809 304.037 203.025C318.016 176.839 319.296 137.008 311.637 107.797Z" fill="white"/>
<path d="M311.695 138.919V161.725H323.226" stroke="#263238" stroke-linecap="round" stroke-linejoin="round"/>
<path d="M284.449 91.526V82.3859H292.992V110.947H298.251V141.097H303.51V99.8415H311.695V136.161" stroke="#263238" stroke-linecap="round" stroke-linejoin="round"/>
<path d="M28.1492 125.143V110.947H36.6926V129.986H45.2361V96.6639H64.9525V126.814H82.6946V87.1471H97.1521V125.231H111.53V41.1302H120.157V76.036H127.386V26.8468H145.128V129.986H168.789V61.7581H183.901V101.425H197.044V49.0636H220.045V106.186H231.878V72.8637H241.076V95.0805H250.275V68.1026H255.534V41.1302H263.422V117.75H270.629V98.2527H272.621V141.097H284.449V94.0048" stroke="#263238" stroke-linecap="round" stroke-linejoin="round"/>
<path d="M16.9763 161.725H28.1492V127.622" stroke="#263238" stroke-linecap="round" stroke-linejoin="round"/>
<path d="M287.964 149.517H281.634V157.324H287.964V149.517Z" stroke="#263238" stroke-linecap="round" stroke-linejoin="round"/>
<path d="M298.362 149.517H292.032V157.324H298.362V149.517Z" stroke="#263238" stroke-linecap="round" stroke-linejoin="round"/>
<path d="M37.0777 149.517H30.7476V157.324H37.0777V149.517Z" stroke="#263238" stroke-linecap="round" stroke-linejoin="round"/>
<path d="M27.1312 166.798H20.801V174.605H27.1312V166.798Z" stroke="#263238" stroke-linecap="round" stroke-linejoin="round"/>
<path d="M287.964 162.337H281.634V170.145H287.964V162.337Z" stroke="#263238" stroke-linecap="round" stroke-linejoin="round"/>
<path d="M272.775 207.207C273.926 207.829 276.737 207.753 276.759 207.753C276.782 207.753 276.153 205.482 276.1 205.345C275.485 203.756 273.532 201.125 271.943 201.392C271.681 201.445 271.43 201.565 271.208 201.745C270.985 201.925 270.796 202.16 270.653 202.437C270.509 202.713 270.414 203.023 270.374 203.347C270.334 203.671 270.35 204.002 270.42 204.319C270.668 205.673 271.797 206.677 272.775 207.207Z" fill="#A4CE4A"/>
<path d="M273.745 217.253C274.94 217.472 277.45 216.571 277.649 216.5C278.061 218.271 278.57 220.006 279.172 221.692C279.517 222.681 279.889 223.658 280.27 224.635C280.044 224.22 279.827 223.855 279.801 223.805C278.867 222.473 276.423 220.573 274.931 221.343C274.689 221.479 274.472 221.677 274.296 221.924C274.12 222.17 273.987 222.46 273.908 222.774C273.829 223.087 273.804 223.418 273.835 223.745C273.867 224.071 273.954 224.386 274.09 224.668C274.635 225.891 275.936 226.497 276.994 226.683C278.052 226.868 280.221 226.164 280.788 225.968C280.938 226.339 281.084 226.716 281.23 227.087C281.961 228.872 282.691 230.647 283.364 232.421C283.603 233.044 283.807 233.666 284.037 234.294C283.833 233.923 283.656 233.617 283.63 233.573C282.691 232.241 280.248 230.341 278.76 231.111C278.518 231.248 278.302 231.446 278.126 231.693C277.95 231.939 277.819 232.229 277.739 232.542C277.66 232.856 277.635 233.187 277.666 233.513C277.697 233.839 277.783 234.154 277.919 234.436C278.464 235.659 279.77 236.26 280.823 236.451C281.877 236.642 283.842 236.003 284.515 235.768C284.723 236.418 284.931 237.068 285.108 237.707C285.223 238.143 285.356 238.558 285.449 239.006C285.542 239.454 285.648 239.891 285.746 240.322C285.909 241.168 286.082 242.036 286.228 242.866C286.33 243.44 286.419 243.991 286.512 244.548C286.281 243.92 285.808 242.713 285.759 242.615C284.998 241.119 282.815 238.793 281.261 239.274C281.006 239.365 280.769 239.521 280.565 239.732C280.361 239.943 280.196 240.204 280.079 240.499C279.962 240.793 279.897 241.115 279.887 241.443C279.877 241.771 279.923 242.098 280.022 242.402C280.412 243.713 281.629 244.553 282.647 244.941C283.776 245.361 286.264 244.974 286.578 244.941C286.724 245.858 286.861 246.754 286.981 247.6C287.074 248.228 287.153 248.829 287.229 249.407H288.225C288.132 248.763 288.03 248.091 287.915 247.387C287.769 246.453 287.592 245.46 287.406 244.439C288.157 244.074 288.889 243.651 289.597 243.172C290.42 244.264 292.518 245.547 292.793 245.711C292.505 246.579 292.222 247.42 291.943 248.206L291.5 249.407H292.603C292.687 249.162 292.771 248.916 292.855 248.659C293.147 247.78 293.448 246.836 293.74 245.858C294.041 245.935 296.507 246.557 297.658 246.235C298.698 245.946 299.96 245.22 300.429 243.947C300.546 243.653 300.612 243.331 300.622 243.003C300.633 242.675 300.587 242.348 300.488 242.043C300.389 241.738 300.239 241.463 300.048 241.234C299.857 241.005 299.63 240.828 299.38 240.715C297.861 240.087 295.542 242.211 294.696 243.631C294.643 243.718 294.183 244.723 293.9 245.329C294.019 244.925 294.143 244.542 294.263 244.128C294.506 243.314 294.705 242.49 294.971 241.605C295.073 241.174 295.179 240.742 295.285 240.3C295.391 239.858 295.476 239.388 295.573 238.93C295.777 237.838 295.945 236.746 296.095 235.654C296.671 235.916 298.751 236.8 299.809 236.707C300.867 236.615 302.213 236.134 302.833 234.966C302.985 234.697 303.09 234.391 303.14 234.069C303.191 233.747 303.186 233.415 303.126 233.095C303.066 232.776 302.952 232.475 302.791 232.213C302.631 231.951 302.428 231.734 302.195 231.575C300.77 230.669 298.211 232.339 297.202 233.584C297.14 233.661 296.494 234.676 296.148 235.222C296.232 234.551 296.321 233.89 296.387 233.208C296.587 231.247 296.733 229.26 296.892 227.273C296.941 226.666 296.994 226.06 297.047 225.454C297.251 225.547 299.703 226.666 300.889 226.546C301.952 226.459 303.293 226 303.908 224.805C304.061 224.536 304.167 224.23 304.218 223.908C304.268 223.586 304.264 223.254 304.203 222.934C304.143 222.614 304.029 222.313 303.868 222.051C303.708 221.789 303.504 221.572 303.271 221.414C301.845 220.508 299.287 222.178 298.282 223.423C298.202 223.516 297.277 224.947 297.056 225.329C297.166 223.991 297.29 222.664 297.459 221.359C297.674 219.597 297.981 217.853 298.379 216.14C298.477 216.183 301.035 217.368 302.244 217.259C303.311 217.172 304.648 216.686 305.267 215.517C305.42 215.248 305.524 214.943 305.575 214.62C305.625 214.298 305.62 213.967 305.56 213.647C305.5 213.327 305.386 213.027 305.226 212.765C305.066 212.503 304.863 212.285 304.63 212.126C303.204 211.22 300.646 212.891 299.637 214.136C299.557 214.234 298.561 215.774 298.397 216.069C298.397 215.97 298.437 215.867 298.459 215.768C298.899 214.064 299.461 212.41 300.137 210.827C300.5 209.948 300.889 209.134 301.279 208.348C301.722 208.632 303.824 209.882 304.94 209.937C306.055 209.992 307.379 209.691 308.096 208.61C308.272 208.364 308.404 208.075 308.484 207.762C308.563 207.448 308.589 207.118 308.558 206.792C308.527 206.466 308.44 206.151 308.304 205.869C308.168 205.587 307.986 205.343 307.768 205.154C306.44 204.062 303.745 205.378 302.629 206.475C302.567 206.535 302 207.229 301.598 207.742C301.779 207.393 301.961 207.027 302.138 206.694C302.81 205.449 303.488 204.362 304.09 203.418C304.44 202.872 304.763 202.397 305.068 201.949C305.63 201.949 307.897 201.851 308.888 201.277C309.88 200.704 310.96 199.672 311.195 198.307C311.259 197.989 311.267 197.657 311.221 197.334C311.174 197.011 311.072 196.704 310.923 196.432C310.773 196.161 310.579 195.931 310.353 195.759C310.127 195.586 309.873 195.474 309.61 195.43C308.016 195.217 306.126 197.909 305.542 199.519C305.493 199.661 304.909 201.949 304.935 201.949H304.997C304.696 202.375 304.378 202.828 304.037 203.336C303.413 204.28 302.709 205.356 302.023 206.585C301.262 207.902 300.564 209.273 299.933 210.69C299.224 212.274 298.631 213.933 298.162 215.648C298.162 215.648 298.162 215.692 298.162 215.708C298.162 215.129 298.162 213.524 298.14 213.388C297.954 211.641 296.764 208.392 295.192 208.031C294.93 207.98 294.662 207.997 294.406 208.081C294.149 208.165 293.91 208.316 293.704 208.522C293.497 208.728 293.329 208.985 293.208 209.277C293.088 209.569 293.019 209.888 293.005 210.215C292.912 211.602 293.727 212.995 294.524 213.874C295.409 214.862 297.919 215.823 298.118 215.899C297.669 217.657 297.317 219.45 297.065 221.267C296.91 222.326 296.781 223.396 296.666 224.472C296.666 223.969 296.666 223.521 296.666 223.461C296.485 221.709 295.294 218.46 293.718 218.1C293.456 218.05 293.189 218.068 292.933 218.153C292.677 218.238 292.438 218.388 292.232 218.594C292.026 218.8 291.858 219.056 291.737 219.347C291.616 219.638 291.546 219.957 291.531 220.284C291.438 221.676 292.257 223.068 293.054 223.947C293.851 224.826 295.976 225.705 296.538 225.929C296.498 226.339 296.454 226.754 296.414 227.163C296.219 229.151 296.033 231.127 295.808 233.066C295.723 233.748 295.626 234.414 295.529 235.08C295.529 234.638 295.529 234.261 295.506 234.207C295.325 232.46 294.134 229.211 292.558 228.85C292.296 228.8 292.029 228.817 291.772 228.902C291.516 228.987 291.277 229.137 291.071 229.343C290.865 229.549 290.696 229.806 290.576 230.097C290.455 230.388 290.386 230.708 290.372 231.034C290.279 232.421 291.098 233.814 291.894 234.693C292.691 235.572 294.612 236.369 295.276 236.636C295.161 237.313 295.046 237.996 294.909 238.651C294.803 239.093 294.732 239.53 294.608 239.972C294.484 240.415 294.382 240.841 294.267 241.266C294.028 242.085 293.785 242.904 293.532 243.718C293.36 244.264 293.191 244.81 293.019 245.312C293.103 244.635 293.253 243.303 293.253 243.194C293.236 241.64 292.896 240.117 292.266 238.771C292.27 238.6 292.262 238.428 292.24 238.258C292.206 237.932 292.118 237.618 291.98 237.337C291.842 237.056 291.658 236.814 291.439 236.627C291.22 236.439 290.972 236.311 290.71 236.249C290.448 236.188 290.179 236.195 289.92 236.271C288.375 236.778 287.392 240.131 287.317 241.894C287.317 241.998 287.37 243.134 287.415 243.849C287.335 243.434 287.264 243.03 287.18 242.604C287.016 241.758 286.835 240.923 286.64 240.022C286.538 239.59 286.427 239.153 286.321 238.711C286.215 238.269 286.073 237.827 285.945 237.379C285.639 236.347 285.29 235.315 284.918 234.289C285.516 234.114 287.636 233.448 288.49 232.651C289.345 231.853 290.234 230.538 290.23 229.14C290.236 228.812 290.187 228.486 290.085 228.183C289.982 227.88 289.83 227.607 289.636 227.382C289.443 227.156 289.214 226.983 288.963 226.874C288.712 226.765 288.445 226.722 288.18 226.748C286.587 226.961 285.206 230.09 284.918 231.821C284.918 231.924 284.803 233.197 284.763 233.895C284.537 233.279 284.32 232.662 284.064 232.05C283.351 230.281 282.585 228.517 281.85 226.759L281.164 225.121C281.381 225.061 283.913 224.335 284.869 223.429C285.715 222.626 286.613 221.316 286.609 219.923C286.616 219.595 286.567 219.268 286.465 218.965C286.363 218.661 286.21 218.388 286.017 218.162C285.824 217.936 285.594 217.762 285.343 217.653C285.092 217.543 284.825 217.5 284.559 217.526C282.966 217.739 281.585 220.868 281.297 222.599C281.297 222.73 281.138 224.553 281.124 225.023C280.624 223.827 280.133 222.637 279.686 221.436C279.078 219.819 278.556 218.156 278.123 216.456C278.22 216.429 280.872 215.686 281.846 214.758C282.696 213.961 283.594 212.645 283.585 211.253C283.593 210.924 283.545 210.597 283.443 210.293C283.341 209.989 283.189 209.715 282.995 209.489C282.802 209.263 282.572 209.09 282.32 208.98C282.069 208.871 281.802 208.829 281.536 208.856C279.947 209.069 278.561 212.197 278.273 213.928C278.273 214.065 278.11 216.03 278.101 216.385C278.101 216.287 278.043 216.189 278.021 216.09C277.624 214.371 277.353 212.612 277.211 210.832C277.118 209.85 277.078 208.905 277.056 207.982C277.561 207.911 279.863 207.529 280.819 206.819C281.775 206.11 282.744 204.952 282.859 203.543C282.896 203.218 282.876 202.887 282.801 202.571C282.727 202.256 282.6 201.963 282.428 201.713C282.256 201.462 282.043 201.259 281.803 201.116C281.563 200.973 281.302 200.894 281.036 200.884C279.433 200.884 277.782 203.805 277.339 205.487C277.339 205.574 277.158 206.535 277.047 207.24C277.047 206.825 277.047 206.393 277.047 206C277.047 204.504 277.127 203.134 277.202 201.922C277.251 201.234 277.304 200.617 277.362 200.033C277.826 199.639 279.677 198.029 280.248 196.877C280.819 195.725 281.257 194.147 280.845 192.825C280.756 192.516 280.614 192.234 280.43 191.996C280.247 191.759 280.024 191.572 279.778 191.447C279.532 191.323 279.267 191.263 279.001 191.273C278.735 191.283 278.473 191.362 278.234 191.504C276.813 192.41 276.436 195.948 276.671 197.685C276.671 197.838 277.229 200.142 277.255 200.125L277.282 200.098C277.22 200.644 277.158 201.256 277.1 201.911C277.003 203.123 276.901 204.493 276.875 205.995C276.83 207.61 276.861 209.227 276.968 210.838C277.08 212.643 277.323 214.432 277.694 216.183C277.694 216.183 277.694 216.227 277.694 216.249C277.441 215.757 276.698 214.425 276.631 214.327C275.697 212.995 273.254 211.095 271.762 211.864C271.52 212.001 271.304 212.2 271.128 212.446C270.952 212.693 270.82 212.982 270.741 213.296C270.661 213.609 270.636 213.94 270.667 214.266C270.698 214.593 270.785 214.907 270.921 215.19C271.386 216.462 272.683 217.062 273.745 217.253Z" fill="#A4CE4A"/>
<path d="M301.221 207.971C301.221 207.971 301.73 205.667 301.748 205.514C301.947 203.767 301.496 200.246 300.053 199.388C299.81 199.253 299.547 199.183 299.281 199.182C299.014 199.181 298.751 199.249 298.507 199.382C298.264 199.515 298.046 199.709 297.867 199.953C297.689 200.197 297.554 200.485 297.472 200.797C297.087 202.107 297.574 203.718 298.158 204.821C298.84 206.12 301.217 207.971 301.221 207.971Z" fill="#A4CE4A"/>
<path d="M16.2369 207.207C17.3879 207.829 20.2209 207.753 20.2209 207.753C20.2209 207.753 19.6145 205.482 19.5614 205.345C18.9461 203.756 16.9939 201.125 15.4047 201.392C15.1423 201.445 14.8918 201.565 14.6696 201.745C14.4474 201.925 14.2585 202.161 14.1152 202.437C13.9719 202.713 13.8775 203.023 13.838 203.348C13.7986 203.672 13.8151 204.003 13.8864 204.319C14.1298 205.673 15.2586 206.677 16.2369 207.207Z" fill="#A4CE4A"/>
<path d="M17.2109 217.253C18.4017 217.472 20.9116 216.571 21.1108 216.5C21.5249 218.265 22.0336 219.994 22.6336 221.676C22.9788 222.664 23.3507 223.642 23.7358 224.619C23.5056 224.204 23.2931 223.838 23.2666 223.789C22.3281 222.457 19.8846 220.557 18.3972 221.327C18.1552 221.464 17.9392 221.662 17.7632 221.908C17.5873 222.155 17.4554 222.444 17.3761 222.758C17.2968 223.072 17.2718 223.402 17.3029 223.729C17.3339 224.055 17.4202 224.369 17.5562 224.652C18.1007 225.875 19.4065 226.481 20.4601 226.666C21.5136 226.852 23.6871 226.148 24.2537 225.951C24.4042 226.322 24.5503 226.699 24.6964 227.071C25.4224 228.856 26.1528 230.63 26.8256 232.405C27.0647 233.027 27.2683 233.65 27.4985 234.278C27.2948 233.906 27.1222 233.601 27.0912 233.557C26.1528 232.225 23.7092 230.325 22.2219 231.095C21.9798 231.231 21.7638 231.43 21.5879 231.676C21.412 231.923 21.2801 232.212 21.2007 232.526C21.1214 232.84 21.0965 233.17 21.1275 233.496C21.1585 233.823 21.2448 234.137 21.3808 234.42C21.9253 235.643 23.2312 236.243 24.2891 236.434C25.3471 236.625 27.3037 235.987 27.9765 235.752C28.1846 236.402 28.3927 237.051 28.5697 237.69C28.6848 238.127 28.8176 238.542 28.9106 238.99C29.0035 239.437 29.1098 239.874 29.2072 240.306C29.3709 241.152 29.548 242.02 29.6897 242.85C29.7915 243.423 29.8844 243.975 29.973 244.532C29.7428 243.904 29.2691 242.697 29.2204 242.599C28.4591 241.103 26.2767 238.777 24.7229 239.257C24.4667 239.352 24.2295 239.513 24.0271 239.728C23.8246 239.944 23.6614 240.21 23.5481 240.509C23.4349 240.808 23.3741 241.133 23.3698 241.463C23.3655 241.793 23.4179 242.121 23.5233 242.424C23.9084 243.734 25.1258 244.575 26.1483 244.963C27.2727 245.383 29.7605 244.996 30.0748 244.963C30.2209 245.88 30.3625 246.776 30.482 247.622C30.5706 248.25 30.6503 248.85 30.7255 249.429H31.7259C31.6285 248.785 31.5267 248.113 31.4116 247.409C31.2656 246.475 31.0929 245.482 30.907 244.461C31.6565 244.095 32.3868 243.672 33.0938 243.194C33.9171 244.286 36.0154 245.569 36.2898 245.733C36.0021 246.601 35.7188 247.442 35.4399 248.228C35.2938 248.643 35.1477 249.036 34.9972 249.429H36.0508C36.1349 249.183 36.219 248.938 36.3031 248.681C36.5997 247.802 36.8963 246.858 37.1884 245.88C37.4895 245.957 39.9551 246.579 41.106 246.257C42.1463 245.968 43.4079 245.241 43.8771 243.969C43.9953 243.675 44.0618 243.353 44.0723 243.025C44.0828 242.696 44.0371 242.369 43.9381 242.064C43.8391 241.759 43.689 241.483 43.4978 241.254C43.3065 241.026 43.0783 240.849 42.828 240.737C41.3097 240.109 38.9945 242.233 38.1446 243.653C38.0915 243.74 37.6311 244.745 37.3478 245.351C37.4717 244.947 37.5913 244.564 37.7108 244.149C37.9543 243.336 38.1535 242.511 38.4191 241.627C38.5209 241.196 38.6271 240.764 38.7333 240.322C38.8396 239.88 38.9237 239.41 39.0211 238.951C39.2291 237.859 39.3929 236.767 39.5434 235.675C40.1233 235.938 42.1994 236.822 43.2574 236.729C44.3154 236.636 45.6611 236.156 46.2808 234.988C46.4338 234.719 46.5392 234.413 46.5901 234.091C46.6409 233.768 46.6361 233.437 46.576 233.117C46.5158 232.797 46.4017 232.496 46.241 232.234C46.0803 231.972 45.8767 231.755 45.6434 231.597C44.218 230.69 41.6594 232.361 40.6501 233.606C40.5881 233.683 39.9418 234.698 39.5965 235.244C39.6807 234.573 39.7692 233.912 39.8356 233.229C40.0348 231.269 40.1853 229.282 40.3402 227.294C40.3889 226.688 40.442 226.082 40.4952 225.476C40.6988 225.569 43.1512 226.688 44.3375 226.568C45.4043 226.481 46.7412 226.022 47.3565 224.826C47.5095 224.558 47.6149 224.252 47.6658 223.93C47.7166 223.607 47.7118 223.275 47.6517 222.956C47.5915 222.636 47.4774 222.335 47.3167 222.073C47.156 221.811 46.9524 221.594 46.7191 221.436C45.2981 220.529 42.7351 222.2 41.7302 223.445C41.6549 223.538 40.7253 224.968 40.504 225.351C40.6191 224.013 40.7431 222.686 40.9068 221.381C41.1235 219.618 41.4326 217.875 41.832 216.161C41.925 216.205 44.4659 217.39 45.6965 217.281C46.7589 217.193 48.1002 216.707 48.7155 215.539C48.8678 215.27 48.9726 214.964 49.0231 214.642C49.0736 214.32 49.0686 213.988 49.0085 213.669C48.9484 213.349 48.8345 213.048 48.6742 212.787C48.5139 212.525 48.3108 212.307 48.078 212.148C46.6527 211.242 44.094 212.913 43.0892 214.158C43.0095 214.256 42.0091 215.796 41.8453 216.09C41.8674 215.992 41.8851 215.888 41.9073 215.79C42.3476 214.085 42.909 212.432 43.585 210.849C43.948 209.97 44.3375 209.156 44.7315 208.37C45.1741 208.654 47.2768 209.904 48.3879 209.959C49.499 210.013 50.827 209.713 51.5485 208.632C51.7239 208.385 51.8552 208.096 51.934 207.782C52.0128 207.469 52.0373 207.139 52.0061 206.813C51.9748 206.487 51.8883 206.173 51.7523 205.891C51.6163 205.609 51.4338 205.365 51.2165 205.176C49.8885 204.084 47.1927 205.4 46.0772 206.497C46.0152 206.557 45.453 207.251 45.0458 207.764C45.2273 207.414 45.4088 207.049 45.5903 206.716C46.2587 205.471 46.9183 204.384 47.538 203.44C47.8877 202.894 48.2108 202.419 48.5163 201.971C49.0785 201.971 51.3449 201.873 52.3365 201.299C53.3281 200.726 54.4082 199.694 54.6428 198.329C54.7067 198.011 54.7156 197.679 54.6687 197.356C54.6219 197.033 54.5204 196.726 54.3709 196.454C54.2214 196.183 54.0272 195.953 53.801 195.78C53.5748 195.608 53.3217 195.496 53.058 195.452C51.4644 195.239 49.5743 197.93 48.9899 199.541C48.9412 199.683 48.3569 201.971 48.3879 201.971H48.4189C48.1179 202.397 47.7992 202.85 47.4583 203.358C46.8341 204.302 46.1303 205.378 45.4442 206.606C44.6956 207.91 44.0069 209.264 43.3813 210.663C42.6719 212.247 42.0792 213.906 41.6107 215.621V215.681C41.6107 215.102 41.6107 213.497 41.5841 213.36C41.3982 211.613 40.2119 208.365 38.636 208.004C38.3739 207.952 38.1059 207.969 37.8494 208.054C37.5929 208.138 37.3538 208.288 37.1475 208.494C36.9412 208.7 36.7724 208.958 36.6521 209.25C36.5318 209.541 36.4626 209.861 36.4492 210.188C36.3562 211.575 37.1752 212.967 37.972 213.846C38.8573 214.835 41.3628 215.796 41.562 215.872C41.1149 217.63 40.7629 219.423 40.5084 221.239C40.3535 222.298 40.2296 223.369 40.11 224.444C40.11 223.942 40.11 223.494 40.11 223.434C39.9241 221.681 38.7333 218.433 37.1575 218.072C36.8955 218.022 36.628 218.041 36.3722 218.126C36.1163 218.211 35.8777 218.361 35.6717 218.567C35.4657 218.772 35.297 219.029 35.1762 219.32C35.0555 219.611 34.9855 219.93 34.9707 220.256C34.8821 221.649 35.6967 223.041 36.4935 223.92C37.2903 224.799 39.4151 225.678 39.9772 225.902C39.9374 226.312 39.8931 226.727 39.8533 227.136C39.6585 229.123 39.477 231.1 39.2468 233.038C39.1672 233.721 39.0653 234.387 38.968 235.053C38.968 234.611 38.968 234.234 38.968 234.179C38.782 232.432 37.5913 229.184 36.0198 228.823C35.7577 228.771 35.4897 228.788 35.2332 228.873C34.9768 228.957 34.7376 229.107 34.5313 229.313C34.325 229.519 34.1562 229.777 34.0359 230.069C33.9156 230.36 33.8465 230.68 33.833 231.007C33.7401 232.394 34.5546 233.786 35.3514 234.665C36.1482 235.544 38.0693 236.342 38.7378 236.609C38.6183 237.286 38.5032 237.969 38.3659 238.624C38.2641 239.066 38.1889 239.503 38.0649 239.945C37.941 240.387 37.8392 240.813 37.7241 241.239C37.485 242.058 37.2416 242.877 36.9892 243.691C36.821 244.237 36.6484 244.783 36.4757 245.285C36.5643 244.608 36.7104 243.276 36.7104 243.167C36.6934 241.612 36.3535 240.09 35.7232 238.744C35.7275 238.572 35.7186 238.4 35.6967 238.231C35.664 237.905 35.576 237.591 35.4385 237.31C35.301 237.029 35.1171 236.787 34.8987 236.6C34.6803 236.412 34.4323 236.284 34.1709 236.222C33.9095 236.161 33.6405 236.168 33.3815 236.243C31.8322 236.751 30.8495 240.104 30.7786 241.867C30.7786 241.971 30.8273 243.107 30.8716 243.822C30.7919 243.407 30.7211 243.003 30.637 242.577C30.4732 241.731 30.2917 240.895 30.1013 239.994C29.9951 239.563 29.8889 239.126 29.7782 238.684C29.6675 238.242 29.5303 237.799 29.4064 237.352C29.1009 236.32 28.7468 235.288 28.3749 234.261C28.977 234.087 31.0973 233.42 31.9473 232.623C32.7972 231.826 33.6958 230.51 33.6869 229.113C33.6934 228.785 33.6439 228.459 33.5416 228.156C33.4394 227.853 33.2867 227.58 33.0935 227.354C32.9003 227.129 32.6708 226.956 32.42 226.847C32.1692 226.738 31.9025 226.695 31.6374 226.721C30.0438 226.934 28.6627 230.063 28.3749 231.793C28.3749 231.897 28.2599 233.169 28.22 233.868C27.9943 233.251 27.7773 232.634 27.5206 232.023C26.8079 230.254 26.0465 228.49 25.3073 226.732C25.0727 226.186 24.8646 225.64 24.6211 225.094C24.8336 225.034 27.3657 224.308 28.3218 223.401C29.1673 222.599 30.0925 221.288 30.0615 219.896C30.0686 219.568 30.0195 219.241 29.9176 218.938C29.8156 218.634 29.6631 218.36 29.4698 218.134C29.2765 217.908 29.0468 217.735 28.7956 217.625C28.5445 217.516 28.2775 217.473 28.012 217.499C26.4184 217.712 25.0372 220.841 24.7495 222.571C24.7274 222.703 24.5946 224.526 24.5769 224.996C24.0767 223.8 23.5853 222.61 23.1382 221.408C22.5305 219.792 22.0085 218.129 21.5756 216.429C21.6774 216.402 24.3245 215.659 25.2984 214.731C26.1483 213.934 27.0469 212.618 27.0381 211.226C27.0458 210.897 26.9973 210.571 26.8959 210.267C26.7944 209.964 26.6423 209.69 26.4493 209.464C26.2564 209.238 26.027 209.064 25.776 208.955C25.5251 208.845 25.2583 208.802 24.993 208.829C23.3994 209.042 22.0183 212.17 21.7261 213.901C21.704 214.037 21.5623 216.003 21.5579 216.358C21.5313 216.26 21.4959 216.161 21.4738 216.063C21.0787 214.343 20.8076 212.584 20.6637 210.805C20.5752 209.822 20.5309 208.878 20.5088 207.955C21.0134 207.884 23.3197 207.502 24.2714 206.792C25.2232 206.082 26.197 204.925 26.3121 203.516C26.3403 203.187 26.3116 202.854 26.228 202.54C26.1444 202.226 26.0078 201.937 25.8271 201.692C25.6465 201.448 25.4259 201.253 25.1799 201.122C24.9338 200.99 24.668 200.924 24.3998 200.928C22.8018 200.928 21.1462 203.849 20.708 205.531C20.6814 205.618 20.522 206.579 20.4114 207.283C20.4114 206.869 20.4114 206.437 20.4114 206.044C20.4114 204.548 20.4866 203.178 20.5663 201.965C20.6106 201.277 20.6681 200.66 20.7212 200.076C21.1639 199.683 23.0408 198.072 23.6074 196.92C24.174 195.768 24.6211 194.19 24.205 192.869C24.1153 192.56 23.974 192.278 23.7901 192.04C23.6062 191.803 23.3839 191.616 23.1377 191.491C22.8914 191.367 22.6267 191.307 22.3606 191.317C22.0945 191.327 21.8331 191.405 21.5933 191.548C20.1723 192.454 19.7961 195.992 20.0307 197.728C20.0528 197.881 20.5884 200.185 20.615 200.169L20.6416 200.142C20.5796 200.688 20.5176 201.299 20.4601 201.955C20.3627 203.167 20.2609 204.537 20.2343 206.039C20.1898 207.654 20.2209 209.271 20.3273 210.882C20.4377 212.682 20.6776 214.468 21.0444 216.216V216.282C20.7921 215.79 20.0528 214.458 19.9864 214.36C19.048 213.027 16.6044 211.127 15.1171 211.897C14.875 212.034 14.659 212.232 14.4831 212.479C14.3072 212.726 14.1753 213.015 14.0959 213.329C14.0166 213.642 13.9917 213.973 14.0227 214.299C14.0537 214.625 14.14 214.94 14.276 215.222C14.8471 216.462 16.1529 217.062 17.2109 217.253Z" fill="#A4CE4A"/>
<path d="M44.6826 207.971C44.7092 207.971 45.1961 205.667 45.2094 205.514C45.4086 203.767 44.9571 200.246 43.514 199.388C43.2712 199.253 43.0081 199.183 42.7418 199.182C42.4755 199.181 42.212 199.249 41.9685 199.382C41.725 199.515 41.5069 199.709 41.3285 199.953C41.1502 200.197 41.0155 200.485 40.9332 200.797C40.5481 202.107 41.0395 203.718 41.6193 204.821C42.3011 206.12 44.6826 207.971 44.6826 207.971Z" fill="#A4CE4A"/>
<path d="M44.4084 50.2593H266.826C268.054 50.2593 269.232 50.861 270.1 51.9321C270.969 53.0031 271.457 54.4558 271.457 55.9705V235.741H39.7781V55.9705C39.7781 54.4558 40.2659 53.0031 41.1343 51.9321C42.0026 50.861 43.1803 50.2593 44.4084 50.2593Z" fill="#263238" stroke="#263238" stroke-miterlimit="10"/>
<path d="M261.93 62.861H49.2468V218.023H261.93V62.861Z" fill="white" stroke="#263238" stroke-linecap="round" stroke-linejoin="round"/>
<path d="M124.234 109.457H53.4033V122.501H124.234V109.457Z" fill="white" stroke="#263238" stroke-linecap="round" stroke-linejoin="round"/>
<path d="M124.234 175.419H53.4033V188.463H124.234V175.419Z" fill="white" stroke="#263238" stroke-linecap="round" stroke-linejoin="round"/>
<path d="M197.549 109.457H126.718V122.501H197.549V109.457Z" fill="white" stroke="#263238" stroke-linecap="round" stroke-linejoin="round"/>
<path d="M124.234 158.395H53.4033V171.439H124.234V158.395Z" fill="white" stroke="#263238" stroke-linecap="round" stroke-linejoin="round"/>
<path d="M197.549 158.395H126.718V171.439H197.549V158.395Z" fill="white" stroke="#263238" stroke-linecap="round" stroke-linejoin="round"/>
<path d="M197.243 125.766H53.4033V138.81H197.243V125.766Z" fill="white" stroke="#263238" stroke-linecap="round" stroke-linejoin="round"/>
<path d="M197.243 142.075H53.4033V155.119H197.243V142.075Z" fill="white" stroke="#263238" stroke-linecap="round" stroke-linejoin="round"/>
<path d="M56.1213 91.5697C56.9668 91.5697 57.3564 92.2031 57.3564 93.2405V96.642C57.3564 97.6631 56.9668 98.28 56.1213 98.28H54.8464V91.5697H56.1213ZM56.1213 97.5757C56.564 97.5757 56.7676 97.2372 56.7676 96.6257V93.1749C56.7676 92.5634 56.5551 92.2304 56.1125 92.2304H55.4617V97.5757H56.1213Z" fill="#263238"/>
<path d="M59.8531 94.5399V95.2115H58.5251V97.5975H60.1586V98.28H57.9231V91.5697H60.1586V92.274H58.5251V94.5618L59.8531 94.5399Z" fill="#263238"/>
<path d="M60.7163 98.28V91.5697H61.3228V97.5757H62.8588V98.28H60.7163Z" fill="#263238"/>
<path d="M63.9387 91.5697V98.28H63.3323V91.5697H63.9387Z" fill="#263238"/>
<path d="M65.0144 91.5697L65.8997 97.4064L66.785 91.5697H67.3428L66.3203 98.28H65.4349L64.4124 91.5752L65.0144 91.5697Z" fill="#263238"/>
<path d="M69.7377 94.5399V95.2115H68.4097V97.5975H70.0387V98.28H67.8032V91.5697H70.0387V92.274H68.4097V94.5618L69.7377 94.5399Z" fill="#263238"/>
<path d="M71.8095 91.5697C72.6638 91.5697 73.0179 92.1157 73.0179 93.104V93.65C73.0179 94.3871 72.8099 94.8457 72.3451 95.0313C72.8409 95.2115 73.0268 95.7084 73.0268 96.4291V97.472C73.0083 97.7467 73.0464 98.0228 73.1375 98.2746H72.5222C72.4355 98.0175 72.4006 97.7384 72.4204 97.461V96.4073C72.4204 95.6538 72.1326 95.4135 71.628 95.4135H71.1853V98.28H70.5789V91.5697H71.8095ZM71.6545 94.731C72.1326 94.731 72.4204 94.5399 72.4204 93.8138V93.1695C72.4204 92.5689 72.2433 92.2522 71.7918 92.2522H71.203V94.731H71.6545Z" fill="#263238"/>
<path d="M74.5406 95.8722L73.3896 91.5697H74.0227L74.8682 94.8457L75.7225 91.5697H76.2935L75.1382 95.8722V98.28H74.5406V95.8722Z" fill="#263238"/>
<path d="M78.5469 96.9259L78.3521 98.28H77.7766L78.8169 91.5751H79.7022L80.7381 98.28H80.1227L79.9103 96.9314L78.5469 96.9259ZM78.6221 96.2817H79.835L79.2374 92.416L78.6221 96.2817Z" fill="#263238"/>
<path d="M82.4822 91.5697C83.3277 91.5697 83.7172 92.2031 83.7172 93.2405V96.642C83.7172 97.6631 83.3277 98.28 82.4822 98.28H81.2073V91.5697H82.4822ZM82.4822 97.5757C82.9248 97.5757 83.1284 97.2372 83.1284 96.6257V93.1749C83.1284 92.5634 82.9204 92.2304 82.4777 92.2304H81.8226V97.5757H82.4822Z" fill="#263238"/>
<path d="M85.5541 91.5697C86.4041 91.5697 86.7892 92.2031 86.7892 93.2405V96.642C86.7892 97.6631 86.4041 98.28 85.5541 98.28H84.2837V91.5697H85.5541ZM85.5541 97.5757C85.9968 97.5757 86.196 97.2372 86.196 96.6257V93.1749C86.196 92.5634 85.988 92.2304 85.5453 92.2304H84.8946V97.5757H85.5541Z" fill="#263238"/>
<path d="M88.5687 91.5697C89.4231 91.5697 89.7772 92.1157 89.7772 93.104V93.65C89.7772 94.3871 89.5692 94.8457 89.1044 95.0313C89.6002 95.2115 89.7861 95.7084 89.7861 96.4291V97.472C89.7676 97.7467 89.8057 98.0228 89.8967 98.2746H89.2814C89.1948 98.0175 89.1599 97.7384 89.1796 97.461V96.4073C89.1796 95.6538 88.8919 95.4135 88.3873 95.4135H87.9446V98.28H87.3381V91.5697H88.5687ZM88.4138 94.731C88.8919 94.731 89.1796 94.5399 89.1796 93.8138V93.1695C89.1796 92.5689 89.0026 92.2522 88.551 92.2522H87.9623V94.731H88.4138Z" fill="#263238"/>
<path d="M92.3492 94.5399V95.2115H91.0212V97.5975H92.6503V98.28H90.4148V91.5697H92.6503V92.274H91.0212V94.5618L92.3492 94.5399Z" fill="#263238"/>
<path d="M95.5629 93.1803V93.366H94.9874V93.1476C94.9874 92.5415 94.8015 92.1921 94.3677 92.1921C93.9339 92.1921 93.7435 92.5415 93.7435 93.1367C93.7435 94.6436 95.5717 94.7747 95.5717 96.6693C95.5717 97.6848 95.1733 98.3455 94.3455 98.3455C93.5178 98.3455 93.1238 97.6848 93.1238 96.6693V96.2871H93.6904V96.7075C93.6904 97.3136 93.894 97.6685 94.3278 97.6685C94.7616 97.6685 94.9653 97.3136 94.9653 96.7075C94.9653 95.2169 93.1459 95.0695 93.1459 93.1858C93.1459 92.1539 93.5355 91.5096 94.35 91.5096C95.1645 91.5096 95.5629 92.1648 95.5629 93.1803Z" fill="#263238"/>
<path d="M98.4491 93.1803V93.366H97.8736V93.1476C97.8736 92.5415 97.6877 92.1921 97.2539 92.1921C96.8201 92.1921 96.6342 92.5415 96.6342 93.1367C96.6342 94.6436 98.458 94.7747 98.458 96.6693C98.458 97.6848 98.0596 98.3455 97.2318 98.3455C96.404 98.3455 96.01 97.6848 96.01 96.6693V96.2871H96.5766V96.7075C96.5766 97.3136 96.7803 97.6685 97.2141 97.6685C97.6479 97.6685 97.8515 97.3136 97.8515 96.7075C97.8515 95.2169 96.0366 95.0695 96.0366 93.1858C96.0366 92.1539 96.4217 91.5096 97.2406 91.5096C98.0596 91.5096 98.4491 92.1648 98.4491 93.1803Z" fill="#263238"/>
<path d="M57.6353 115.752V116.298H56.6349V118.619H56.1479V113.251H57.8788V113.797H56.6349V115.752H57.6353Z" fill="#CCCCCC"/>
<path d="M58.7465 113.273V118.64H58.2595V113.273H58.7465Z" fill="#CCCCCC"/>
<path d="M60.2026 113.273C60.8843 113.273 61.172 113.705 61.172 114.502V114.938C61.1989 115.17 61.1597 115.405 61.0611 115.604C60.9626 115.803 60.8108 115.954 60.632 116.03C61.0304 116.178 61.1765 116.576 61.1765 117.15V117.985C61.1634 118.206 61.1938 118.427 61.265 118.629H60.7736C60.7049 118.422 60.6776 118.197 60.694 117.974V117.133C60.694 116.527 60.4638 116.336 60.0609 116.336H59.7201V118.629H59.2332V113.262L60.2026 113.273ZM60.0786 115.801C60.4638 115.801 60.694 115.648 60.694 115.07V114.556C60.694 114.07 60.5523 113.819 60.1893 113.819H59.7201V115.801H60.0786Z" fill="#CCCCCC"/>
<path d="M63.5714 114.562V114.709H63.1287V114.534C63.1287 114.048 62.9782 113.765 62.633 113.765C62.2877 113.765 62.1372 114.048 62.1372 114.524C62.1372 115.725 63.5935 115.845 63.5935 117.352C63.5935 118.165 63.2793 118.695 62.6153 118.695C61.9513 118.695 61.637 118.149 61.637 117.352V117.046H62.0796V117.39C62.0796 117.87 62.239 118.154 62.5887 118.154C62.9384 118.154 63.0978 117.87 63.0978 117.39C63.0978 116.194 61.6458 116.08 61.6458 114.567C61.6458 113.743 61.9557 113.229 62.6064 113.229C63.2571 113.229 63.5714 113.748 63.5714 114.562Z" fill="#CCCCCC"/>
<path d="M64.6294 118.64V113.819H63.8281V113.273H65.9131V113.819H65.1074V118.64H64.6294Z" fill="#CCCCCC"/>
<path d="M67.6263 118.64H67.1836V113.273H67.7989L68.8037 117.15V113.273H69.2464V118.64H68.7418L67.6307 114.3L67.6263 118.64Z" fill="#CCCCCC"/>
<path d="M70.229 117.559L70.0608 118.651H69.6182L70.4504 113.284H71.1542L71.9864 118.651H71.4995L71.3313 117.559H70.229ZM70.291 117.046H71.2693L70.7779 113.95L70.291 117.046Z" fill="#CCCCCC"/>
<path d="M73.9609 118.629H73.4828L72.7613 114.365V118.64H72.3186V113.273H73.0402L73.7573 117.559L74.4478 113.273H75.1251V118.64H74.6824V114.327L73.9609 118.629Z" fill="#CCCCCC"/>
<path d="M77.1525 115.648V116.194H76.0901V118.1H77.4181V118.646H75.6475V113.279H77.4181V113.825H76.0901V115.654L77.1525 115.648Z" fill="#CCCCCC"/>
<path d="M129.542 118.64V113.273H130.024V118.094H131.268V118.64H129.542Z" fill="#CCCCCC"/>
<path d="M132.123 117.559L131.955 118.651H131.512L132.344 113.284H133.048L133.88 118.651H133.393L133.23 117.559H132.123ZM132.185 117.046H133.154L132.663 113.95L132.185 117.046Z" fill="#CCCCCC"/>
<path d="M136.133 114.562V114.709H135.691V114.534C135.691 114.048 135.54 113.765 135.191 113.765C134.841 113.765 134.695 114.048 134.695 114.524C134.695 115.725 136.156 115.845 136.156 117.352C136.156 118.165 135.837 118.695 135.173 118.695C134.509 118.695 134.199 118.149 134.199 117.352V117.046H134.642V117.39C134.642 117.87 134.805 118.154 135.151 118.154C135.496 118.154 135.66 117.87 135.66 117.39C135.66 116.194 134.208 116.08 134.208 114.567C134.208 113.743 134.518 113.229 135.173 113.229C135.828 113.229 136.133 113.748 136.133 114.562Z" fill="#CCCCCC"/>
<path d="M137.191 118.64V113.819H136.39V113.273H138.471V113.819H137.669V118.64H137.191Z" fill="#CCCCCC"/>
<path d="M140.188 118.64H139.745V113.273H140.361L141.37 117.15V113.273H141.813V118.64H141.312L140.197 114.3L140.188 118.64Z" fill="#CCCCCC"/>
<path d="M142.791 117.559L142.623 118.651H142.18L143.012 113.284H143.716L144.548 118.651H144.066L143.898 117.559H142.791ZM142.853 117.046H143.822L143.331 113.95L142.853 117.046Z" fill="#CCCCCC"/>
<path d="M146.523 118.629H146.08L145.359 114.365V118.64H144.938V113.273H145.615L146.328 117.559L147.019 113.273H147.696V118.64H147.253V114.327L146.523 118.629Z" fill="#CCCCCC"/>
<path d="M149.719 115.648V116.194H148.656V118.1H149.958V118.646H148.187V113.279H149.958V113.825H148.656V115.654L149.719 115.648Z" fill="#CCCCCC"/>
<path d="M56.7632 133.464L56.595 134.556H56.1523L56.989 129.195H57.6884L58.5206 134.556H58.0337L57.8655 133.464H56.7632ZM56.8252 132.951H57.7946L57.3033 129.855L56.8252 132.951Z" fill="#CCCCCC"/>
<path d="M59.9149 129.184C60.5921 129.184 60.902 129.691 60.902 130.516V133.246C60.902 134.065 60.5921 134.567 59.9149 134.567H58.8967V129.184H59.9149ZM59.9149 134.005C60.2646 134.005 60.4328 133.737 60.4328 133.246V130.516C60.4328 130.024 60.2646 129.757 59.9104 129.757H59.3881V134.032L59.9149 134.005Z" fill="#CCCCCC"/>
<path d="M62.3719 129.184C63.0492 129.184 63.359 129.691 63.359 130.516V133.246C63.359 134.065 63.0492 134.567 62.3719 134.567H61.3538V129.184H62.3719ZM62.3719 134.005C62.7172 134.005 62.8854 133.737 62.8854 133.246V130.516C62.8854 130.024 62.7172 129.757 62.363 129.757H61.8407V134.032L62.3719 134.005Z" fill="#CCCCCC"/>
<path d="M64.7844 129.184C65.4661 129.184 65.7494 129.615 65.7494 130.412V130.849C65.7494 131.439 65.5856 131.804 65.2093 131.941C65.6077 132.083 65.7582 132.487 65.7582 133.033V133.868C65.7431 134.088 65.772 134.31 65.8424 134.513H65.3554C65.2845 134.308 65.2556 134.085 65.2713 133.863V133.022C65.2713 132.416 65.0411 132.225 64.6383 132.225H64.2974V134.513H63.8149V129.184H64.7844ZM64.656 131.712C65.0411 131.712 65.2713 131.559 65.2713 130.974V130.461C65.2713 129.981 65.1297 129.73 64.7711 129.73H64.2974V131.712H64.656Z" fill="#CCCCCC"/>
<path d="M67.8077 131.586V132.132H66.7453V134.043H68.0512V134.589H66.2805V129.184H68.0512V129.73H66.7453V131.586H67.8077Z" fill="#CCCCCC"/>
<path d="M70.3842 130.494V130.636H69.9415V130.461C69.9415 129.981 69.791 129.697 69.4413 129.697C69.0916 129.697 68.9455 129.981 68.9455 130.456C68.9455 131.657 70.4063 131.772 70.4063 133.284C70.4063 134.092 70.0876 134.622 69.4236 134.622C68.7596 134.622 68.4497 134.076 68.4497 133.284V132.973H68.8924V133.311C68.8924 133.797 69.0562 134.081 69.4014 134.081C69.7467 134.081 69.9149 133.797 69.9149 133.311C69.9149 132.116 68.4586 132.001 68.4586 130.494C68.4586 129.664 68.7684 129.151 69.4236 129.151C70.0787 129.151 70.3842 129.659 70.3842 130.494Z" fill="#CCCCCC"/>
<path d="M72.6859 130.494V130.636H72.2432V130.461C72.2432 129.981 72.0927 129.697 71.743 129.697C71.3933 129.697 71.2472 129.981 71.2472 130.456C71.2472 131.657 72.7081 131.772 72.7081 133.284C72.7081 134.092 72.3893 134.622 71.7253 134.622C71.0613 134.622 70.7515 134.076 70.7515 133.284V132.973H71.1941V133.311C71.1941 133.797 71.3579 134.081 71.7032 134.081C72.0485 134.081 72.2123 133.797 72.2123 133.311C72.2123 132.116 70.7603 132.001 70.7603 130.494C70.7603 129.664 71.0702 129.151 71.7253 129.151C72.3805 129.151 72.6859 129.659 72.6859 130.494Z" fill="#CCCCCC"/>
<path d="M74.0803 134.545V129.184H74.5628V134.005H75.8067V134.551L74.0803 134.545Z" fill="#CCCCCC"/>
<path d="M76.6566 129.184V134.545H76.1697V129.184H76.6566Z" fill="#CCCCCC"/>
<path d="M77.5818 134.545H77.1392V129.184H77.75L78.7593 133.06V129.184H79.202V134.545H78.6973L77.5863 130.21L77.5818 134.545Z" fill="#CCCCCC"/>
<path d="M81.2381 131.586V132.132H80.1757V134.043H81.4816V134.589H79.7109V129.184H81.4816V129.73H80.1757V131.586H81.2381Z" fill="#CCCCCC"/>
<path d="M83.779 130.155C83.5977 130.295 83.3903 130.374 83.177 130.385V129.899C83.3487 129.903 83.5163 129.834 83.6517 129.704C83.7871 129.574 83.8821 129.39 83.9207 129.184H84.2571V134.545H83.779V130.155Z" fill="#CCCCCC"/>
<path d="M56.7632 150.696L56.595 151.788H56.1523L56.989 146.426H57.6884L58.5206 151.788H58.0337L57.8655 150.696H56.7632ZM56.8252 150.183H57.7946L57.3033 147.087L56.8252 150.183Z" fill="#CCCCCC"/>
<path d="M59.9149 146.426C60.5921 146.426 60.902 146.929 60.902 147.759V150.461C60.902 151.28 60.5921 151.788 59.9149 151.788H58.8967V146.426H59.9149ZM59.9149 151.242C60.2646 151.242 60.4328 150.974 60.4328 150.483V147.726C60.4328 147.234 60.2646 146.967 59.9104 146.967H59.3881V151.242H59.9149Z" fill="#CCCCCC"/>
<path d="M62.3719 146.426C63.0492 146.426 63.359 146.929 63.359 147.759V150.461C63.359 151.28 63.0492 151.788 62.3719 151.788H61.3538V146.426H62.3719ZM62.3719 151.242C62.7172 151.242 62.8854 150.974 62.8854 150.483V147.726C62.8854 147.234 62.7172 146.967 62.363 146.967H61.8407V151.242H62.3719Z" fill="#CCCCCC"/>
<path d="M64.7844 146.426C65.4661 146.426 65.7494 146.852 65.7494 147.649V148.086C65.7494 148.676 65.5856 149.047 65.2093 149.178C65.6077 149.326 65.7582 149.724 65.7582 150.297V151.133C65.7438 151.353 65.7727 151.574 65.8424 151.777H65.3554C65.2845 151.572 65.2556 151.349 65.2713 151.127V150.281C65.2713 149.675 65.0411 149.484 64.6383 149.484H64.2974V151.788H63.8149V146.426H64.7844ZM64.656 148.954C65.0411 148.954 65.2713 148.801 65.2713 148.217V147.704C65.2713 147.218 65.1297 146.967 64.7711 146.967H64.2974V148.954H64.656Z" fill="#CCCCCC"/>
<path d="M67.8077 148.801V149.347H66.7453V151.242H68.0512V151.788H66.2805V146.426H68.0512V146.972H66.7453V148.807L67.8077 148.801Z" fill="#CCCCCC"/>
<path d="M70.3842 147.709V147.857H69.9415V147.682C69.9415 147.196 69.791 146.912 69.4413 146.912C69.0916 146.912 68.9455 147.196 68.9455 147.671C68.9455 148.878 70.4063 148.993 70.4063 150.499C70.4063 151.313 70.0876 151.843 69.4236 151.843C68.7596 151.843 68.4497 151.297 68.4497 150.499V150.194H68.8924V150.532C68.8924 151.013 69.0562 151.297 69.4014 151.297C69.7467 151.297 69.9149 151.013 69.9149 150.532C69.9149 149.336 68.4586 149.222 68.4586 147.709C68.4586 146.885 68.7684 146.372 69.4236 146.372C70.0787 146.372 70.3842 146.901 70.3842 147.709Z" fill="#CCCCCC"/>
<path d="M72.6859 147.709V147.857H72.2432V147.682C72.2432 147.196 72.0927 146.912 71.743 146.912C71.3933 146.912 71.2472 147.196 71.2472 147.671C71.2472 148.878 72.7081 148.993 72.7081 150.499C72.7081 151.313 72.3893 151.843 71.7253 151.843C71.0613 151.843 70.7515 151.297 70.7515 150.499V150.194H71.1941V150.532C71.1941 151.013 71.3579 151.297 71.7032 151.297C72.0485 151.297 72.2123 151.013 72.2123 150.532C72.2123 149.336 70.7603 149.222 70.7603 147.709C70.7603 146.885 71.0702 146.372 71.7253 146.372C72.3805 146.372 72.6859 146.901 72.6859 147.709Z" fill="#CCCCCC"/>
<path d="M74.0803 151.788V146.426H74.5628V151.242H75.8067V151.788H74.0803Z" fill="#CCCCCC"/>
<path d="M76.6566 146.426V151.788H76.1697V146.426H76.6566Z" fill="#CCCCCC"/>
<path d="M77.5818 151.788H77.1392V146.426H77.75L78.7593 150.303V146.426H79.202V151.788H78.6973L77.5863 147.453L77.5818 151.788Z" fill="#CCCCCC"/>
<path d="M81.2381 148.801V149.347H80.1757V151.242H81.4816V151.788H79.7109V146.426H81.4816V146.972H80.1757V148.807L81.2381 148.801Z" fill="#CCCCCC"/>
<path d="M84.846 147.726C84.846 149.364 83.3763 149.91 83.3675 151.16V151.242H84.7973V151.788H82.8894V151.329C82.8894 149.599 84.3635 149.26 84.3635 147.748C84.3635 147.202 84.213 146.907 83.8544 146.907C83.4959 146.907 83.3454 147.218 83.3454 147.698V148.174H82.9027V147.737C82.9027 146.912 83.2081 146.372 83.8765 146.372C84.545 146.372 84.846 146.907 84.846 147.726Z" fill="#CCCCCC"/>
<path d="M56.9536 167.622V162.806H56.1479V162.26H58.2329V162.806H57.4317V167.622H56.9536Z" fill="#CCCCCC"/>
<path d="M58.5205 163.56C58.5205 162.741 58.8525 162.211 59.5165 162.211C60.1805 162.211 60.5169 162.757 60.5169 163.56V166.333C60.5375 166.507 60.5266 166.683 60.485 166.851C60.4434 167.018 60.3721 167.172 60.2763 167.301C60.1806 167.43 60.0627 167.531 59.9313 167.597C59.7998 167.663 59.6582 167.692 59.5165 167.682C58.8525 167.682 58.5205 167.136 58.5205 166.333V163.56ZM58.9986 166.366C58.9986 166.858 59.1668 167.142 59.5165 167.142C59.8662 167.142 60.03 166.858 60.03 166.366V163.533C60.03 163.047 59.8706 162.757 59.5165 162.757C59.1624 162.757 58.9986 163.047 58.9986 163.533V166.366Z" fill="#CCCCCC"/>
<path d="M62.1327 167.622H61.4643L60.8711 162.26H61.3403L61.8494 166.825L62.3363 162.266H62.8144L63.2925 166.836L63.7838 162.26H64.1867L63.6156 167.622H62.9738L62.5577 163.986L62.1327 167.622Z" fill="#CCCCCC"/>
<path d="M65.0232 167.622H64.5806V162.26H65.1959L66.2007 166.137V162.26H66.6434V167.622H66.1343L65.0232 163.287V167.622Z" fill="#CCCCCC"/>
<path d="M69.1223 162.266L67.4092 167.622H66.9666L68.6841 162.26L69.1223 162.266Z" fill="#CCCCCC"/>
<path d="M71.389 163.56V164.046H70.9463V163.533C70.9463 163.047 70.7914 162.757 70.4372 162.757C70.0831 162.757 69.9282 163.047 69.9282 163.533V166.366C69.9282 166.847 70.0919 167.142 70.4372 167.142C70.7825 167.142 70.9463 166.847 70.9463 166.366V165.667H71.389V166.333C71.389 167.147 71.0791 167.682 70.4107 167.682C69.7422 167.682 69.4324 167.136 69.4324 166.333V163.56C69.4324 162.746 69.7422 162.211 70.4107 162.211C71.0791 162.211 71.389 162.746 71.389 163.56Z" fill="#CCCCCC"/>
<path d="M72.314 162.266V167.622H71.8315V162.26L72.314 162.266Z" fill="#CCCCCC"/>
<path d="M73.4384 167.622V162.806H72.6372V162.26H74.7177V162.806H73.9254V167.622H73.4384Z" fill="#CCCCCC"/>
<path d="M75.8155 165.706L74.8992 162.266H75.3994L76.0767 164.903L76.7628 162.266H77.2055L76.2759 165.706V167.622H75.7978L75.8155 165.706Z" fill="#CCCCCC"/>
<path d="M57.1039 179.82C57.7901 179.82 58.0778 180.316 58.0778 181.13V181.774C58.0778 182.626 57.7591 183.068 57.0685 183.068H56.6258V185.187H56.1389V179.82H57.1039ZM57.0685 182.55C57.4271 182.55 57.5997 182.342 57.5997 181.829V181.119C57.5997 180.628 57.4581 180.382 57.1039 180.382H56.6391V182.566L57.0685 182.55Z" fill="#CCCCCC"/>
<path d="M58.9366 182.774V185.187H58.4541V179.82H58.9366V182.233H60.0079V179.82H60.4904V185.187H60.0079V182.774H58.9366Z" fill="#CCCCCC"/>
<path d="M60.9509 181.114C60.9509 180.295 61.2785 179.765 61.9425 179.765C62.6065 179.765 62.9429 180.311 62.9429 181.114V183.887C62.9429 184.701 62.6154 185.236 61.9425 185.236C61.2696 185.236 60.9509 184.69 60.9509 183.887V181.114ZM61.429 183.92C61.429 184.411 61.5972 184.695 61.9425 184.695C62.2878 184.695 62.4604 184.411 62.4604 183.92V181.086C62.4604 180.6 62.2966 180.311 61.9425 180.311C61.5884 180.311 61.429 180.6 61.429 181.086V183.92Z" fill="#CCCCCC"/>
<path d="M63.8326 185.187H63.3899V179.82H64.0052L65.0101 183.696V179.82H65.4527V185.187H64.9481L63.837 180.846L63.8326 185.187Z" fill="#CCCCCC"/>
<path d="M67.4889 182.195V182.741H66.4265V184.652H67.7279V185.198H65.9573V179.831H67.7279V180.377H66.4221V182.206L67.4889 182.195Z" fill="#CCCCCC"/>
<path d="M69.5696 185.187H69.127V179.82H69.7423L70.7471 183.696V179.82H71.1898V185.187H70.6851L69.574 180.846L69.5696 185.187Z" fill="#CCCCCC"/>
<path d="M72.1547 183.92C72.1547 184.401 72.3096 184.695 72.6637 184.695C73.0179 184.695 73.1684 184.401 73.1684 183.92V179.82H73.611V183.887C73.611 184.701 73.3056 185.247 72.6372 185.247C71.9687 185.247 71.6677 184.701 71.6677 183.887V179.82H72.1547V183.92Z" fill="#CCCCCC"/>
<path d="M75.696 185.176H75.2533L74.5318 180.912V185.187H74.0891V179.82H74.762L75.4791 184.106L76.1697 179.82H76.8469V185.187H76.4043V180.868L75.696 185.176Z" fill="#CCCCCC"/>
<path d="M78.3078 179.82C78.9851 179.82 79.2507 180.218 79.2507 181.01V181.272C79.2507 181.818 79.1224 182.189 78.7417 182.337C79.1843 182.484 79.326 182.883 79.326 183.489V183.936C79.3487 184.105 79.339 184.278 79.2977 184.441C79.2564 184.604 79.1847 184.753 79.0882 184.876C78.9918 184.998 78.8733 185.091 78.7424 185.147C78.6115 185.203 78.4717 185.221 78.3344 185.198H77.334V179.831L78.3078 179.82ZM78.1883 182.096C78.5735 182.096 78.7727 181.944 78.7727 181.387V181.07C78.7727 180.595 78.6443 180.366 78.2946 180.366H77.8165V182.096H78.1883ZM78.3344 184.641C78.6885 184.641 78.8479 184.412 78.8479 183.915V183.456C78.8479 182.855 78.6576 182.659 78.2415 182.659H77.7988V184.657L78.3344 184.641Z" fill="#CCCCCC"/>
<path d="M81.3134 182.195V182.741H80.251V184.652H81.579V185.198H79.8083V179.831H81.579V180.377H80.251V182.206L81.3134 182.195Z" fill="#CCCCCC"/>
<path d="M82.9736 179.82C83.6553 179.82 83.9386 180.251 83.9386 181.048V181.485C83.9386 182.075 83.7748 182.44 83.3985 182.577C83.7969 182.719 83.9475 183.123 83.9475 183.669V184.548C83.933 184.768 83.9619 184.989 84.0316 185.192H83.5446C83.4744 184.985 83.4455 184.761 83.4605 184.537V183.696C83.4605 183.09 83.2303 182.899 82.8275 182.899H82.4867V185.192H82.0042V179.825L82.9736 179.82ZM82.8452 182.348C83.2303 182.348 83.4605 182.195 83.4605 181.616V181.103C83.4605 180.617 83.3189 180.366 82.9603 180.366H82.4867V182.364L82.8452 182.348Z" fill="#CCCCCC"/>
<path d="M130.489 162.266C131.176 162.266 131.468 162.763 131.468 163.576V164.22C131.468 165.072 131.145 165.514 130.454 165.514H130.011V167.622H129.529V162.26L130.489 162.266ZM130.454 164.996C130.813 164.996 130.985 164.788 130.985 164.275V163.56C130.985 163.074 130.844 162.828 130.489 162.828H130.047V165.012L130.454 164.996Z" fill="#CCCCCC"/>
<path d="M131.809 163.56C131.809 162.741 132.136 162.211 132.8 162.211C133.464 162.211 133.801 162.757 133.801 163.56V166.333C133.801 167.147 133.473 167.682 132.8 167.682C132.127 167.682 131.809 167.136 131.809 166.333V163.56ZM132.287 166.366C132.287 166.858 132.455 167.142 132.8 167.142C133.145 167.142 133.318 166.858 133.318 166.366V163.533C133.318 163.047 133.154 162.757 132.8 162.757C132.446 162.757 132.287 163.047 132.287 163.533V166.366Z" fill="#CCCCCC"/>
<path d="M136.142 163.554V163.696H135.7V163.522C135.7 163.041 135.549 162.757 135.204 162.757C134.858 162.757 134.708 163.041 134.708 163.516C134.708 164.717 136.164 164.832 136.164 166.344C136.164 167.152 135.85 167.682 135.186 167.682C134.522 167.682 134.208 167.136 134.208 166.344V166.039H134.65V166.372C134.65 166.858 134.81 167.142 135.159 167.142C135.509 167.142 135.669 166.858 135.669 166.372C135.669 165.176 134.212 165.061 134.212 163.554C134.212 162.724 134.526 162.211 135.177 162.211C135.828 162.211 136.142 162.741 136.142 163.554Z" fill="#CCCCCC"/>
<path d="M137.196 167.622V162.806H136.395V162.26H138.475V162.806H137.669V167.622H137.196Z" fill="#CCCCCC"/>
<path d="M141.689 163.56V164.046H141.246V163.533C141.246 163.047 141.091 162.757 140.737 162.757C140.383 162.757 140.228 163.047 140.228 163.533V166.366C140.228 166.847 140.387 167.142 140.737 167.142C141.087 167.142 141.246 166.847 141.246 166.366V165.667H141.689V166.333C141.689 167.147 141.374 167.682 140.706 167.682C140.038 167.682 139.732 167.136 139.732 166.333V163.56C139.732 162.746 140.042 162.211 140.706 162.211C141.37 162.211 141.689 162.746 141.689 163.56Z" fill="#CCCCCC"/>
<path d="M142.096 163.56C142.096 162.741 142.424 162.211 143.088 162.211C143.752 162.211 144.088 162.757 144.088 163.56V166.333C144.088 167.147 143.76 167.682 143.088 167.682C142.415 167.682 142.096 167.136 142.096 166.333V163.56ZM142.574 166.366C142.574 166.858 142.742 167.142 143.088 167.142C143.433 167.142 143.605 166.858 143.605 166.366V163.533C143.605 163.047 143.442 162.757 143.088 162.757C142.733 162.757 142.574 163.047 142.574 163.533V166.366Z" fill="#CCCCCC"/>
<path d="M145.562 162.266C146.239 162.266 146.549 162.774 146.549 163.598V166.328C146.549 167.147 146.239 167.649 145.562 167.649H144.544V162.288L145.562 162.266ZM145.562 167.087C145.907 167.087 146.076 166.819 146.076 166.328V163.571C146.076 163.079 145.907 162.812 145.553 162.812H145.031V167.076L145.562 167.087Z" fill="#CCCCCC"/>
<path d="M148.55 164.641V165.187H147.488V167.076H148.794V167.622H147.001V162.26H148.794V162.806H147.488V164.635L148.55 164.641Z" fill="#CCCCCC"/>
<path d="M261.93 62.861H49.2468V79.17H261.93V62.861Z" fill="#A4CE4A" stroke="#263238" stroke-linecap="round" stroke-linejoin="round"/>
<path d="M146.523 67.5238H115.926V79.17H146.523V67.5238Z" fill="white" stroke="#263238" stroke-linecap="round" stroke-linejoin="round"/>
<path d="M180.519 67.5238H149.922V79.17H180.519V67.5238Z" fill="white" stroke="#263238" stroke-linecap="round" stroke-linejoin="round"/>
<path d="M214.521 67.5238H183.924V79.17H214.521V67.5238Z" fill="white" stroke="#263238" stroke-linecap="round" stroke-linejoin="round"/>
<path d="M248.518 67.5238H217.92V79.17H248.518V67.5238Z" fill="white" stroke="#263238" stroke-linecap="round" stroke-linejoin="round"/>
<path d="M235.76 226.814H76.5371V236.489H235.76V226.814Z" fill="#263238" stroke="#263238" stroke-linecap="round" stroke-linejoin="round"/>
<path d="M235.76 231.471H76.5371V236.489H235.76V231.471Z" fill="white" stroke="#263238" stroke-linecap="round" stroke-linejoin="round"/>
<path d="M21.0444 242.222C21.0444 242.222 23.6562 246.164 31.5002 249.391H280.792C280.792 249.391 286.605 247.6 289.203 242.582L21.0444 242.222Z" fill="#263238" stroke="#263238" stroke-linecap="round" stroke-linejoin="round"/>
<path d="M288.946 235.162H21.3454C20.8834 235.162 20.5088 235.624 20.5088 236.194V241.665C20.5088 242.235 20.8834 242.697 21.3454 242.697H288.946C289.408 242.697 289.783 242.235 289.783 241.665V236.194C289.783 235.624 289.408 235.162 288.946 235.162Z" fill="#969696" stroke="#263238" stroke-miterlimit="10"/>
<path d="M157.589 55.8722C157.589 55.3765 157.47 54.892 157.247 54.4799C157.024 54.0677 156.706 53.7465 156.335 53.5568C155.964 53.3671 155.555 53.3175 155.161 53.4142C154.767 53.5109 154.405 53.7496 154.121 54.1001C153.837 54.4506 153.643 54.8971 153.565 55.3833C153.486 55.8694 153.527 56.3733 153.68 56.8313C153.834 57.2892 154.095 57.6806 154.429 57.956C154.763 58.2314 155.156 58.3783 155.557 58.3783C156.096 58.3783 156.613 58.1143 156.994 57.6443C157.375 57.1743 157.589 56.5369 157.589 55.8722Z" fill="#263238" stroke="#263238" stroke-linecap="round" stroke-linejoin="round"/>
<path d="M41.9605 102.457C41.8067 102.457 41.6592 102.382 41.5505 102.247C41.4417 102.113 41.3806 101.931 41.3806 101.742V80.9554C41.3852 80.7696 41.4483 80.5932 41.5566 80.4637C41.6649 80.3343 41.8097 80.2619 41.9605 80.262C42.1147 80.262 42.2627 80.3372 42.3721 80.4712C42.4816 80.6052 42.5437 80.7871 42.5448 80.9773V101.764C42.5402 101.95 42.4765 102.128 42.3673 102.257C42.2581 102.387 42.112 102.458 41.9605 102.457Z" fill="#263238"/>
<path d="M242.316 88.2828H213.41C213.055 88.2828 212.768 88.6372 212.768 89.0745V110.898C212.768 111.335 213.055 111.69 213.41 111.69H242.316C242.67 111.69 242.958 111.335 242.958 110.898V89.0745C242.958 88.6372 242.67 88.2828 242.316 88.2828Z" fill="#ADADAD"/>
<path d="M240.638 90.4832H234.928V95.6592H240.638V90.4832Z" fill="white"/>
<path d="M215.955 101.873H219.479" stroke="white" stroke-miterlimit="10"/>
<path d="M215.955 92.5525H219.479" stroke="white" stroke-miterlimit="10"/>
<path d="M215.955 107.879H219.479" stroke="white" stroke-miterlimit="10"/>
<path d="M221.493 107.879H225.021" stroke="white" stroke-miterlimit="10"/>
<path d="M221.161 101.873H224.684" stroke="white" stroke-miterlimit="10"/>
<path d="M226.366 101.873H229.89" stroke="white" stroke-miterlimit="10"/>
<path d="M231.568 101.873H235.096" stroke="white" stroke-miterlimit="10"/>
<path d="M236.774 101.873H240.302" stroke="white" stroke-miterlimit="10"/>
<path d="M186.239 191.854C186.239 191.854 179.276 186.497 180.484 186.246C181.693 185.995 200.378 186.874 201.993 187.12C203.609 187.365 208.961 188.119 209.665 188.49C210.369 188.861 217.54 191.979 222.086 192.476C226.632 192.973 231.382 192.602 232.183 193.098C232.984 193.595 236.021 197.466 235.313 198.826C234.605 200.185 232.688 200.573 232.688 200.573L217.743 202.566C217.743 202.566 215.322 199.077 213.401 198.078C211.48 197.079 198.558 192.35 194.924 192.35C191.29 192.35 186.239 191.854 186.239 191.854Z" fill="#263238" stroke="#263238" stroke-miterlimit="10"/>
<path d="M184.526 201.818C184.526 201.818 177.952 217.259 171.095 222.986C171.095 222.986 169.984 223.489 172.003 223.489C174.021 223.489 180.285 215.14 182.303 212.154C184.322 209.167 186.442 207.294 189.067 207.294H192.905L184.526 201.818Z" fill="#263238" stroke="#263238" stroke-miterlimit="10"/>
<path d="M190.989 215.02C188.232 215.019 185.537 216.026 183.245 217.915C180.953 219.803 179.166 222.487 178.111 225.628C177.055 228.769 176.779 232.226 177.317 235.56C177.854 238.895 179.181 241.958 181.131 244.362C183.08 246.766 185.563 248.403 188.267 249.066C190.97 249.729 193.773 249.389 196.319 248.087C198.866 246.785 201.042 244.582 202.573 241.754C204.104 238.927 204.92 235.603 204.919 232.203C204.919 227.646 203.452 223.275 200.839 220.053C198.227 216.831 194.683 215.02 190.989 215.02ZM190.989 242.047C189.413 242.047 187.872 241.471 186.562 240.391C185.252 239.311 184.23 237.776 183.627 235.98C183.024 234.184 182.866 232.208 183.174 230.302C183.481 228.395 184.24 226.644 185.354 225.27C186.469 223.895 187.889 222.959 189.434 222.58C190.98 222.201 192.582 222.396 194.038 223.139C195.494 223.883 196.738 225.143 197.614 226.759C198.489 228.375 198.957 230.275 198.957 232.219C198.957 234.826 198.117 237.326 196.623 239.169C195.129 241.012 193.102 242.047 190.989 242.047Z" fill="#263238" stroke="#263238" stroke-miterlimit="10"/>
<path d="M190.989 225.105C189.85 225.105 188.738 225.521 187.791 226.301C186.845 227.081 186.107 228.19 185.672 229.487C185.236 230.784 185.122 232.211 185.344 233.588C185.567 234.965 186.115 236.229 186.919 237.222C187.724 238.215 188.75 238.891 189.866 239.165C190.982 239.438 192.139 239.298 193.191 238.761C194.242 238.223 195.141 237.314 195.773 236.146C196.406 234.979 196.743 233.607 196.743 232.203C196.743 230.32 196.137 228.515 195.058 227.184C193.979 225.853 192.515 225.105 190.989 225.105ZM190.989 236.271C190.336 236.272 189.698 236.034 189.155 235.588C188.612 235.141 188.189 234.507 187.939 233.763C187.688 233.02 187.622 232.202 187.749 231.413C187.876 230.623 188.19 229.898 188.651 229.329C189.112 228.759 189.699 228.371 190.339 228.214C190.979 228.056 191.642 228.137 192.245 228.444C192.848 228.752 193.363 229.273 193.726 229.942C194.088 230.612 194.282 231.398 194.282 232.203C194.282 233.281 193.935 234.315 193.318 235.077C192.7 235.84 191.862 236.269 190.989 236.271Z" fill="#263238" stroke="#263238" stroke-miterlimit="10"/>
<path d="M190.989 219.874C189.011 219.871 187.077 220.591 185.432 221.944C183.786 223.297 182.503 225.221 181.745 227.474C180.986 229.726 180.786 232.205 181.17 234.598C181.555 236.991 182.506 239.189 183.903 240.915C185.3 242.641 187.081 243.816 189.021 244.293C190.96 244.771 192.97 244.527 194.797 243.595C196.625 242.662 198.186 241.082 199.285 239.054C200.384 237.026 200.971 234.642 200.971 232.203C200.972 228.936 199.921 225.801 198.049 223.489C196.177 221.177 193.638 219.877 190.989 219.874ZM190.989 242.047C189.413 242.047 187.872 241.471 186.562 240.391C185.252 239.311 184.23 237.776 183.627 235.98C183.024 234.184 182.866 232.208 183.174 230.302C183.481 228.395 184.24 226.644 185.354 225.27C186.469 223.895 187.889 222.959 189.434 222.58C190.98 222.201 192.582 222.396 194.038 223.139C195.494 223.883 196.738 225.143 197.614 226.759C198.489 228.375 198.957 230.275 198.957 232.219C198.957 234.826 198.117 237.326 196.623 239.169C195.129 241.012 193.102 242.047 190.989 242.047Z" fill="white" stroke="#263238" stroke-miterlimit="10"/>
<path d="M197.248 208.294L193.308 221.496L195.127 222.364L199.165 209.162L197.248 208.294Z" fill="#263238" stroke="#263238" stroke-miterlimit="10"/>
<path d="M193.308 221.496C193.308 221.496 189.169 219.252 185.836 222.364C182.503 225.476 182.1 229.32 182.1 229.32C182.1 229.32 187.35 234.048 194.216 234.78C201.081 235.512 208.049 234.283 211.48 233.038C213.582 232.268 215.612 231.225 217.535 229.926L209.054 218.46C209.054 218.46 207.845 216.342 205.017 218.335C202.188 220.327 202.086 222.943 202.086 222.943L193.308 221.496Z" fill="#263238" stroke="#263238" stroke-miterlimit="10"/>
<path d="M199.165 209.162L196.239 222.49L204.72 227.223C204.629 225.701 204.91 224.179 205.526 222.855C206.535 220.862 207.85 220.983 208.151 221.217C208.452 221.452 210.271 222.588 210.271 222.588L209.465 214.742L199.165 209.162Z" fill="#263238" stroke="#263238" stroke-miterlimit="10"/>
<path d="M274.799 215.02C272.042 215.019 269.347 216.026 267.055 217.915C264.763 219.803 262.976 222.487 261.921 225.628C260.865 228.769 260.589 232.226 261.127 235.56C261.664 238.895 262.992 241.958 264.941 244.362C266.89 246.766 269.373 248.403 272.077 249.066C274.78 249.729 277.583 249.389 280.129 248.087C282.676 246.785 284.852 244.582 286.383 241.754C287.914 238.927 288.73 235.603 288.729 232.203C288.729 229.946 288.369 227.712 287.669 225.627C286.969 223.543 285.943 221.648 284.649 220.053C283.356 218.457 281.82 217.192 280.13 216.328C278.44 215.465 276.628 215.02 274.799 215.02ZM274.799 242.047C273.223 242.047 271.682 241.471 270.372 240.391C269.062 239.311 268.04 237.776 267.437 235.98C266.834 234.184 266.676 232.208 266.984 230.302C267.291 228.395 268.05 226.644 269.164 225.27C270.279 223.895 271.699 222.959 273.244 222.58C274.79 222.201 276.392 222.396 277.848 223.139C279.304 223.883 280.548 225.143 281.424 226.759C282.299 228.375 282.767 230.275 282.767 232.219C282.767 234.826 281.927 237.326 280.433 239.169C278.939 241.012 276.912 242.047 274.799 242.047Z" fill="#263238" stroke="#263238" stroke-miterlimit="10"/>
<path d="M274.799 225.105C273.66 225.105 272.548 225.521 271.602 226.301C270.655 227.081 269.918 228.19 269.482 229.487C269.046 230.784 268.932 232.211 269.155 233.588C269.377 234.965 269.925 236.229 270.729 237.222C271.534 238.215 272.56 238.891 273.676 239.165C274.792 239.438 275.949 239.298 277.001 238.761C278.052 238.223 278.951 237.314 279.583 236.146C280.216 234.979 280.553 233.607 280.553 232.203C280.553 230.32 279.947 228.515 278.868 227.184C277.789 225.853 276.325 225.105 274.799 225.105ZM274.799 236.271C274.146 236.272 273.508 236.034 272.965 235.588C272.422 235.141 271.999 234.507 271.749 233.763C271.498 233.02 271.432 232.202 271.559 231.413C271.686 230.623 272 229.898 272.461 229.329C272.922 228.759 273.509 228.371 274.149 228.214C274.789 228.056 275.452 228.137 276.055 228.444C276.658 228.752 277.173 229.273 277.536 229.942C277.899 230.612 278.092 231.398 278.092 232.203C278.092 233.281 277.745 234.315 277.128 235.077C276.51 235.84 275.673 236.269 274.799 236.271Z" fill="#263238" stroke="#263238" stroke-miterlimit="10"/>
<path d="M274.799 219.874C272.822 219.874 270.889 220.597 269.245 221.952C267.602 223.307 266.321 225.232 265.564 227.485C264.808 229.738 264.61 232.217 264.995 234.608C265.381 237 266.333 239.196 267.731 240.921C269.129 242.645 270.91 243.819 272.849 244.295C274.788 244.77 276.797 244.526 278.624 243.593C280.45 242.66 282.011 241.08 283.11 239.052C284.208 237.025 284.794 234.641 284.794 232.203C284.794 228.933 283.741 225.797 281.866 223.485C279.992 221.173 277.45 219.874 274.799 219.874ZM274.799 242.047C273.223 242.047 271.682 241.471 270.372 240.391C269.062 239.311 268.04 237.776 267.437 235.98C266.834 234.184 266.676 232.208 266.984 230.302C267.291 228.395 268.05 226.644 269.164 225.27C270.279 223.895 271.699 222.959 273.244 222.58C274.79 222.201 276.392 222.396 277.848 223.139C279.304 223.883 280.548 225.143 281.424 226.759C282.299 228.375 282.767 230.275 282.767 232.219C282.767 234.826 281.927 237.326 280.433 239.169C278.939 241.012 276.912 242.047 274.799 242.047Z" fill="white" stroke="#263238" stroke-miterlimit="10"/>
<path d="M262.014 216.216L273.006 220.387C273.006 220.387 278.924 214.873 285.684 216.811C285.684 216.811 283.271 208.321 268.052 206.83L262.014 216.216Z" fill="#A4CE4A" stroke="#263238" stroke-miterlimit="10"/>
<path d="M273.325 232.203L263.852 211.848L265.737 210.516L275.21 230.887C275.321 231.135 275.349 231.426 275.288 231.699C275.228 231.972 275.084 232.206 274.887 232.35L274.507 232.618C274.304 232.751 274.068 232.782 273.848 232.705C273.627 232.627 273.44 232.447 273.325 232.203Z" fill="#6E6E6E" stroke="#263238" stroke-miterlimit="10"/>
<path d="M252.276 179.028C252.276 179.028 261.16 184.259 263.586 186.497C266.012 188.736 270.956 193.595 271.762 194.966C272.568 196.336 274.892 200.819 274.086 202.315C273.28 203.811 272.758 204.679 272.267 205.045C271.775 205.411 269.442 205.913 268.331 207.535C267.22 209.156 257.929 227.338 257.929 227.338C257.929 227.338 254.6 233.939 254.091 233.939C253.582 233.939 247.73 236.555 240.262 236.178C232.794 235.801 223.804 233.317 222.188 233.191C220.572 233.066 218.753 231.946 218.044 231.444C217.336 230.942 215.322 229.331 212.392 225.591C209.461 221.851 207.544 220.611 207.748 215.877C207.748 215.877 184.729 203.423 183.614 202.053C182.498 200.682 179.878 194.332 180.989 193.213C182.1 192.094 186.744 190.843 192.6 191.717C198.456 192.591 211.281 196.2 213.804 198.318C215.26 199.514 216.584 200.939 217.743 202.555L232.688 200.562L233.595 202.566C233.595 202.566 228.243 211.155 228.243 211.777C228.243 212.399 234.202 224.734 234.202 224.734C234.202 224.734 231.072 225.23 228.85 225.356C226.628 225.482 224.711 225.853 224.711 225.853C224.711 225.853 244.503 227.223 247.632 226.972C250.762 226.721 252.781 222.604 253.285 220.994C253.79 219.383 252.475 211.531 253.586 206.798C254.697 202.064 256.114 198.951 254.6 195.714C253.086 192.476 247.831 185.252 247.831 183.156C247.831 181.059 252.276 179.028 252.276 179.028Z" fill="#A4CE4A" stroke="#263238" stroke-miterlimit="10"/>
<path d="M252.276 179.028C252.276 179.028 246.419 183.259 246.419 184.007C246.419 184.755 251.368 196.462 252.072 198.951C252.776 201.441 250.66 217.756 250.155 219.503C249.651 221.25 246.72 224.963 246.72 224.963L234.202 224.717L231.833 225.372L228.85 225.34C228.85 225.34 225.419 223.347 224.813 223.221C224.206 223.096 213.401 219.607 211.887 220.731C210.373 221.856 210.878 223.221 211.484 223.461C212.091 223.702 234.304 228.692 234.808 228.692C235.313 228.692 246.419 230.931 250.257 229.189C254.095 227.447 257.827 220.721 258.637 218.476L259.443 216.238L256.114 212.623C256.114 212.623 256.211 209.134 256.818 207.267C257.424 205.4 259.443 199.798 258.841 197.805C258.239 195.812 249.664 184.881 249.753 183.259C249.841 181.638 252.276 179.028 252.276 179.028Z" fill="#263238" stroke="#263238" stroke-miterlimit="10"/>
<path d="M253.489 216.014C252.395 216.391 251.302 217.444 250.332 218.668C250.262 219.055 250.2 219.339 250.155 219.503C249.651 221.245 246.72 224.963 246.72 224.963L234.202 224.717L231.833 225.372L228.85 225.34C227.7 225.677 226.575 226.13 225.486 226.694C230.315 227.786 234.591 228.703 234.808 228.703C235.313 228.703 246.419 230.942 250.257 229.2C254.095 227.458 257.827 220.731 258.637 218.487L259.443 216.249C257.523 215.427 255.447 215.345 253.489 216.014Z" fill="#263238" stroke="#263238" stroke-miterlimit="10"/>
<path d="M252.984 168.064C252.984 168.064 247.73 165.7 245.813 166.694C243.896 167.688 240.766 170.805 240.359 172.924C239.952 175.042 240.766 176.036 242.077 177.532C243.387 179.028 246.924 183.756 246.924 183.756L252.276 179.028L252.984 177.903C252.984 177.903 255.507 177.035 255.609 176.413C255.679 174.522 255.509 172.63 255.104 170.805C254.967 170.165 254.7 169.578 254.33 169.099C253.959 168.62 253.496 168.264 252.984 168.064Z" fill="#A4CE4A" stroke="#263238" stroke-miterlimit="10"/>
<path d="M252.763 168.567C252.763 168.567 251.877 170.68 252.559 172.176C253.241 173.672 254.773 177.778 255.184 176.544C255.596 175.31 254.985 171.313 254.299 170.194C253.882 169.527 253.36 168.974 252.763 168.567Z" fill="white" stroke="#263238" stroke-miterlimit="10"/>
<path d="M243.648 179.47C245.153 181.387 246.924 183.756 246.924 183.756L252.276 179.028L252.984 177.903C253.714 177.651 254.426 177.326 255.113 176.931C253.05 175.73 248.42 173.208 247.327 174.169C246.233 175.13 244.489 178.034 243.648 179.47Z" fill="#6E6E6E" stroke="#263238" stroke-miterlimit="10"/>
<path d="M245.105 169.56C245.105 169.56 245.007 160.721 243.777 160.469C242.546 160.218 240.341 161.343 240.341 161.343C239.855 160.489 239.524 159.516 239.371 158.49C239.218 157.463 239.247 156.408 239.456 155.397C239.483 155.266 239.514 155.13 239.549 154.988C240.457 151.253 244.901 158.225 245.304 159.356C245.555 160.23 245.658 161.16 245.605 162.086L246.211 169.063C246.211 169.063 247.929 170.308 247.123 170.434C246.317 170.56 243.082 170.434 243.892 169.435C244.702 168.436 245.105 169.56 245.105 169.56Z" fill="#263238" stroke="#263238" stroke-miterlimit="10"/>
<path d="M250.93 180.218L240.271 174.212C240.359 175.506 241.068 176.363 242.077 177.488C243.405 178.984 246.924 183.713 246.924 183.713L250.93 180.218Z" fill="#263238" stroke="#263238" stroke-miterlimit="10"/>
<path d="M203.025 150.21H169.612V185.662H203.025V150.21Z" fill="#263238" stroke="#263238" stroke-miterlimit="10"/>
<path d="M200.152 185.667H172.126V186.552H200.152V185.667Z" fill="#263238" stroke="#263238" stroke-miterlimit="10"/>
<path d="M232.754 224.952C233.609 224.837 234.202 224.745 234.202 224.745C234.202 224.745 228.243 212.394 228.243 211.777C228.243 211.16 233.595 202.566 233.595 202.566L232.688 200.573L217.743 202.566C217.743 202.566 226.327 214.895 229.054 218.88C230.376 220.82 231.611 222.847 232.754 224.952Z" fill="#6E6E6E" stroke="#263238" stroke-miterlimit="10"/>
<path d="M271.859 201.512L273.608 202.075" stroke="#263238" stroke-miterlimit="10"/>
<path d="M259.721 197.608L270.394 201.043" stroke="#263238" stroke-miterlimit="10"/>
<path d="M266.003 198.498L259.239 191.351L263.223 192.689L270.23 199.842L266.003 198.498Z" fill="white" stroke="#263238" stroke-miterlimit="10"/>
<path d="M221.05 213.666C222.688 213.846 223.857 213.988 223.857 213.988" stroke="#263238" stroke-miterlimit="10"/>
<path d="M208.456 215.124C208.456 215.124 208.456 213.339 211.719 213.115C214.379 213.085 217.039 213.227 219.687 213.541" stroke="#263238" stroke-miterlimit="10"/>
<path d="M233.48 185.564C233.077 185.443 230.784 183.123 231.196 183.063C234.839 182.517 244.259 183.855 245.853 184.155C247.995 184.532 245.078 199.743 244.365 205.149C243.75 209.806 244.604 212.94 244.529 213.885C244.522 213.957 244.531 214.031 244.553 214.099C244.576 214.166 244.611 214.226 244.657 214.272L245.1 214.753C245.171 214.832 245.217 214.941 245.228 215.059L245.379 216.844C245.39 216.958 245.435 217.063 245.505 217.139C245.576 217.215 245.666 217.256 245.76 217.253C246.853 217.247 247.94 217.037 248.982 216.631C250.204 216.003 252.139 215.124 251.638 216.505C251.138 217.887 249.5 220.404 248.584 220.906C247.668 221.408 242.776 223.041 241.55 223.423C240.634 223.702 238.398 223.702 237.336 223.685C237.274 223.685 237.212 223.666 237.158 223.629C237.103 223.592 237.057 223.539 237.024 223.474C236.991 223.409 236.972 223.335 236.968 223.258C236.964 223.181 236.977 223.105 237.004 223.036C237.446 221.791 238.416 219.012 238.496 217.39C238.597 215.25 239.009 201.791 239.925 197.892C240.727 194.491 241.842 190.423 242.112 188.539C242.123 188.48 242.125 188.419 242.116 188.36C242.108 188.3 242.09 188.244 242.064 188.193C242.037 188.142 242.003 188.098 241.963 188.064C241.922 188.03 241.877 188.006 241.829 187.993L233.48 185.564Z" fill="#263238" stroke="#263238" stroke-miterlimit="10"/>
<path d="M239.009 219.836L241.585 221.365C241.632 221.394 241.683 221.411 241.736 221.414C242.271 221.414 245.481 221.556 246.039 221.785C246.596 222.015 246.955 222.162 246.446 222.915C245.937 223.669 243.697 224.952 241.253 225.558C239.075 226.156 236.844 226.41 234.613 226.312C233.769 226.272 232.929 226.14 232.103 225.918C232.007 225.892 231.923 225.82 231.87 225.718C231.817 225.615 231.799 225.491 231.82 225.372L232.427 221.217C232.44 221.122 232.478 221.034 232.535 220.967C232.591 220.899 232.663 220.855 232.741 220.841L238.779 219.781C238.858 219.768 238.939 219.787 239.009 219.836Z" fill="white" stroke="#263238" stroke-miterlimit="10"/>
<path d="M246.446 222.915C246.888 222.244 246.707 222.069 246.224 221.862L245.808 221.922C244.963 222.615 243.498 223.429 240.939 224.177C238.098 225.067 235.154 225.35 232.236 225.012C232.142 225.001 232.048 225.033 231.973 225.103C231.898 225.172 231.846 225.275 231.829 225.389C231.808 225.508 231.826 225.632 231.879 225.734C231.932 225.837 232.016 225.909 232.112 225.935C232.938 226.157 233.778 226.288 234.622 226.328C236.852 226.426 239.084 226.173 241.262 225.575C243.697 224.952 245.937 223.674 246.446 222.915Z" fill="white" stroke="#263238" stroke-miterlimit="10"/>
<path d="M212.728 177.45C212.728 177.45 211.506 186.879 212.117 189.265C212.728 191.651 226.951 193.688 230.824 193.311C233.856 193.016 233.392 193.453 236.521 193.175C236.813 193.148 237.079 193.333 237.022 193.694L232.573 220.377C232.563 220.441 232.564 220.506 232.576 220.57C232.588 220.633 232.611 220.693 232.643 220.745C232.675 220.796 232.716 220.839 232.763 220.87C232.809 220.9 232.861 220.918 232.914 220.923C234.093 221.031 235.277 221.018 236.455 220.884C237.46 220.709 238.439 220.358 239.363 219.841C239.411 219.814 239.453 219.775 239.488 219.726C239.522 219.677 239.548 219.62 239.562 219.558L239.903 218.198C239.912 218.144 239.912 218.088 239.903 218.034L239.709 214.321C239.705 214.258 239.712 214.195 239.731 214.136C240.173 212.656 244.928 192.651 245.419 190.226C245.928 187.715 246.539 185.706 245.215 184.575C243.892 183.445 226.769 179.203 226.769 179.203L212.728 177.45Z" fill="#A4CE4A" stroke="#263238" stroke-miterlimit="10"/>
<path d="M216.393 183.5C216.393 183.5 222.918 180.737 226.787 179.225" stroke="#263238" stroke-miterlimit="10"/>
<path d="M237.159 192.869C237.159 192.869 240.257 192.64 242.586 190.882" stroke="#263238" stroke-miterlimit="10"/>
<path d="M237.389 194.147C237.389 194.147 241.253 193.284 242.891 192.263" stroke="#263238" stroke-miterlimit="10"/>
<path d="M228.828 164.619L229.416 170.783L233.529 172.05L240.359 172.924L235.583 174.949L226.769 177.122L228.828 164.619Z" fill="#263238" stroke="#263238" stroke-miterlimit="10"/>
<path d="M226.278 143.156C226.278 143.156 224.038 142.528 220.572 146.546C217.451 150.256 215.294 155.026 214.375 160.251C213.458 165.023 212.542 174.076 212.237 175.834C211.931 177.592 212.338 177.843 213.051 178.345C213.764 178.848 218.146 179.858 222.02 180.109C225.893 180.36 227.726 179.476 228.217 178.597C228.708 177.718 228.217 168.419 228.828 165.4C229.439 162.38 230.66 151.952 230.66 151.952L226.676 143.407L226.278 143.156Z" fill="#263238" stroke="#263238" stroke-miterlimit="10"/>
<path d="M230.253 138.002L227.199 143.533L231.882 149.691C231.882 149.691 235.145 144.537 235.654 144.16C236.163 143.784 237.283 143.156 237.283 143.156L230.253 138.002Z" fill="white" stroke="#263238" stroke-miterlimit="10"/>
<path d="M231.798 142.462L233.657 146.814L235.654 144.16L231.798 142.462Z" fill="#263238" stroke="#263238" stroke-miterlimit="10"/>
<path d="M240.342 134.234L240.647 136.118C240.647 136.118 241.869 137.625 241.563 138.504C241.258 139.383 239.833 140.142 239.833 140.142C239.833 140.142 237.965 144.941 237.553 145.443C237.141 145.946 233.923 144.291 232.498 143.287C231.072 142.282 230.762 139.388 230.762 139.388L230.05 138.76C230.05 138.76 227.912 138.133 227.708 136.751C227.504 135.37 227.402 133.857 228.624 132.978C229.846 132.099 230.762 131.597 231.28 131.597C231.798 131.597 238.925 132.978 238.925 132.978L240.342 134.234Z" fill="white" stroke="#263238" stroke-miterlimit="10"/>
<path d="M239.323 140.77C239.323 140.77 237.491 140.639 237.079 139.257" stroke="#263238" stroke-miterlimit="10"/>
<path d="M233.21 133.224C233.21 133.224 232.396 135.741 232.086 135.992C231.776 136.243 231.678 133.977 229.846 134.485C228.013 134.993 228.319 137.499 228.828 138.002C229.197 138.337 229.61 138.591 230.049 138.755L229.076 140.251C229.076 140.251 228.633 139.634 227.097 139.508C225.561 139.383 223.733 137.248 223.631 135.615C223.529 133.983 224.751 131.968 224.751 131.968C224.696 132.218 224.717 132.484 224.811 132.716C224.905 132.948 225.065 133.128 225.26 133.224C225.784 133.445 226.346 133.488 226.889 133.35L233.21 133.224Z" fill="#263238" stroke="#263238" stroke-miterlimit="10"/>
<path d="M225.973 133.601L240.952 134.36C240.952 134.36 240.443 128.856 239.926 126.814C239.408 124.772 233.728 122.446 230.652 122.795C227.575 123.145 226.473 127.442 226.473 127.442L225.973 133.601Z" fill="#263238" stroke="#263238" stroke-miterlimit="10"/>
<path d="M235.941 134.103C237.919 134.667 239.929 135.046 241.953 135.239C245.012 135.49 247.048 134.36 247.048 133.475C247.048 132.591 240.324 134.234 240.324 134.234L235.941 134.103Z" fill="#A4CE4A" stroke="#263238" stroke-miterlimit="10"/>
<path d="M226.791 140.639L232.701 150.57L230.253 153.967L225.463 142.905L226.791 140.639Z" fill="#A4CE4A" stroke="#263238" stroke-miterlimit="10"/>
<path d="M221.17 170.385L235.366 172.853C235.366 172.853 240.027 171.815 241.275 170.903C242.524 169.992 243.281 170.516 243.537 170.947C243.794 171.378 244.148 174.365 244.272 175.026C244.396 175.686 243.312 176.118 242.878 176.292C242.444 176.467 240.222 175.282 240.222 175.282C240.222 175.282 237.787 176.609 236.884 176.44C236.258 176.297 235.657 176.014 235.114 175.605C235.114 175.605 218.655 177.86 216.26 178.051C213.866 178.242 214.733 175.19 214.999 173.797C215.402 171.679 215.707 169.811 215.707 169.811L221.17 170.385Z" fill="white" stroke="#263238" stroke-miterlimit="10"/>
<path d="M223.879 148.714C222.445 148.796 220.78 150.762 219.944 152.443C217.646 157.117 214.273 171.766 214.273 171.766L225.025 170.494C225.025 170.494 226.442 153.219 226.039 151.384C225.601 149.358 224.791 148.659 223.879 148.714Z" fill="#A4CE4A" stroke="#263238" stroke-miterlimit="10"/>
<path d="M242.785 174.043C242.786 173.672 242.697 173.309 242.531 173C242.364 172.692 242.127 172.451 241.85 172.308C241.572 172.166 241.266 172.128 240.972 172.2C240.677 172.273 240.406 172.451 240.193 172.713C239.98 172.976 239.836 173.31 239.777 173.673C239.719 174.037 239.749 174.414 239.865 174.757C239.98 175.099 240.175 175.392 240.426 175.597C240.676 175.802 240.97 175.911 241.271 175.91C241.673 175.91 242.058 175.714 242.342 175.363C242.625 175.013 242.785 174.538 242.785 174.043Z" fill="#263238" stroke="#263238" stroke-miterlimit="10"/>
<path d="M179.13 197.33H170.077" stroke="#263238" stroke-miterlimit="10"/>
<path d="M173.096 205.307H154.119" stroke="#263238" stroke-miterlimit="10"/>
<path d="M223.551 138.285H210.612" stroke="#263238" stroke-miterlimit="10"/>
<path d="M165.761 176.582H161.02" stroke="#263238" stroke-miterlimit="10"/>
<path d="M312.828 249.391H324.129" stroke="#263238" stroke-linecap="round" stroke-linejoin="round"/>
<path d="M12.6648 249.391H310.115" stroke="#263238" stroke-linecap="round" stroke-linejoin="round"/>
</svg>
