<svg width="296" height="290" viewBox="0 0 296 290" fill="none" xmlns="http://www.w3.org/2000/svg">
<path d="M98.0234 91.2166C93.2874 93.9658 88.4152 96.4365 83.6437 99.1973C61.6746 111.795 43.5949 128.685 41.3749 154.558C39.7528 173.501 45.8445 195.541 62.8527 206.503C67.0517 209.198 71.7375 211.082 76.6581 212.054C83.5963 213.44 90.9431 212.895 98.0234 212.495V91.2166Z" fill="#A4CE4A"/>
<path d="M200.007 64.2756H131.803C127.411 66.9595 123.294 70.0517 119.507 73.5092H213.244C209.113 70.0625 204.684 66.9731 200.007 64.2756Z" fill="#A4CE4A"/>
<path d="M196.816 62.5356C191.876 59.9492 186.666 57.89 181.276 56.3934C164.967 51.9216 148.811 54.897 134.828 62.5356H196.816Z" fill="#A4CE4A"/>
<path d="M236.8 100.537C230.882 91.1541 223.637 82.6401 215.281 75.2491H152.067V220.626C156.788 222.174 161.62 223.372 166.524 224.211C198.752 229.268 234.811 218.022 247.314 186.197C258.52 157.679 252.95 125.93 236.8 100.537Z" fill="#A4CE4A"/>
<path d="M148.189 75.2491H117.648C116.389 76.4671 115.162 77.7238 113.966 79.0191C110.404 82.8114 106.348 86.1267 101.901 88.8791V212.309C112.95 211.897 124.005 212.97 134.757 215.499C139.309 216.566 143.749 217.993 148.189 219.408V75.2491Z" fill="#A4CE4A"/>
<g opacity="0.8">
<path d="M98.0234 91.2166C93.2874 93.9658 88.4152 96.4365 83.6437 99.1973C61.6746 111.795 43.5949 128.685 41.3749 154.558C39.7528 173.501 45.8445 195.541 62.8527 206.503C67.0517 209.198 71.7375 211.082 76.6581 212.054C83.5963 213.44 90.9431 212.895 98.0234 212.495V91.2166Z" fill="white"/>
<path d="M200.007 64.2756H131.803C127.411 66.9595 123.294 70.0517 119.507 73.5092H213.244C209.113 70.0625 204.684 66.9731 200.007 64.2756Z" fill="white"/>
<path d="M196.816 62.5356C191.876 59.9492 186.666 57.89 181.276 56.3934C164.967 51.9216 148.811 54.897 134.828 62.5356H196.816Z" fill="white"/>
<path d="M236.8 100.537C230.882 91.1541 223.637 82.6401 215.281 75.2491H152.067V220.626C156.788 222.174 161.62 223.372 166.524 224.211C198.752 229.268 234.811 218.022 247.314 186.197C258.52 157.679 252.95 125.93 236.8 100.537Z" fill="white"/>
<path d="M148.189 75.2491H117.648C116.389 76.4671 115.162 77.7238 113.966 79.0191C110.404 82.8114 106.348 86.1267 101.901 88.8791V212.309C112.95 211.897 124.005 212.97 134.757 215.499C139.309 216.566 143.749 217.993 148.189 219.408V75.2491Z" fill="white"/>
</g>
<path d="M145.845 237.713C193.904 237.713 232.863 235.163 232.863 232.017C232.863 228.872 193.904 226.322 145.845 226.322C97.7863 226.322 58.827 228.872 58.827 232.017C58.827 235.163 97.7863 237.713 145.845 237.713Z" fill="#A4CE4A"/>
<path opacity="0.5" d="M145.845 237.713C193.904 237.713 232.863 235.163 232.863 232.017C232.863 228.872 193.904 226.322 145.845 226.322C97.7863 226.322 58.827 228.872 58.827 232.017C58.827 235.163 97.7863 237.713 145.845 237.713Z" fill="white"/>
<path d="M125.765 80.2083H117.435V81.9889V92.4463V94.2269H135.1V81.9889H126.357L125.765 80.2083Z" fill="#A4CE4A"/>
<path d="M125.765 106.888H117.435V108.669V119.126V120.907H135.1V108.669H126.357L125.765 106.888Z" fill="#A4CE4A"/>
<path d="M125.765 133.568H117.435V135.349V145.806V147.587H135.1V135.349H126.357L125.765 133.568Z" fill="#A4CE4A"/>
<path d="M125.765 160.248H117.435V162.029V172.486V174.267H135.1V162.029H126.357L125.765 160.248Z" fill="#A4CE4A"/>
<path d="M125.765 186.928H117.435V188.709V199.166V200.947H135.1V188.709H126.357L125.765 186.928Z" fill="#A4CE4A"/>
<path d="M179.139 80.2083H170.816V81.9889V92.4463V94.2269H188.475V81.9889H179.731L179.139 80.2083Z" fill="#A4CE4A"/>
<path d="M213.771 81.9889L213.179 80.2083H204.856V81.9889V92.4463V94.2269H222.515V81.9889H213.771Z" fill="#A4CE4A"/>
<path d="M179.139 106.888H170.816V108.669V119.126V120.907H188.475V108.669H179.731L179.139 106.888Z" fill="#A4CE4A"/>
<path d="M213.179 133.568H204.856V135.349V145.806V147.587H222.515V135.349H213.771L213.179 133.568Z" fill="#A4CE4A"/>
<path d="M213.179 106.888H204.856V108.669V119.126V120.907H222.515V108.669H213.771L213.179 106.888Z" fill="#A4CE4A"/>
<path d="M179.139 133.568H170.816V135.349V145.806V147.587H188.475V135.349H179.731L179.139 133.568Z" fill="#A4CE4A"/>
<path d="M179.139 160.248H170.816V162.029V172.486V174.267H188.475V162.029H179.731L179.139 160.248Z" fill="#A4CE4A"/>
<path d="M213.179 160.248H204.856V162.029V172.486V174.267H222.515V162.029H213.771L213.179 160.248Z" fill="#A4CE4A"/>
<path d="M179.139 186.928H170.816V188.709V199.166V200.947H188.475V188.709H179.731L179.139 186.928Z" fill="#A4CE4A"/>
<path d="M213.179 186.928H204.856V188.709V199.166V200.947H222.515V188.709H213.771L213.179 186.928Z" fill="#A4CE4A"/>
<g opacity="0.5">
<path d="M125.765 80.2083H117.435V81.9889V92.4463V94.2269H135.1V81.9889H126.357L125.765 80.2083Z" fill="white"/>
<path d="M125.765 106.888H117.435V108.669V119.126V120.907H135.1V108.669H126.357L125.765 106.888Z" fill="white"/>
<path d="M125.765 133.568H117.435V135.349V145.806V147.587H135.1V135.349H126.357L125.765 133.568Z" fill="white"/>
<path d="M125.765 160.248H117.435V162.029V172.486V174.267H135.1V162.029H126.357L125.765 160.248Z" fill="white"/>
<path d="M125.765 186.928H117.435V188.709V199.166V200.947H135.1V188.709H126.357L125.765 186.928Z" fill="white"/>
<path d="M179.139 80.2083H170.816V81.9889V92.4463V94.2269H188.475V81.9889H179.731L179.139 80.2083Z" fill="white"/>
<path d="M213.771 81.9889L213.179 80.2083H204.856V81.9889V92.4463V94.2269H222.515V81.9889H213.771Z" fill="white"/>
<path d="M179.139 106.888H170.816V108.669V119.126V120.907H188.475V108.669H179.731L179.139 106.888Z" fill="white"/>
<path d="M213.179 133.568H204.856V135.349V145.806V147.587H222.515V135.349H213.771L213.179 133.568Z" fill="white"/>
<path d="M213.179 106.888H204.856V108.669V119.126V120.907H222.515V108.669H213.771L213.179 106.888Z" fill="white"/>
<path d="M179.139 133.568H170.816V135.349V145.806V147.587H188.475V135.349H179.731L179.139 133.568Z" fill="white"/>
<path d="M179.139 160.248H170.816V162.029V172.486V174.267H188.475V162.029H179.731L179.139 160.248Z" fill="white"/>
<path d="M213.179 160.248H204.856V162.029V172.486V174.267H222.515V162.029H213.771L213.179 160.248Z" fill="white"/>
<path d="M179.139 186.928H170.816V188.709V199.166V200.947H188.475V188.709H179.731L179.139 186.928Z" fill="white"/>
<path d="M213.179 186.928H204.856V188.709V199.166V200.947H222.515V188.709H213.771L213.179 186.928Z" fill="white"/>
</g>
<path d="M79.0143 120.089C79.0143 120.089 78.4815 123.668 80.2456 126.115C82.0098 128.563 94.8799 138.817 96.0284 139.409C97.1768 140 102.114 138.736 100.622 134.827C99.1304 130.918 88.2909 122.647 86.1183 120.408C83.9456 118.169 81.921 118.494 81.921 118.494" fill="#A4CE4A"/>
<path d="M79.0143 120.089C79.0143 120.089 78.4815 123.668 80.2456 126.115C82.0098 128.563 94.8799 138.817 96.0284 139.409C97.1768 140 102.114 138.736 100.622 134.827C99.1304 130.918 88.2909 122.647 86.1183 120.408C83.9456 118.169 81.921 118.494 81.921 118.494" stroke="#263238" stroke-miterlimit="10"/>
<path d="M98.6983 133.139C98.6983 133.139 101.167 133.307 105.749 133.139C110.331 132.971 121.792 133.655 123.556 133.655H125.332L125.161 137.628C125.161 137.628 116.518 138.318 110.526 139.183C104.535 140.047 99.5982 141.085 94.6609 138.666" fill="#A4CE4A"/>
<path d="M98.6983 133.139C98.6983 133.139 101.167 133.307 105.749 133.139C110.331 132.971 121.792 133.655 123.556 133.655H125.332L125.161 137.628C125.161 137.628 116.518 138.318 110.526 139.183C104.535 140.047 99.5982 141.085 94.6609 138.666" stroke="#263238" stroke-linecap="round" stroke-linejoin="round"/>
<path d="M125.315 133.655L125.622 132.953C126.11 131.839 126.937 130.899 127.99 130.262C128.919 129.996 129.805 129.606 130.625 129.102L130.773 129.015C130.773 129.015 131.874 129.328 131.229 130.175C131.066 130.422 130.841 130.622 130.575 130.756C130.309 130.891 130.012 130.954 129.713 130.941L128.831 132.321L134.899 132.803C134.899 132.803 135.775 133.145 135.071 133.661C134.366 134.177 130.927 134.05 130.927 134.05L135.302 134.804C135.302 134.804 135.799 135.291 135.586 135.703C135.373 136.114 130.785 135.563 130.785 135.563L134.668 136.602C134.826 136.719 134.94 136.886 134.99 137.074C135.041 137.262 135.025 137.461 134.946 137.64C134.81 137.988 133.964 137.849 133.609 137.709C133.253 137.57 130.714 137.158 130.714 137.158L133.538 138.678C133.51 138.842 133.441 138.998 133.338 139.13C133.235 139.262 133.1 139.368 132.946 139.438C132.529 139.552 132.089 139.552 131.673 139.438L128.002 137.988C128.002 137.988 127.807 138.469 125.084 137.675L125.315 133.655Z" fill="white" stroke="#263238" stroke-linecap="round" stroke-linejoin="round"/>
<path d="M128.843 132.275C128.843 132.275 129.192 134.827 127.848 135.314L128.843 132.275Z" fill="white"/>
<path d="M128.843 132.275C128.843 132.275 129.192 134.827 127.848 135.314" stroke="#263238" stroke-linecap="round" stroke-linejoin="round"/>
<path d="M210.16 121.655C210.16 121.655 209.935 125.263 207.697 127.31C205.46 129.357 190.731 136.816 189.481 137.17C188.232 137.524 183.662 135.297 185.929 131.77C188.197 128.244 200.54 122.316 203.133 120.547C205.726 118.778 207.638 119.509 207.638 119.509" fill="#A4CE4A"/>
<path d="M210.16 121.655C210.16 121.655 209.935 125.263 207.697 127.31C205.46 129.357 190.731 136.816 189.481 137.17C188.232 137.524 183.662 135.297 185.929 131.77C188.197 128.244 200.54 122.316 203.133 120.547C205.726 118.778 207.638 119.509 207.638 119.509" stroke="#263238" stroke-miterlimit="10"/>
<path d="M188.149 130.5C188.149 130.5 185.699 130.175 181.247 129.091C176.795 128.006 165.434 126.394 163.706 126.04L161.983 125.686L161.326 129.613C161.326 129.613 169.614 132.014 175.327 134.061C181.04 136.109 185.633 138.121 190.967 136.723" fill="#A4CE4A"/>
<path d="M188.149 130.5C188.149 130.5 185.699 130.175 181.247 129.091C176.795 128.006 165.434 126.394 163.706 126.04L161.983 125.686L161.326 129.613C161.326 129.613 169.614 132.014 175.327 134.061C181.04 136.109 185.633 138.121 190.967 136.723" stroke="#263238" stroke-linecap="round" stroke-linejoin="round"/>
<path d="M161.983 125.68L161.829 124.932C161.579 123.741 160.959 122.655 160.053 121.823C159.2 121.369 158.413 120.803 157.715 120.141L157.596 120.025C157.596 120.025 156.448 120.112 156.916 121.046C157.022 121.32 157.2 121.561 157.431 121.745C157.663 121.929 157.941 122.05 158.236 122.096L158.828 123.627L152.789 122.885C152.789 122.885 151.854 123.047 152.44 123.691C153.026 124.335 156.401 124.891 156.401 124.891L151.961 124.764C151.961 124.764 151.369 125.135 151.493 125.587C151.617 126.04 156.229 126.411 156.229 126.411L152.215 126.649C152.036 126.732 151.889 126.871 151.799 127.044C151.709 127.217 151.681 127.415 151.718 127.606C151.789 127.977 152.647 128.006 153.02 127.942C153.393 127.878 155.98 127.983 155.98 127.983L152.896 128.905C152.888 129.069 152.919 129.232 152.988 129.381C153.057 129.53 153.162 129.661 153.293 129.763C153.675 129.958 154.105 130.046 154.536 130.019L158.431 129.328C158.431 129.328 158.526 129.839 161.356 129.607L161.983 125.68Z" fill="white" stroke="#263238" stroke-linecap="round" stroke-linejoin="round"/>
<path d="M158.816 123.627C158.816 123.627 157.946 126.057 159.153 126.8L158.816 123.627Z" fill="white"/>
<path d="M158.816 123.627C158.816 123.627 157.946 126.057 159.153 126.8" stroke="#263238" stroke-linecap="round" stroke-linejoin="round"/>
<path d="M162.984 148.695H129.358V104.574H152.973L162.984 113.558V148.695Z" fill="white" stroke="#263238" stroke-linecap="round" stroke-linejoin="round"/>
<path d="M152.973 104.574V113.558H162.984L152.973 104.574Z" fill="#263238" stroke="#263238" stroke-linecap="round" stroke-linejoin="round"/>
<path d="M166.441 149.112C169.888 145.538 169.726 139.903 166.078 136.526C162.43 133.149 156.679 133.308 153.232 136.882C149.785 140.456 149.948 146.091 153.595 149.468C157.243 152.845 162.994 152.685 166.441 149.112Z" fill="#263238"/>
<path d="M164.73 141.967H160.882V138.202H158.786V141.967H154.944V144.026H158.786V147.79H160.882V144.026H164.73V141.967Z" fill="white"/>
<path d="M179.453 198.696H114.753L107.294 149.843H179.453V198.696Z" fill="#263238" stroke="#263238" stroke-linecap="round" stroke-linejoin="round"/>
<path d="M145.739 149.843L144.768 147.105C144.507 146.372 144.02 145.736 143.374 145.286C142.728 144.836 141.955 144.594 141.162 144.594H114.984V198.696H179.69L187.143 149.843H145.739Z" fill="#A4CE4A" stroke="#263238" stroke-linecap="round" stroke-linejoin="round"/>
<path d="M75.0301 222.244C75.0301 222.244 76.4687 225.405 77.9013 226.461C79.334 227.517 82.0453 227.343 82.3887 229.1C82.7321 230.857 81.3113 231.031 80.0562 231.031C78.8012 231.031 74.8525 231.031 74.1362 230.857C71.8738 230.08 69.7533 228.952 67.8551 227.517C65.7061 225.777 65.1674 225.933 66.7836 222.592C68.3997 219.252 75.0301 222.244 75.0301 222.244Z" fill="#A4CE4A" stroke="#263238" stroke-miterlimit="10"/>
<path d="M82.436 229.436C80.6955 229.738 77.2856 230.15 74.2841 229.436C71.2827 228.723 67.7366 226.078 65.9429 224.628C65.5699 225.997 66.2744 226.246 67.855 227.528C69.7552 228.953 71.8757 230.071 74.1361 230.84C74.8525 231.014 78.8011 231.014 80.0561 231.014C81.3112 231.014 82.5485 230.875 82.436 229.436Z" fill="white" stroke="#263238" stroke-miterlimit="10"/>
<path d="M80.4115 164.836C80.4115 164.836 77.9487 185.078 75.9774 190.176C74.006 195.274 71.0342 198.499 70.3179 202.356C69.6015 206.213 66.7659 222.587 66.7659 222.587C66.7659 222.587 68.5419 224.327 69.8147 224.17C71.0875 224.013 74.8348 224.524 75.9123 222.587C76.9897 220.649 77.2561 217.517 77.4337 216.99C77.6113 216.462 85.1297 202.211 86.9471 196.585C88.7646 190.959 94.5188 167.724 94.3412 164.911" fill="#263238"/>
<path d="M80.4115 164.836C80.4115 164.836 77.9487 185.078 75.9774 190.176C74.006 195.274 71.0342 198.499 70.3179 202.356C69.6015 206.213 66.7659 222.587 66.7659 222.587C66.7659 222.587 68.5419 224.327 69.8147 224.17C71.0875 224.013 74.8348 224.524 75.9123 222.587C76.9897 220.649 77.2561 217.517 77.4337 216.99C77.6113 216.462 85.1297 202.211 86.9471 196.585C88.7646 190.959 94.5188 167.724 94.3412 164.911" stroke="#263238" stroke-miterlimit="10"/>
<path d="M79.0971 150.951C79.0971 150.951 76.9008 157.279 77.7237 162.934C78.5466 168.589 85.0112 171.419 89.5637 170.607C94.1162 169.795 95.3357 166.704 95.3357 161.327C95.3208 158 95.0855 154.677 94.6312 151.38C89.5538 152.97 84.075 152.819 79.0971 150.951Z" fill="#263238" stroke="#263238" stroke-miterlimit="10"/>
<path d="M80.6127 109.748C80.6127 109.748 76.4687 117.288 76.2142 123.343C75.9596 129.398 79.0972 150.951 79.0972 150.951C79.0972 150.951 80.3345 153.375 86.2486 153.642C92.1626 153.909 94.6313 151.902 94.6313 151.902C94.6313 151.902 96.6914 138.168 96.6914 130.894C96.6914 123.621 90.9194 112.851 90.9194 112.851L80.6127 109.748Z" fill="#A4CE4A" stroke="#263238" stroke-miterlimit="10"/>
<path d="M77.4277 126.515C77.4277 126.515 77.7889 130.778 83.0517 131.312" stroke="#263238" stroke-linecap="round" stroke-linejoin="round"/>
<path d="M78.8782 132.199C80.7963 133.308 83.063 133.688 85.2481 133.267" stroke="#263238" stroke-linecap="round" stroke-linejoin="round"/>
<path d="M80.8732 151.206C80.8732 151.206 86.1301 146.769 88.8533 142.68" stroke="#263238" stroke-linecap="round" stroke-linejoin="round"/>
<path d="M88.3087 146.943C88.3087 146.943 83.7739 151.583 82.14 152.099" stroke="#263238" stroke-linecap="round" stroke-linejoin="round"/>
<path d="M83.6319 99.7601C83.6319 99.7601 83.4958 103.53 83.0873 106.088C82.6788 108.646 82.5367 109.724 82.5367 109.724L90.0966 112.549C90.0966 112.549 89.4039 107.433 90.3689 105.276C90.9127 104.124 91.2836 102.901 91.47 101.645C91.47 101.645 88.9955 95.7175 86.3847 95.3115C83.774 94.9055 83.6319 99.7601 83.6319 99.7601Z" fill="white" stroke="#263238" stroke-miterlimit="10"/>
<path d="M93.9446 88.8734C93.9446 88.8734 95.318 87.6612 93.5302 83.6534C91.7424 79.6456 83.0873 79.8834 78.9611 83.5142C74.8348 87.145 73.4614 93.6178 77.0371 97.788C80.6128 101.958 84.8692 102.503 87.622 100.885C90.3748 99.267 90.6412 96.1756 90.6412 94.9634C90.6412 93.7512 89.6822 90.7874 91.0556 89.9812C91.951 89.461 92.9267 89.0868 93.9446 88.8734Z" fill="#263238" stroke="#263238" stroke-miterlimit="10"/>
<path d="M79.7839 110.014L92.0206 114.863L91.3339 110.96L80.4706 106.511L79.7839 110.014Z" fill="white" stroke="#263238" stroke-miterlimit="10"/>
<path d="M95.4838 226.989C95.4838 226.989 99.0713 229.1 101.043 229.976C103.014 230.852 103.198 230.678 103.198 231.907C103.198 233.137 103.375 233.317 100.143 233.317C96.9105 233.317 87.5865 233.491 86.6926 232.789C85.7986 232.087 94.2287 226.461 95.4838 226.989Z" fill="#A4CE4A" stroke="#263238" stroke-miterlimit="10"/>
<path d="M100.143 233.317C103.168 233.317 103.203 233.16 103.198 232.157C94.0038 232.429 89.5223 232.087 87.3437 231.693C86.7517 232.232 86.4853 232.65 86.6925 232.812C87.6161 233.491 96.9164 233.317 100.143 233.317Z" fill="white" stroke="#263238" stroke-miterlimit="10"/>
<path d="M93.5361 87.928C93.5361 87.928 87.0774 90.8918 87.0774 91.988C87.0774 93.0842 89.8243 93.467 89.0014 94.8184C88.6102 95.4884 88.1457 96.1146 87.6161 96.686C87.6161 96.686 88.7113 98.571 87.7523 98.8378C86.7932 99.1046 86.3788 99.1046 85.3843 97.759C84.3897 96.4134 83.4603 95.7406 83.188 98.0316C82.9156 100.323 84.0108 100.723 84.8337 100.856C85.4728 100.931 86.1186 100.931 86.7577 100.856C86.7577 100.856 88.1371 104.087 89.0961 104.493C90.0552 104.899 94.732 105.438 95.691 104.359C96.65 103.281 95.9692 98.4318 95.9692 98.4318C95.9692 98.4318 97.3427 98.165 97.3427 96.9528C97.3427 95.7406 95.1464 93.989 95.1464 93.989C95.1464 93.989 95.691 93.1828 95.2825 91.2978C94.9728 90.0578 94.3752 88.9046 93.5361 87.928Z" fill="white" stroke="#263238" stroke-miterlimit="10"/>
<path d="M93.7195 94.5864C93.7195 95.0098 93.5479 95.3578 93.3288 95.3578C93.1098 95.3578 92.9381 95.0098 92.9381 94.5864C92.9381 94.163 93.1098 93.8208 93.3288 93.8208C93.5479 93.8208 93.7195 94.163 93.7195 94.5864Z" fill="#263238"/>
<path d="M91.9791 93.2118C91.9791 93.2118 92.1804 92.0518 93.9623 92.278" stroke="#263238" stroke-linecap="round" stroke-linejoin="round"/>
<path d="M94.3056 100.183C93.6402 100.127 93.0249 99.814 92.5947 99.3135" stroke="#263238" stroke-linecap="round" stroke-linejoin="round"/>
<path d="M79.328 165.184C79.328 165.184 80.583 177.312 82.1933 182.584C83.8035 187.856 83.8094 190.124 83.2707 194.712C82.732 199.3 80.9382 203.499 82.1933 207.715C83.4483 211.932 85.9643 229.976 85.9643 230.678C85.9643 231.379 85.7808 232.418 86.6806 232.789C87.5805 233.16 95.2883 228.044 95.4718 226.989C95.6554 225.933 94.2168 222.772 94.2168 219.959C94.2168 217.146 95.1107 200.686 95.1107 192.78C95.1107 184.875 96.0106 169.754 93.1394 162.725" fill="#263238"/>
<path d="M79.328 165.184C79.328 165.184 80.583 177.312 82.1933 182.584C83.8035 187.856 83.8094 190.124 83.2707 194.712C82.732 199.3 80.9382 203.499 82.1933 207.715C83.4483 211.932 85.9643 229.976 85.9643 230.678C85.9643 231.379 85.7808 232.418 86.6806 232.789C87.5805 233.16 95.2883 228.044 95.4718 226.989C95.6554 225.933 94.2168 222.772 94.2168 219.959C94.2168 217.146 95.1107 200.686 95.1107 192.78C95.1107 184.875 96.0106 169.754 93.1394 162.725" stroke="#263238" stroke-miterlimit="10"/>
<path d="M80.3582 172.84C80.3582 172.84 81.2047 178.739 82.2052 182.584C83.2057 186.429 84.2298 188.233 83.0103 193.024C81.7908 197.815 81.3764 199.404 81.9862 201.817" stroke="white" stroke-linecap="round" stroke-linejoin="round"/>
<path d="M190.068 223.555C190.068 223.555 182.727 225.956 180.98 226.455C179.234 226.954 177.659 227.314 179.234 229.025C180.809 230.736 188.499 230.91 190.766 230.91C193.033 230.91 194.614 232.104 195.135 230.736C195.656 229.367 195.662 225.597 195.662 225.597L190.068 223.555Z" fill="#A4CE4A" stroke="#263238" stroke-miterlimit="10"/>
<path d="M195.36 229.918C193.407 229.86 189.718 229.68 185.355 229.129C183.063 228.913 180.812 228.39 178.666 227.575C178.506 227.917 178.666 228.375 179.258 229.036C180.832 230.747 188.523 230.921 190.79 230.921C193.057 230.921 194.638 232.116 195.159 230.747C195.252 230.477 195.319 230.2 195.36 229.918Z" fill="white" stroke="#263238" stroke-miterlimit="10"/>
<path d="M212.262 225.266C212.262 225.266 206.667 229.378 205.099 230.231C203.53 231.084 203.175 232.458 204.572 232.458C205.969 232.458 217.329 232.8 218.904 231.774C220.479 230.747 218.205 225.782 218.205 225.782C218.205 225.782 214.008 225.266 212.262 225.266Z" fill="#A4CE4A" stroke="#263238" stroke-miterlimit="10"/>
<path d="M218.904 231.774C219.348 231.484 219.496 230.875 219.449 230.156C214.37 231.031 209.207 231.343 204.057 231.084C203.5 231.785 203.613 232.458 204.595 232.458C205.969 232.458 217.329 232.8 218.904 231.774Z" fill="white" stroke="#263238" stroke-miterlimit="10"/>
<path d="M198.806 145.795C198.806 145.795 191.11 171.987 190.766 178.153C190.423 184.318 190.068 217.053 190.068 218.59V223.555L195.662 225.608C195.662 225.608 198.285 206.231 198.806 201.608C199.327 196.985 199.682 191.847 200.38 189.428C201.079 187.009 202.476 177.248 203.003 175.218C203.53 173.188 204.749 164.604 204.4 154.843C204.051 145.081 200.031 143.393 198.806 145.795Z" fill="#263238" stroke="#263238" stroke-miterlimit="10"/>
<path d="M197.935 143.91C197.935 143.91 198.107 151.612 198.285 159.146C198.462 166.68 197.935 178.153 199.682 186.371C201.428 194.59 208.242 212.431 208.941 215.337C209.639 218.242 212.09 225.956 212.09 225.956C212.09 225.956 215.932 226.299 218.205 225.782C218.205 225.782 215.932 209.142 215.583 202.635C215.234 196.127 211.036 186.882 210.166 184.655C209.296 182.427 211.936 164.627 211.936 164.627C211.936 164.627 216.127 157.087 215.08 152.296C214.483 149.465 213.091 146.854 211.06 144.756C211.06 144.756 200.552 146.16 197.935 143.91Z" fill="#263238" stroke="#263238" stroke-miterlimit="10"/>
<path d="M198.498 154.645C198.498 154.645 198.296 174.435 199.09 180.032C199.883 185.629 200.718 187.833 200.718 187.833" stroke="white" stroke-linecap="round" stroke-linejoin="round"/>
<path d="M210.687 111.36C210.687 111.36 208.591 109.823 204.051 113.1C199.51 116.377 194.265 125.251 194.614 128.679C194.963 132.107 197.935 142.204 197.935 143.915C197.935 145.626 198.456 144.942 200.552 145.626C202.648 146.311 208.591 146.143 209.988 145.458C211.385 144.774 210.687 140.319 211.036 136.555C211.385 132.791 213.659 125.425 213.487 120.118C213.315 114.811 211.385 112.062 210.687 111.36Z" fill="#A4CE4A" stroke="#263238" stroke-miterlimit="10"/>
<path d="M202.127 91.8604C202.127 91.8604 200.031 94.4298 200.031 96.1408C200.031 97.8518 199.64 99.6208 198.592 100.462C197.544 101.303 197.58 102.132 198.456 102.306L199.332 102.474C199.332 102.474 199.824 106.21 200.516 107.584C201.209 108.959 203.695 107.781 204.216 107.584C204.737 107.387 204.045 112.549 204.045 113.065C204.045 113.581 209.284 112.891 209.965 112.891C210.645 112.891 210.314 106.726 211.012 104.847C211.711 102.967 213.972 100.566 211.19 96.454C208.408 92.3418 203.701 88.9488 202.127 91.8604Z" fill="white" stroke="#263238" stroke-miterlimit="10"/>
<path d="M201.363 99.4932C201.363 99.9166 201.535 100.259 201.754 100.259C201.973 100.259 202.144 99.9166 202.144 99.4932C202.144 99.0698 201.973 98.7218 201.754 98.7218C201.535 98.7218 201.363 99.0698 201.363 99.4932Z" fill="#263238"/>
<path d="M200.297 103.82C200.297 103.82 200.889 104.487 202.227 103.594" stroke="#263238" stroke-linecap="round" stroke-linejoin="round"/>
<path d="M200.753 97.3472C200.753 97.3472 201.771 96.1234 203.021 97.6836" stroke="#263238" stroke-linecap="round" stroke-linejoin="round"/>
<path d="M207.088 111.058C207.088 111.058 202.553 112.653 201.825 113.721C201.097 114.788 200.558 116.563 201.647 116.563C202.736 116.563 207.443 113.46 208.716 113.187C209.988 112.914 208.716 109.458 207.088 111.058Z" fill="white" stroke="#263238" stroke-miterlimit="10"/>
<path d="M202.127 91.8604C202.559 94.1508 203.515 96.3158 204.921 98.194C207.194 101.094 209.467 100.421 208.941 102.834C208.414 105.247 204.572 108.634 206.146 112.427C207.721 116.22 211.214 116.876 211.912 118.419C212.611 119.961 214.186 120.472 212.439 126.637C210.693 132.803 208.07 137.762 210.338 143.585C212.605 149.408 218.555 150.945 223.095 148.892C227.636 146.839 224.842 140.331 225.895 136.393C226.949 132.455 236.03 129.375 232.881 118.413C229.732 107.451 222.397 104.545 220.449 100.775C218.501 97.005 218.88 90.6772 214.861 88.1078C210.841 85.5384 206.294 87.7656 204.726 88.1078C203.157 88.45 202.275 85.8806 199.131 87.0812C195.988 88.2818 194.111 94.0412 199.723 95.2476C200.312 93.9873 201.126 92.8403 202.127 91.8604Z" fill="#263238" stroke="#263238" stroke-miterlimit="10"/>
<path d="M207.905 100.062C209.001 101.175 210.313 102.062 211.764 102.672C218.276 105.467 222.782 109.469 222.782 116.261C222.782 123.053 216.27 127.658 216.045 133.458C215.82 139.258 219.105 143.649 222.557 141.851C226.008 140.053 224.398 136.457 223.149 136.457" stroke="white" stroke-linecap="round" stroke-linejoin="round"/>
<path d="M204.832 93.6758C204.966 94.8731 205.311 96.0387 205.85 97.121" stroke="white" stroke-linecap="round" stroke-linejoin="round"/>
<path d="M226.085 112.619C227.4 115.459 228.082 118.542 228.086 121.661C227.879 128.656 219.312 131.857 218.288 136.056C217.371 139.832 220.129 143.248 222.574 141.856" stroke="white" stroke-linecap="round" stroke-linejoin="round"/>
<path d="M223.599 108.066C224.174 108.911 224.696 109.79 225.161 110.699" stroke="white" stroke-linecap="round" stroke-linejoin="round"/>
<path d="M214.008 121.661C214.836 118.978 214.763 116.105 213.801 113.465C212.167 109.266 210.332 107.265 210.332 105.067" stroke="white" stroke-linecap="round" stroke-linejoin="round"/>
<path d="M202.127 91.8604C201.82 91.3372 201.382 90.8989 200.855 90.5864C200.328 90.274 199.729 90.0977 199.113 90.074C197.071 90.074 197.272 92.6724 199.516 93.0726" stroke="white" stroke-linecap="round" stroke-linejoin="round"/>
<path d="M82.2052 117.032C82.2052 117.032 79.6951 120.547 80.2339 124.062C80.7726 127.577 88.8475 145.151 89.7414 146.38C90.6353 147.61 96.5553 148.845 97.094 143.921C97.6327 138.997 90.6412 124.59 89.5638 121.075C88.4863 117.56 86.1539 116.858 86.1539 116.858" fill="#A4CE4A"/>
<path d="M82.2052 117.032C82.2052 117.032 79.6951 120.547 80.2339 124.062C80.7726 127.577 88.8475 145.151 89.7414 146.38C90.6353 147.61 96.5553 148.845 97.094 143.921C97.6327 138.997 90.6412 124.59 89.5638 121.075C88.4863 117.56 86.1539 116.858 86.1539 116.858" stroke="#263238" stroke-miterlimit="10"/>
<path d="M95.762 140.244C95.762 140.244 101.019 140.899 104.701 143.08C108.383 145.261 120.093 149.344 120.093 149.344L119.253 152.749C119.253 152.749 106.365 151.293 100.901 150.307C95.4364 149.321 91.8903 148.851 89.8716 146.009" fill="#A4CE4A"/>
<path d="M95.762 140.244C95.762 140.244 101.019 140.899 104.701 143.08C108.383 145.261 120.093 149.344 120.093 149.344L119.253 152.749C119.253 152.749 106.365 151.293 100.901 150.307C95.4364 149.321 91.8903 148.851 89.8716 146.009" stroke="#263238" stroke-miterlimit="10"/>
<path d="M130.743 153.659L125.96 152.192L126.013 151.699C126.013 151.699 130.092 152.47 130.536 152.523C130.98 152.575 131.128 152.36 131.128 152.088C131.099 151.881 131.001 151.689 130.85 151.542L124.16 149.188L128.002 148.48C128.559 148.045 127.943 147.61 127.943 147.61L123.432 147.714L120.105 149.344L119.264 152.749C119.264 152.749 125.439 157.969 125.717 158.137C125.995 158.305 126.161 158.572 126.605 158.299C127.049 158.027 126.883 157.719 126.883 157.719L124.912 155.736L128.31 156.716C128.695 156.826 128.754 156.936 129.032 156.826C129.311 156.716 129.364 156.008 129.364 156.008L125.409 154.21L125.581 153.828C125.581 153.828 129.968 154.86 130.24 154.86C130.512 154.86 130.684 154.86 130.909 154.373C130.979 154.256 131.001 154.116 130.971 153.984C130.94 153.851 130.858 153.735 130.743 153.659Z" fill="white" stroke="#263238" stroke-linecap="round" stroke-linejoin="round"/>
<path d="M211.824 118.552C211.824 118.552 209.396 115.252 205.975 117.392C202.553 119.532 190.145 130.796 190.145 130.796C190.145 130.796 187.634 133.696 191.329 135.819C195.023 137.941 210.178 124.741 211.818 123.639" fill="#A4CE4A"/>
<path d="M211.824 118.552C211.824 118.552 209.396 115.252 205.975 117.392C202.553 119.532 190.145 130.796 190.145 130.796C190.145 130.796 187.634 133.696 191.329 135.819C195.023 137.941 210.178 124.741 211.818 123.639" stroke="#263238" stroke-miterlimit="10"/>
<path d="M192.649 130.848C192.649 130.848 190.808 129.717 186.622 128.998C182.437 128.279 168.057 120.431 168.057 120.431L165.689 123.331C165.689 123.331 175.806 130.622 181.081 133.742C186.356 136.863 188.712 137.686 190.405 137.518C192.098 137.35 196.047 133.725 196.047 133.725" fill="#A4CE4A"/>
<path d="M192.649 130.848C192.649 130.848 190.808 129.717 186.622 128.998C182.437 128.279 168.057 120.431 168.057 120.431L165.689 123.331C165.689 123.331 175.806 130.622 181.081 133.742C186.356 136.863 188.712 137.686 190.405 137.518C192.098 137.35 196.047 133.725 196.047 133.725" stroke="#263238" stroke-miterlimit="10"/>
<path d="M158.129 114.15L161.953 117.137L162.326 116.829C162.326 116.829 159.473 114.022 159.189 113.697C158.905 113.373 158.988 113.117 159.189 112.972C159.373 112.887 159.58 112.861 159.781 112.897L165.357 116.916L163.854 113.489C163.913 112.81 164.606 113.059 164.606 113.059L166.974 116.69L167.708 120.263L165.873 123.494C165.873 123.494 157.425 120.681 157.141 120.553C156.856 120.425 156.549 120.437 156.519 119.932C156.489 119.428 156.862 119.387 156.862 119.387L159.574 119.903L156.945 117.74C156.643 117.491 156.525 117.508 156.46 117.224C156.395 116.94 156.957 116.516 156.957 116.516L160.592 118.668L160.817 118.326C160.817 118.326 157.567 115.426 157.413 115.188C157.259 114.95 157.17 114.834 157.454 114.393C157.513 114.276 157.616 114.185 157.742 114.139C157.868 114.094 158.006 114.098 158.129 114.15Z" fill="white" stroke="#263238" stroke-linecap="round" stroke-linejoin="round"/>
<path d="M62.655 283.705C62.3884 283.705 62.1884 283.665 62.055 283.585C61.935 283.519 61.855 283.419 61.815 283.285C61.775 283.139 61.755 282.972 61.755 282.785V270.645C61.755 270.299 61.8217 270.065 61.955 269.945C62.1017 269.812 62.355 269.745 62.715 269.745H70.755C70.9417 269.745 71.1017 269.765 71.235 269.805C71.3684 269.845 71.4684 269.932 71.535 270.065C71.6017 270.199 71.635 270.399 71.635 270.665C71.635 270.932 71.595 271.132 71.515 271.265C71.4484 271.385 71.3484 271.465 71.215 271.505C71.0817 271.545 70.9217 271.565 70.735 271.565H63.555V275.705H68.555C68.7417 275.705 68.895 275.725 69.015 275.765C69.1484 275.805 69.2484 275.885 69.315 276.005C69.3817 276.125 69.415 276.312 69.415 276.565C69.415 276.805 69.3817 276.985 69.315 277.105C69.2484 277.225 69.1484 277.305 69.015 277.345C68.8817 277.372 68.715 277.385 68.515 277.385H63.555V281.905H70.755C70.9417 281.905 71.1017 281.925 71.235 281.965C71.3684 282.005 71.4684 282.092 71.535 282.225C71.6017 282.345 71.635 282.539 71.635 282.805C71.635 283.072 71.595 283.272 71.515 283.405C71.4484 283.525 71.3484 283.605 71.215 283.645C71.0817 283.685 70.9217 283.705 70.735 283.705H62.655ZM74.816 283.705C74.5626 283.705 74.376 283.665 74.256 283.585C74.136 283.505 74.056 283.399 74.016 283.265C73.976 283.132 73.956 282.972 73.956 282.785V274.865C73.956 274.679 73.976 274.525 74.016 274.405C74.056 274.285 74.136 274.192 74.256 274.125C74.3893 274.059 74.5826 274.025 74.836 274.025C75.1293 274.025 75.336 274.085 75.456 274.205C75.5893 274.312 75.656 274.505 75.656 274.785L75.576 275.645C75.6693 275.445 75.8093 275.245 75.996 275.045C76.1826 274.845 76.4026 274.665 76.656 274.505C76.9226 274.345 77.2026 274.219 77.496 274.125C77.7893 274.032 78.0893 273.985 78.396 273.985C78.8626 273.985 79.276 274.072 79.636 274.245C80.0093 274.405 80.3426 274.639 80.636 274.945C80.9293 275.252 81.176 275.632 81.376 276.085C81.6426 275.645 81.9226 275.272 82.216 274.965C82.5226 274.645 82.8693 274.405 83.256 274.245C83.6426 274.072 84.076 273.985 84.556 273.985C85.316 273.985 85.9493 274.179 86.456 274.565C86.976 274.939 87.3626 275.472 87.616 276.165C87.8826 276.845 88.016 277.665 88.016 278.625V282.805C88.016 282.992 87.996 283.152 87.956 283.285C87.9293 283.419 87.8493 283.519 87.716 283.585C87.596 283.665 87.4026 283.705 87.136 283.705C86.8826 283.705 86.6893 283.665 86.556 283.585C86.436 283.505 86.356 283.399 86.316 283.265C86.276 283.132 86.256 282.972 86.256 282.785V278.605C86.256 278.005 86.1826 277.492 86.036 277.065C85.9026 276.625 85.6893 276.285 85.396 276.045C85.116 275.805 84.7493 275.685 84.296 275.685C83.816 275.685 83.3893 275.805 83.016 276.045C82.656 276.272 82.376 276.605 82.176 277.045C81.976 277.485 81.876 278.005 81.876 278.605V282.825C81.876 283.025 81.836 283.199 81.756 283.345C81.676 283.492 81.556 283.592 81.396 283.645C81.236 283.712 81.0426 283.725 80.816 283.685C80.6026 283.659 80.4426 283.605 80.336 283.525C80.2293 283.445 80.1626 283.345 80.136 283.225C80.1093 283.092 80.096 282.945 80.096 282.785V278.605C80.096 278.005 80.0226 277.492 79.876 277.065C79.7426 276.625 79.5293 276.285 79.236 276.045C78.956 275.805 78.5893 275.685 78.136 275.685C77.656 275.685 77.2293 275.812 76.856 276.065C76.496 276.305 76.216 276.645 76.016 277.085C75.816 277.525 75.716 278.032 75.716 278.605V282.805C75.716 282.992 75.696 283.152 75.656 283.285C75.616 283.419 75.5293 283.519 75.396 283.585C75.276 283.665 75.0826 283.705 74.816 283.705ZM98.7194 283.685C98.4261 283.685 98.2127 283.625 98.0794 283.505C97.9594 283.385 97.8861 283.199 97.8594 282.945L97.9394 281.945C97.8061 282.159 97.5994 282.405 97.3194 282.685C97.0394 282.952 96.6727 283.192 96.2194 283.405C95.7661 283.605 95.2127 283.705 94.5594 283.705C93.9194 283.705 93.3194 283.579 92.7594 283.325C92.2127 283.072 91.7261 282.719 91.2994 282.265C90.8861 281.812 90.5594 281.292 90.3194 280.705C90.0927 280.119 89.9794 279.492 89.9794 278.825C89.9794 278.172 90.0927 277.559 90.3194 276.985C90.5594 276.399 90.8927 275.885 91.3194 275.445C91.7461 275.005 92.2327 274.659 92.7794 274.405C93.3394 274.152 93.9327 274.025 94.5594 274.025C95.1461 274.025 95.6461 274.105 96.0594 274.265C96.4727 274.412 96.8261 274.612 97.1194 274.865C97.4261 275.105 97.6927 275.379 97.9194 275.685L97.8794 274.845C97.8661 274.552 97.9261 274.345 98.0594 274.225C98.2061 274.092 98.4327 274.025 98.7394 274.025C98.9927 274.025 99.1727 274.065 99.2794 274.145C99.3994 274.225 99.4794 274.339 99.5194 274.485C99.5594 274.632 99.5794 274.812 99.5794 275.025V282.745C99.5794 282.932 99.5594 283.099 99.5194 283.245C99.4794 283.392 99.3994 283.499 99.2794 283.565C99.1594 283.645 98.9727 283.685 98.7194 283.685ZM94.8594 282.025C95.3927 282.025 95.8794 281.885 96.3194 281.605C96.7727 281.325 97.1261 280.952 97.3794 280.485C97.6461 280.005 97.7794 279.459 97.7794 278.845C97.7794 278.219 97.6394 277.672 97.3594 277.205C97.0927 276.725 96.7327 276.352 96.2794 276.085C95.8394 275.805 95.3527 275.665 94.8194 275.665C94.1927 275.665 93.6461 275.812 93.1794 276.105C92.7261 276.385 92.3661 276.765 92.0994 277.245C91.8327 277.725 91.6994 278.272 91.6994 278.885C91.6994 279.485 91.8327 280.025 92.0994 280.505C92.3661 280.972 92.7327 281.345 93.1994 281.625C93.6794 281.892 94.2327 282.025 94.8594 282.025ZM102.944 283.705C102.69 283.705 102.497 283.665 102.364 283.585C102.244 283.519 102.164 283.419 102.124 283.285C102.084 283.152 102.064 282.992 102.064 282.805V274.905C102.064 274.719 102.084 274.559 102.124 274.425C102.164 274.292 102.244 274.192 102.364 274.125C102.497 274.059 102.697 274.025 102.964 274.025C103.217 274.025 103.404 274.065 103.524 274.145C103.644 274.212 103.724 274.312 103.764 274.445C103.804 274.579 103.824 274.745 103.824 274.945V282.825C103.824 283.012 103.804 283.172 103.764 283.305C103.724 283.439 103.637 283.539 103.504 283.605C103.384 283.672 103.197 283.705 102.944 283.705ZM102.944 271.625C102.65 271.625 102.43 271.585 102.284 271.505C102.137 271.412 102.037 271.285 101.984 271.125C101.944 270.965 101.924 270.779 101.924 270.565C101.924 270.352 101.95 270.172 102.004 270.025C102.057 269.865 102.157 269.752 102.304 269.685C102.45 269.605 102.67 269.565 102.964 269.565C103.244 269.565 103.457 269.605 103.604 269.685C103.75 269.765 103.844 269.885 103.884 270.045C103.937 270.205 103.964 270.392 103.964 270.605C103.964 270.819 103.937 271.005 103.884 271.165C103.844 271.312 103.75 271.425 103.604 271.505C103.457 271.585 103.237 271.625 102.944 271.625ZM109.476 283.705C109.05 283.705 108.663 283.665 108.316 283.585C107.983 283.519 107.69 283.405 107.436 283.245C107.183 283.085 106.97 282.879 106.796 282.625C106.636 282.372 106.516 282.065 106.436 281.705C106.37 281.345 106.336 280.925 106.336 280.445V270.445C106.336 270.245 106.35 270.079 106.376 269.945C106.416 269.812 106.503 269.712 106.636 269.645C106.77 269.565 106.956 269.525 107.196 269.525C107.463 269.525 107.656 269.559 107.776 269.625C107.91 269.692 107.996 269.792 108.036 269.925C108.076 270.059 108.096 270.219 108.096 270.405V280.425C108.096 280.692 108.123 280.925 108.176 281.125C108.23 281.312 108.31 281.472 108.416 281.605C108.536 281.739 108.683 281.832 108.856 281.885C109.03 281.939 109.236 281.965 109.476 281.965C109.636 281.965 109.77 281.985 109.876 282.025C109.996 282.065 110.09 282.145 110.156 282.265C110.223 282.385 110.256 282.572 110.256 282.825C110.256 283.092 110.223 283.292 110.156 283.425C110.09 283.545 109.996 283.619 109.876 283.645C109.77 283.685 109.636 283.705 109.476 283.705ZM123.86 283.745C123.14 283.745 122.44 283.639 121.76 283.425C121.08 283.212 120.446 282.905 119.86 282.505C119.273 282.105 118.753 281.612 118.3 281.025C117.86 280.425 117.513 279.759 117.26 279.025C117.006 278.279 116.88 277.459 116.88 276.565C116.88 275.712 117.006 274.925 117.26 274.205C117.513 273.472 117.86 272.825 118.3 272.265C118.74 271.705 119.253 271.232 119.84 270.845C120.44 270.445 121.08 270.145 121.76 269.945C122.453 269.732 123.16 269.625 123.88 269.625C124.546 269.625 125.12 269.692 125.6 269.825C126.08 269.959 126.473 270.105 126.78 270.265C127.086 270.412 127.293 270.525 127.4 270.605C127.586 270.712 127.766 270.839 127.94 270.985C128.113 271.132 128.206 271.305 128.22 271.505C128.246 271.652 128.233 271.772 128.18 271.865C128.14 271.959 128.086 272.059 128.02 272.165C127.913 272.325 127.8 272.445 127.68 272.525C127.573 272.592 127.453 272.625 127.32 272.625C127.186 272.625 127.066 272.585 126.96 272.505C126.853 272.425 126.713 272.332 126.54 272.225C126.46 272.172 126.3 272.085 126.06 271.965C125.82 271.845 125.513 271.732 125.14 271.625C124.766 271.505 124.313 271.445 123.78 271.445C123.1 271.445 122.446 271.572 121.82 271.825C121.206 272.065 120.666 272.412 120.2 272.865C119.733 273.319 119.366 273.865 119.1 274.505C118.833 275.145 118.7 275.865 118.7 276.665C118.7 277.479 118.833 278.212 119.1 278.865C119.366 279.505 119.733 280.052 120.2 280.505C120.68 280.959 121.226 281.305 121.84 281.545C122.453 281.785 123.1 281.905 123.78 281.905C124.286 281.905 124.726 281.852 125.1 281.745C125.486 281.639 125.8 281.525 126.04 281.405C126.293 281.272 126.466 281.172 126.56 281.105C126.706 281.025 126.833 280.945 126.94 280.865C127.06 280.785 127.186 280.745 127.32 280.745C127.453 280.745 127.573 280.785 127.68 280.865C127.8 280.932 127.913 281.045 128.02 281.205C128.086 281.299 128.14 281.405 128.18 281.525C128.233 281.632 128.246 281.752 128.22 281.885C128.206 282.085 128.113 282.259 127.94 282.405C127.766 282.539 127.586 282.665 127.4 282.785C127.28 282.839 127.066 282.952 126.76 283.125C126.466 283.285 126.08 283.425 125.6 283.545C125.12 283.679 124.54 283.745 123.86 283.745ZM134.859 283.825C134.206 283.825 133.579 283.699 132.979 283.445C132.393 283.192 131.866 282.845 131.399 282.405C130.933 281.952 130.566 281.425 130.299 280.825C130.033 280.225 129.899 279.572 129.899 278.865C129.899 278.172 130.026 277.532 130.279 276.945C130.533 276.345 130.886 275.819 131.339 275.365C131.793 274.912 132.313 274.559 132.899 274.305C133.499 274.039 134.139 273.905 134.819 273.905C135.739 273.905 136.566 274.125 137.299 274.565C138.046 274.992 138.639 275.579 139.079 276.325C139.519 277.072 139.739 277.912 139.739 278.845C139.739 279.579 139.606 280.252 139.339 280.865C139.073 281.465 138.713 281.985 138.259 282.425C137.806 282.865 137.286 283.212 136.699 283.465C136.113 283.705 135.499 283.825 134.859 283.825ZM134.819 282.085C135.379 282.085 135.899 281.945 136.379 281.665C136.859 281.385 137.246 280.999 137.539 280.505C137.833 280.012 137.979 279.452 137.979 278.825C137.979 278.199 137.839 277.645 137.559 277.165C137.293 276.685 136.919 276.312 136.439 276.045C135.959 275.779 135.413 275.645 134.799 275.645C134.213 275.645 133.679 275.785 133.199 276.065C132.733 276.345 132.353 276.725 132.059 277.205C131.779 277.685 131.639 278.232 131.639 278.845C131.639 279.485 131.786 280.052 132.079 280.545C132.373 281.025 132.759 281.405 133.239 281.685C133.733 281.952 134.259 282.085 134.819 282.085ZM142.551 283.685C142.297 283.685 142.104 283.645 141.971 283.565C141.851 283.499 141.771 283.399 141.731 283.265C141.704 283.132 141.691 282.972 141.691 282.785V274.845C141.691 274.672 141.711 274.525 141.751 274.405C141.791 274.285 141.871 274.192 141.991 274.125C142.124 274.059 142.317 274.025 142.571 274.025C142.771 274.025 142.924 274.052 143.031 274.105C143.151 274.145 143.231 274.205 143.271 274.285C143.324 274.365 143.357 274.452 143.371 274.545C143.384 274.639 143.391 274.725 143.391 274.805L143.351 275.725C143.484 275.499 143.651 275.285 143.851 275.085C144.051 274.872 144.284 274.685 144.551 274.525C144.817 274.352 145.104 274.219 145.411 274.125C145.731 274.032 146.071 273.985 146.431 273.985C147.017 273.985 147.557 274.092 148.051 274.305C148.544 274.505 148.964 274.805 149.311 275.205C149.671 275.592 149.944 276.059 150.131 276.605C150.331 277.152 150.431 277.772 150.431 278.465V282.805C150.431 282.992 150.411 283.152 150.371 283.285C150.344 283.419 150.264 283.519 150.131 283.585C150.011 283.652 149.824 283.685 149.571 283.685C149.304 283.685 149.104 283.645 148.971 283.565C148.851 283.499 148.771 283.399 148.731 283.265C148.691 283.132 148.671 282.972 148.671 282.785V278.445C148.671 277.885 148.577 277.399 148.391 276.985C148.204 276.572 147.924 276.252 147.551 276.025C147.177 275.785 146.704 275.665 146.131 275.665C145.584 275.665 145.104 275.785 144.691 276.025C144.291 276.252 143.977 276.572 143.751 276.985C143.537 277.399 143.431 277.885 143.431 278.445V282.805C143.431 282.992 143.411 283.152 143.371 283.285C143.331 283.419 143.244 283.519 143.111 283.585C142.991 283.652 142.804 283.685 142.551 283.685ZM154.393 283.725C154.153 283.725 153.966 283.685 153.833 283.605C153.713 283.525 153.633 283.419 153.593 283.285C153.553 283.139 153.533 282.972 153.533 282.785V272.745C153.533 272.212 153.593 271.745 153.713 271.345C153.833 270.945 154.033 270.612 154.313 270.345C154.593 270.079 154.946 269.879 155.373 269.745C155.813 269.599 156.353 269.525 156.993 269.525C157.166 269.525 157.32 269.545 157.453 269.585C157.6 269.612 157.706 269.692 157.773 269.825C157.853 269.945 157.893 270.132 157.893 270.385C157.893 270.639 157.853 270.832 157.773 270.965C157.693 271.085 157.586 271.165 157.453 271.205C157.32 271.245 157.16 271.265 156.973 271.265C156.666 271.265 156.4 271.279 156.173 271.305C155.96 271.332 155.793 271.392 155.673 271.485C155.553 271.579 155.46 271.725 155.393 271.925C155.34 272.112 155.313 272.372 155.313 272.705V282.845C155.313 283.019 155.286 283.172 155.233 283.305C155.193 283.439 155.106 283.539 154.973 283.605C154.853 283.685 154.66 283.725 154.393 283.725ZM152.513 274.245L154.433 274.265L157.213 274.225C157.4 274.225 157.56 274.245 157.693 274.285C157.826 274.312 157.926 274.392 157.993 274.525C158.073 274.645 158.113 274.832 158.113 275.085C158.113 275.339 158.08 275.532 158.013 275.665C157.946 275.785 157.846 275.865 157.713 275.905C157.58 275.945 157.42 275.965 157.233 275.965L154.493 275.925L152.473 275.945C152.193 275.945 152 275.879 151.893 275.745C151.8 275.612 151.753 275.392 151.753 275.085C151.753 274.792 151.813 274.579 151.933 274.445C152.053 274.312 152.246 274.245 152.513 274.245ZM160.952 283.705C160.698 283.705 160.505 283.665 160.372 283.585C160.252 283.519 160.172 283.419 160.132 283.285C160.092 283.152 160.072 282.992 160.072 282.805V274.905C160.072 274.719 160.092 274.559 160.132 274.425C160.172 274.292 160.252 274.192 160.372 274.125C160.505 274.059 160.705 274.025 160.972 274.025C161.225 274.025 161.412 274.065 161.532 274.145C161.652 274.212 161.732 274.312 161.772 274.445C161.812 274.579 161.832 274.745 161.832 274.945V282.825C161.832 283.012 161.812 283.172 161.772 283.305C161.732 283.439 161.645 283.539 161.512 283.605C161.392 283.672 161.205 283.705 160.952 283.705ZM160.952 271.625C160.658 271.625 160.438 271.585 160.292 271.505C160.145 271.412 160.045 271.285 159.992 271.125C159.952 270.965 159.932 270.779 159.932 270.565C159.932 270.352 159.958 270.172 160.012 270.025C160.065 269.865 160.165 269.752 160.312 269.685C160.458 269.605 160.678 269.565 160.972 269.565C161.252 269.565 161.465 269.605 161.612 269.685C161.758 269.765 161.852 269.885 161.892 270.045C161.945 270.205 161.972 270.392 161.972 270.605C161.972 270.819 161.945 271.005 161.892 271.165C161.852 271.312 161.758 271.425 161.612 271.505C161.465 271.585 161.245 271.625 160.952 271.625ZM165.324 283.705C165.071 283.705 164.878 283.665 164.744 283.585C164.624 283.519 164.544 283.419 164.504 283.285C164.478 283.139 164.464 282.972 164.464 282.785V274.905C164.464 274.705 164.484 274.539 164.524 274.405C164.564 274.272 164.644 274.179 164.764 274.125C164.884 274.059 165.078 274.025 165.344 274.025C165.584 274.025 165.764 274.059 165.884 274.125C166.018 274.179 166.104 274.265 166.144 274.385C166.198 274.492 166.224 274.619 166.224 274.765L166.144 275.365C166.238 275.192 166.344 275.019 166.464 274.845C166.598 274.672 166.758 274.519 166.944 274.385C167.144 274.239 167.378 274.119 167.644 274.025C167.924 273.932 168.264 273.885 168.664 273.885C168.864 273.885 169.051 273.905 169.224 273.945C169.411 273.972 169.584 274.019 169.744 274.085C169.918 274.152 170.064 274.232 170.184 274.325C170.304 274.405 170.398 274.499 170.464 274.605C170.544 274.699 170.584 274.812 170.584 274.945C170.584 275.239 170.491 275.492 170.304 275.705C170.118 275.905 169.924 276.005 169.724 276.005C169.551 276.005 169.424 275.985 169.344 275.945C169.264 275.892 169.184 275.839 169.104 275.785C169.038 275.732 168.938 275.685 168.804 275.645C168.671 275.592 168.458 275.565 168.164 275.565C167.964 275.565 167.751 275.605 167.524 275.685C167.311 275.765 167.104 275.885 166.904 276.045C166.704 276.192 166.538 276.385 166.404 276.625C166.284 276.865 166.224 277.145 166.224 277.465V282.825C166.224 283.012 166.204 283.172 166.164 283.305C166.124 283.439 166.038 283.539 165.904 283.605C165.784 283.672 165.591 283.705 165.324 283.705ZM173.429 283.705C173.176 283.705 172.989 283.665 172.869 283.585C172.749 283.505 172.669 283.399 172.629 283.265C172.589 283.132 172.569 282.972 172.569 282.785V274.865C172.569 274.679 172.589 274.525 172.629 274.405C172.669 274.285 172.749 274.192 172.869 274.125C173.003 274.059 173.196 274.025 173.449 274.025C173.743 274.025 173.949 274.085 174.069 274.205C174.203 274.312 174.269 274.505 174.269 274.785L174.189 275.645C174.283 275.445 174.423 275.245 174.609 275.045C174.796 274.845 175.016 274.665 175.269 274.505C175.536 274.345 175.816 274.219 176.109 274.125C176.403 274.032 176.703 273.985 177.009 273.985C177.476 273.985 177.889 274.072 178.249 274.245C178.623 274.405 178.956 274.639 179.249 274.945C179.543 275.252 179.789 275.632 179.989 276.085C180.256 275.645 180.536 275.272 180.829 274.965C181.136 274.645 181.483 274.405 181.869 274.245C182.256 274.072 182.689 273.985 183.169 273.985C183.929 273.985 184.563 274.179 185.069 274.565C185.589 274.939 185.976 275.472 186.229 276.165C186.496 276.845 186.629 277.665 186.629 278.625V282.805C186.629 282.992 186.609 283.152 186.569 283.285C186.543 283.419 186.463 283.519 186.329 283.585C186.209 283.665 186.016 283.705 185.749 283.705C185.496 283.705 185.303 283.665 185.169 283.585C185.049 283.505 184.969 283.399 184.929 283.265C184.889 283.132 184.869 282.972 184.869 282.785V278.605C184.869 278.005 184.796 277.492 184.649 277.065C184.516 276.625 184.303 276.285 184.009 276.045C183.729 275.805 183.363 275.685 182.909 275.685C182.429 275.685 182.003 275.805 181.629 276.045C181.269 276.272 180.989 276.605 180.789 277.045C180.589 277.485 180.489 278.005 180.489 278.605V282.825C180.489 283.025 180.449 283.199 180.369 283.345C180.289 283.492 180.169 283.592 180.009 283.645C179.849 283.712 179.656 283.725 179.429 283.685C179.216 283.659 179.056 283.605 178.949 283.525C178.843 283.445 178.776 283.345 178.749 283.225C178.723 283.092 178.709 282.945 178.709 282.785V278.605C178.709 278.005 178.636 277.492 178.489 277.065C178.356 276.625 178.143 276.285 177.849 276.045C177.569 275.805 177.203 275.685 176.749 275.685C176.269 275.685 175.843 275.812 175.469 276.065C175.109 276.305 174.829 276.645 174.629 277.085C174.429 277.525 174.329 278.032 174.329 278.605V282.805C174.329 282.992 174.309 283.152 174.269 283.285C174.229 283.419 174.143 283.519 174.009 283.585C173.889 283.665 173.696 283.705 173.429 283.705ZM197.333 283.685C197.039 283.685 196.826 283.625 196.693 283.505C196.573 283.385 196.499 283.199 196.473 282.945L196.553 281.945C196.419 282.159 196.213 282.405 195.933 282.685C195.653 282.952 195.286 283.192 194.833 283.405C194.379 283.605 193.826 283.705 193.173 283.705C192.533 283.705 191.933 283.579 191.373 283.325C190.826 283.072 190.339 282.719 189.913 282.265C189.499 281.812 189.173 281.292 188.933 280.705C188.706 280.119 188.593 279.492 188.593 278.825C188.593 278.172 188.706 277.559 188.933 276.985C189.173 276.399 189.506 275.885 189.933 275.445C190.359 275.005 190.846 274.659 191.393 274.405C191.953 274.152 192.546 274.025 193.173 274.025C193.759 274.025 194.259 274.105 194.673 274.265C195.086 274.412 195.439 274.612 195.733 274.865C196.039 275.105 196.306 275.379 196.533 275.685L196.493 274.845C196.479 274.552 196.539 274.345 196.673 274.225C196.819 274.092 197.046 274.025 197.353 274.025C197.606 274.025 197.786 274.065 197.893 274.145C198.013 274.225 198.093 274.339 198.133 274.485C198.173 274.632 198.193 274.812 198.193 275.025V282.745C198.193 282.932 198.173 283.099 198.133 283.245C198.093 283.392 198.013 283.499 197.893 283.565C197.773 283.645 197.586 283.685 197.333 283.685ZM193.473 282.025C194.006 282.025 194.493 281.885 194.933 281.605C195.386 281.325 195.739 280.952 195.993 280.485C196.259 280.005 196.393 279.459 196.393 278.845C196.393 278.219 196.253 277.672 195.973 277.205C195.706 276.725 195.346 276.352 194.893 276.085C194.453 275.805 193.966 275.665 193.433 275.665C192.806 275.665 192.259 275.812 191.793 276.105C191.339 276.385 190.979 276.765 190.713 277.245C190.446 277.725 190.313 278.272 190.313 278.885C190.313 279.485 190.446 280.025 190.713 280.505C190.979 280.972 191.346 281.345 191.813 281.625C192.293 281.892 192.846 282.025 193.473 282.025ZM205.137 283.705C204.51 283.705 203.977 283.645 203.537 283.525C203.11 283.405 202.757 283.219 202.477 282.965C202.197 282.712 201.997 282.385 201.877 281.985C201.757 281.572 201.697 281.065 201.697 280.465V271.625C201.697 271.439 201.717 271.279 201.757 271.145C201.797 271.012 201.877 270.912 201.997 270.845C202.117 270.765 202.304 270.725 202.557 270.725C202.81 270.725 203.004 270.765 203.137 270.845C203.27 270.912 203.357 271.012 203.397 271.145C203.437 271.265 203.457 271.419 203.457 271.605V280.465C203.457 280.812 203.484 281.092 203.537 281.305C203.604 281.505 203.697 281.659 203.817 281.765C203.95 281.872 204.124 281.939 204.337 281.965C204.55 281.992 204.81 282.005 205.117 282.005C205.33 282.005 205.504 282.025 205.637 282.065C205.77 282.105 205.87 282.185 205.937 282.305C206.004 282.425 206.037 282.605 206.037 282.845C206.037 283.099 205.997 283.292 205.917 283.425C205.85 283.545 205.744 283.619 205.597 283.645C205.464 283.685 205.31 283.705 205.137 283.705ZM200.657 274.245L202.577 274.265L205.357 274.225C205.544 274.225 205.704 274.245 205.837 274.285C205.97 274.312 206.07 274.392 206.137 274.525C206.217 274.645 206.257 274.832 206.257 275.085C206.257 275.339 206.224 275.532 206.157 275.665C206.09 275.785 205.99 275.865 205.857 275.905C205.724 275.945 205.564 275.965 205.377 275.965L202.637 275.925L200.617 275.945C200.337 275.945 200.144 275.879 200.037 275.745C199.944 275.612 199.897 275.392 199.897 275.085C199.897 274.792 199.957 274.579 200.077 274.445C200.197 274.312 200.39 274.245 200.657 274.245ZM209.077 283.705C208.823 283.705 208.63 283.665 208.497 283.585C208.377 283.519 208.297 283.419 208.257 283.285C208.217 283.152 208.197 282.992 208.197 282.805V274.905C208.197 274.719 208.217 274.559 208.257 274.425C208.297 274.292 208.377 274.192 208.497 274.125C208.63 274.059 208.83 274.025 209.097 274.025C209.35 274.025 209.537 274.065 209.657 274.145C209.777 274.212 209.857 274.312 209.897 274.445C209.937 274.579 209.957 274.745 209.957 274.945V282.825C209.957 283.012 209.937 283.172 209.897 283.305C209.857 283.439 209.77 283.539 209.637 283.605C209.517 283.672 209.33 283.705 209.077 283.705ZM209.077 271.625C208.783 271.625 208.563 271.585 208.417 271.505C208.27 271.412 208.17 271.285 208.117 271.125C208.077 270.965 208.057 270.779 208.057 270.565C208.057 270.352 208.083 270.172 208.137 270.025C208.19 269.865 208.29 269.752 208.437 269.685C208.583 269.605 208.803 269.565 209.097 269.565C209.377 269.565 209.59 269.605 209.737 269.685C209.883 269.765 209.977 269.885 210.017 270.045C210.07 270.205 210.097 270.392 210.097 270.605C210.097 270.819 210.07 271.005 210.017 271.165C209.977 271.312 209.883 271.425 209.737 271.505C209.59 271.585 209.37 271.625 209.077 271.625ZM216.813 283.825C216.159 283.825 215.533 283.699 214.933 283.445C214.346 283.192 213.819 282.845 213.353 282.405C212.886 281.952 212.519 281.425 212.253 280.825C211.986 280.225 211.853 279.572 211.853 278.865C211.853 278.172 211.979 277.532 212.233 276.945C212.486 276.345 212.839 275.819 213.293 275.365C213.746 274.912 214.266 274.559 214.853 274.305C215.453 274.039 216.093 273.905 216.773 273.905C217.693 273.905 218.519 274.125 219.253 274.565C219.999 274.992 220.593 275.579 221.033 276.325C221.473 277.072 221.693 277.912 221.693 278.845C221.693 279.579 221.559 280.252 221.293 280.865C221.026 281.465 220.666 281.985 220.213 282.425C219.759 282.865 219.239 283.212 218.653 283.465C218.066 283.705 217.453 283.825 216.813 283.825ZM216.773 282.085C217.333 282.085 217.853 281.945 218.333 281.665C218.813 281.385 219.199 280.999 219.493 280.505C219.786 280.012 219.933 279.452 219.933 278.825C219.933 278.199 219.793 277.645 219.513 277.165C219.246 276.685 218.873 276.312 218.393 276.045C217.913 275.779 217.366 275.645 216.753 275.645C216.166 275.645 215.633 275.785 215.153 276.065C214.686 276.345 214.306 276.725 214.013 277.205C213.733 277.685 213.593 278.232 213.593 278.845C213.593 279.485 213.739 280.052 214.033 280.545C214.326 281.025 214.713 281.405 215.193 281.685C215.686 281.952 216.213 282.085 216.773 282.085ZM224.504 283.685C224.251 283.685 224.057 283.645 223.924 283.565C223.804 283.499 223.724 283.399 223.684 283.265C223.657 283.132 223.644 282.972 223.644 282.785V274.845C223.644 274.672 223.664 274.525 223.704 274.405C223.744 274.285 223.824 274.192 223.944 274.125C224.077 274.059 224.271 274.025 224.524 274.025C224.724 274.025 224.877 274.052 224.984 274.105C225.104 274.145 225.184 274.205 225.224 274.285C225.277 274.365 225.311 274.452 225.324 274.545C225.337 274.639 225.344 274.725 225.344 274.805L225.304 275.725C225.437 275.499 225.604 275.285 225.804 275.085C226.004 274.872 226.237 274.685 226.504 274.525C226.771 274.352 227.057 274.219 227.364 274.125C227.684 274.032 228.024 273.985 228.384 273.985C228.971 273.985 229.511 274.092 230.004 274.305C230.497 274.505 230.917 274.805 231.264 275.205C231.624 275.592 231.897 276.059 232.084 276.605C232.284 277.152 232.384 277.772 232.384 278.465V282.805C232.384 282.992 232.364 283.152 232.324 283.285C232.297 283.419 232.217 283.519 232.084 283.585C231.964 283.652 231.777 283.685 231.524 283.685C231.257 283.685 231.057 283.645 230.924 283.565C230.804 283.499 230.724 283.399 230.684 283.265C230.644 283.132 230.624 282.972 230.624 282.785V278.445C230.624 277.885 230.531 277.399 230.344 276.985C230.157 276.572 229.877 276.252 229.504 276.025C229.131 275.785 228.657 275.665 228.084 275.665C227.537 275.665 227.057 275.785 226.644 276.025C226.244 276.252 225.931 276.572 225.704 276.985C225.491 277.399 225.384 277.885 225.384 278.445V282.805C225.384 282.992 225.364 283.152 225.324 283.285C225.284 283.419 225.197 283.519 225.064 283.585C224.944 283.652 224.757 283.685 224.504 283.685Z" fill="black"/>
</svg>
