<svg width="333" height="338" viewBox="0 0 333 338" fill="none" xmlns="http://www.w3.org/2000/svg">
<path d="M333 258.502H0V258.671H333V258.502Z" fill="#EBEBEB"/>
<path d="M299.633 269.379H277.575V269.548H299.633V269.379Z" fill="#EBEBEB"/>
<path d="M220.592 271.218H214.805V271.387H220.592V271.218Z" fill="#EBEBEB"/>
<path d="M276.909 263.106H264.129V263.275H276.909V263.106Z" fill="#EBEBEB"/>
<path d="M63.703 264.242H34.9385V264.411H63.703V264.242Z" fill="#EBEBEB"/>
<path d="M73.8527 264.242H69.637V264.411H73.8527V264.242Z" fill="#EBEBEB"/>
<path d="M149.95 267.094H87.5591V267.263H149.95V267.094Z" fill="#EBEBEB"/>
<path d="M157.842 228.353H29.244C28.2365 228.351 27.271 227.944 26.5592 227.22C25.8475 226.496 25.4478 225.515 25.4478 224.493V41.0062C25.4565 39.9895 25.8601 39.0173 26.5709 38.3009C27.2817 37.5846 28.2423 37.1817 29.244 37.18H157.842C158.85 37.18 159.818 37.5867 160.531 38.3105C161.244 39.0344 161.645 40.0162 161.645 41.04V224.493C161.645 225.517 161.244 226.498 160.531 227.222C159.818 227.946 158.85 228.353 157.842 228.353ZM29.244 37.3152C28.2807 37.317 27.3575 37.7066 26.677 38.3986C25.9965 39.0906 25.6143 40.0284 25.6143 41.0062V224.493C25.6143 225.471 25.9965 226.408 26.677 227.1C27.3575 227.792 28.2807 228.182 29.244 228.184H157.842C158.806 228.182 159.73 227.793 160.411 227.101C161.093 226.409 161.477 225.471 161.478 224.493V41.0062C161.477 40.0278 161.093 39.09 160.411 38.3982C159.73 37.7064 158.806 37.317 157.842 37.3152H29.244Z" fill="#EBEBEB"/>
<path d="M301.905 228.353H173.3C172.292 228.351 171.326 227.944 170.613 227.22C169.9 226.497 169.499 225.516 169.497 224.493V41.0062C169.508 39.9888 169.913 39.0167 170.625 38.3005C171.336 37.5843 172.298 37.1817 173.3 37.18H301.905C302.905 37.1835 303.864 37.5871 304.573 38.3033C305.283 39.0195 305.685 39.9906 305.694 41.0062V224.493C305.694 225.514 305.295 226.494 304.585 227.217C303.875 227.941 302.911 228.349 301.905 228.353ZM173.3 37.3152C172.336 37.317 171.412 37.7064 170.731 38.3982C170.049 39.09 169.665 40.0278 169.664 41.0062V224.493C169.665 225.471 170.049 226.409 170.731 227.101C171.412 227.793 172.336 228.182 173.3 228.184H301.905C302.868 228.182 303.792 227.793 304.474 227.101C305.155 226.409 305.539 225.471 305.541 224.493V41.0062C305.539 40.0278 305.155 39.09 304.474 38.3982C303.792 37.7064 302.868 37.317 301.905 37.3152H173.3Z" fill="#EBEBEB"/>
<path d="M109.55 44.447H62.0979V207.843H109.55V44.447Z" fill="#FAFAFA"/>
<path d="M102.484 44.447H99.7134L83.1633 207.843H85.9339L102.484 44.447Z" fill="#F5F5F5"/>
<path d="M108.711 45.0757H61.7915V46.5156H108.711V45.0757Z" fill="#E0E0E0"/>
<path d="M108.711 206.41H61.7915V209.492H108.711V206.41Z" fill="#EBEBEB"/>
<path d="M107.932 209.357H63.5964V209.492H107.932V209.357Z" fill="#EBEBEB"/>
<path d="M63.5963 45.0757H107.932V209.357H110.589V43.0544H60.939V209.357H63.5963V45.0757Z" fill="#EBEBEB"/>
<path d="M162.358 44.447H114.905V207.843H162.358V44.447Z" fill="#FAFAFA"/>
<path d="M149.191 44.447H134.066L117.516 207.843H132.64L149.191 44.447Z" fill="#F5F5F5"/>
<path d="M162.85 45.0757H114.599V46.5156H162.85V45.0757Z" fill="#E0E0E0"/>
<path d="M162.85 206.41H114.599V209.492H162.85V206.41Z" fill="#EBEBEB"/>
<path d="M160.739 209.357H116.404V209.492H160.739V209.357Z" fill="#EBEBEB"/>
<path d="M116.403 45.0757H160.739V209.357H163.39V43.0544H113.746V209.357H116.403V45.0757Z" fill="#EBEBEB"/>
<path d="M213.826 44.447H167.706V207.843H213.826V44.447Z" fill="#FAFAFA"/>
<path d="M193.839 44.447H191.069L174.519 207.843H177.289L193.839 44.447Z" fill="#F5F5F5"/>
<path d="M214.325 45.0757H167.406V46.5156H214.325V45.0757Z" fill="#E0E0E0"/>
<path d="M214.325 206.41H167.406V209.492H214.325V206.41Z" fill="#EBEBEB"/>
<path d="M213.546 209.357H169.211V209.492H213.546V209.357Z" fill="#EBEBEB"/>
<path d="M169.211 45.0757H213.54V209.357H216.197V43.0544H166.553V209.357H169.211V45.0757Z" fill="#EBEBEB"/>
<path d="M267.965 44.447H220.513V207.843H267.965V44.447Z" fill="#FAFAFA"/>
<path d="M263.323 44.447H248.198L231.641 207.843H246.773L263.323 44.447Z" fill="#F5F5F5"/>
<path d="M267.126 45.0757H220.206V46.5156H267.126V45.0757Z" fill="#E0E0E0"/>
<path d="M267.126 206.41H220.206V209.492H267.126V206.41Z" fill="#EBEBEB"/>
<path d="M222.011 45.0757H266.347V209.357H269.004V43.0544H219.36V209.357H222.011V45.0757Z" fill="#EBEBEB"/>
<path d="M266.347 209.357H222.011V209.492H266.347V209.357Z" fill="#EBEBEB"/>
<path d="M98.1951 170.257H77.5957V206.417H98.1951V170.257Z" fill="#EBEBEB"/>
<path d="M94.2391 165.201V174.273H92.6207H83.1768H81.5518V165.201H94.2391Z" fill="#EBEBEB"/>
<path d="M94.2391 174.273H96.8765V171.596H94.2391V174.273Z" fill="#FAFAFA"/>
<path d="M89.1375 174.273H91.7749V171.596H89.1375V174.273Z" fill="#FAFAFA"/>
<path d="M84.0291 174.273H86.6665V171.596H84.0291V174.273Z" fill="#FAFAFA"/>
<path d="M78.921 174.273H81.5583V171.596H78.921V174.273Z" fill="#F0F0F0"/>
<path d="M94.2391 179.133H96.8765V176.456H94.2391V179.133Z" fill="#F0F0F0"/>
<path d="M89.1375 179.133H91.7749V176.456H89.1375V179.133Z" fill="#F0F0F0"/>
<path d="M84.0291 179.133H86.6665V176.456H84.0291V179.133Z" fill="#FAFAFA"/>
<path d="M78.921 179.133H81.5583V176.456H78.921V179.133Z" fill="#FAFAFA"/>
<path d="M94.2391 184H96.8765V181.324H94.2391V184Z" fill="#F0F0F0"/>
<path d="M89.1375 184H91.7749V181.324H89.1375V184Z" fill="#FAFAFA"/>
<path d="M84.0291 184H86.6665V181.324H84.0291V184Z" fill="#FAFAFA"/>
<path d="M89.1375 170.068H91.7749V167.391H89.1375V170.068Z" fill="#FAFAFA"/>
<path d="M84.0291 170.068H86.6665V167.391H84.0291V170.068Z" fill="#F0F0F0"/>
<path d="M78.921 184H81.5583V181.324H78.921V184Z" fill="#F0F0F0"/>
<path d="M94.2391 188.868H96.8765V186.191H94.2391V188.868Z" fill="#FAFAFA"/>
<path d="M89.1375 188.868H91.7749V186.191H89.1375V188.868Z" fill="#F0F0F0"/>
<path d="M84.0291 188.868H86.6665V186.191H84.0291V188.868Z" fill="#F0F0F0"/>
<path d="M78.921 188.868H81.5583V186.191H78.921V188.868Z" fill="#FAFAFA"/>
<path d="M94.2391 193.735H96.8765V191.058H94.2391V193.735Z" fill="#F0F0F0"/>
<path d="M89.1375 193.735H91.7749V191.058H89.1375V193.735Z" fill="#FAFAFA"/>
<path d="M84.0291 193.735H86.6665V191.058H84.0291V193.735Z" fill="#FAFAFA"/>
<path d="M78.921 193.735H81.5583V191.058H78.921V193.735Z" fill="#F0F0F0"/>
<path d="M94.2391 198.595H96.8765V195.918H94.2391V198.595Z" fill="#F0F0F0"/>
<path d="M89.1375 198.595H91.7749V195.918H89.1375V198.595Z" fill="#FAFAFA"/>
<path d="M84.0291 198.595H86.6665V195.918H84.0291V198.595Z" fill="#F0F0F0"/>
<path d="M78.921 198.595H81.5583V195.918H78.921V198.595Z" fill="#FAFAFA"/>
<path d="M94.2391 203.462H96.8765V200.785H94.2391V203.462Z" fill="#FAFAFA"/>
<path d="M89.1375 203.462H91.7749V200.785H89.1375V203.462Z" fill="#FAFAFA"/>
<path d="M84.0291 203.462H86.6665V200.785H84.0291V203.462Z" fill="#F0F0F0"/>
<path d="M78.921 203.462H81.5583V200.785H78.921V203.462Z" fill="#F0F0F0"/>
<path d="M243.316 183.426H224.862V206.41H243.316V183.426Z" fill="#F0F0F0"/>
<path d="M226.467 185.981H230.756H231.941H233.12V188.374H231.941H230.756H226.467V185.981Z" fill="#E6E6E6"/>
<path d="M226.467 190.625H230.756H231.941H233.12V193.025H231.941H230.756H226.467V190.625Z" fill="#FAFAFA"/>
<path d="M226.467 195.269H230.756H231.941H233.12V197.669H231.941H230.756H226.467V195.269Z" fill="#E6E6E6"/>
<path d="M226.467 199.913H230.756H232.58H233.12V202.313H232.58H230.756H226.467V199.913Z" fill="#FAFAFA"/>
<path d="M235.051 185.981H239.347H240.526H241.705V188.374H240.526H239.347H235.051V185.981Z" fill="#FAFAFA"/>
<path d="M235.051 190.625H239.347H241.012H241.705V193.025H241.012H239.347H235.051V190.625Z" fill="#FAFAFA"/>
<path d="M235.051 195.269H239.347H240.526H241.705V197.669H240.526H239.347H235.051V195.269Z" fill="#E6E6E6"/>
<path d="M235.051 199.913H239.347H240.526H241.705V202.313H240.526H239.347H235.051V199.913Z" fill="#FAFAFA"/>
<path d="M154.385 192.133H137.615V206.417H154.385V192.133Z" fill="#F0F0F0"/>
<path d="M151.169 196.094H153.313V193.917H151.169V196.094Z" fill="#FAFAFA"/>
<path d="M147.013 196.094H149.157V193.917H147.013V196.094Z" fill="#FAFAFA"/>
<path d="M142.85 196.094H144.995V193.917H142.85V196.094Z" fill="#FAFAFA"/>
<path d="M138.695 196.094H140.839V193.917H138.695V196.094Z" fill="#FAFAFA"/>
<path d="M151.169 200.049H153.313V197.872H151.169V200.049Z" fill="#FAFAFA"/>
<path d="M147.013 200.049H149.157V197.872H147.013V200.049Z" fill="#FAFAFA"/>
<path d="M142.85 200.049H144.995V197.872H142.85V200.049Z" fill="#FAFAFA"/>
<path d="M138.695 200.049H140.839V197.872H138.695V200.049Z" fill="#E6E6E6"/>
<path d="M151.169 204.01H153.313V201.833H151.169V204.01Z" fill="#E6E6E6"/>
<path d="M147.013 204.01H149.157V201.833H147.013V204.01Z" fill="#E6E6E6"/>
<path d="M142.85 204.01H144.995V201.833H142.85V204.01Z" fill="#FAFAFA"/>
<path d="M138.695 204.01H140.839V201.833H138.695V204.01Z" fill="#E6E6E6"/>
<path d="M135.345 181.574H118.575V206.417H135.345V181.574Z" fill="#F0F0F0"/>
<path d="M134.272 182.662H127.965V188.8H134.272V182.662Z" fill="#FAFAFA"/>
<path d="M125.954 182.662H119.647V188.8H125.954V182.662Z" fill="#FAFAFA"/>
<path d="M134.272 190.578H127.965V196.716H134.272V190.578Z" fill="#FAFAFA"/>
<path d="M125.954 190.578H119.647V196.716H125.954V190.578Z" fill="#FAFAFA"/>
<path d="M134.272 198.494H127.965V204.632H134.272V198.494Z" fill="#FAFAFA"/>
<path d="M125.954 198.494H119.647V204.632H125.954V198.494Z" fill="#FAFAFA"/>
<path d="M166.5 289.031C237.817 289.031 295.631 285.605 295.631 281.378C295.631 277.152 237.817 273.726 166.5 273.726C95.1829 273.726 37.3691 277.152 37.3691 281.378C37.3691 285.605 95.1829 289.031 166.5 289.031Z" fill="#F5F5F5"/>
<path d="M296.084 53.8163V202.699L278.435 220.613H176.264V53.8163H296.084Z" fill="#A4CE4A"/>
<path opacity="0.8" d="M296.084 53.8163V202.699L278.435 220.613H176.264V53.8163H296.084Z" fill="white"/>
<path opacity="0.2" d="M278.435 220.613V203.226H296.084L278.781 220.788" fill="black"/>
<path opacity="0.1" d="M221.605 68.276H188.558C188.093 68.276 187.648 68.0886 187.319 67.7552C186.991 67.4218 186.806 66.9696 186.806 66.4981C186.806 66.264 186.85 66.0321 186.938 65.8156C187.025 65.5992 187.154 65.4024 187.317 65.2366C187.48 65.0707 187.673 64.9392 187.886 64.8494C188.099 64.7596 188.327 64.7134 188.558 64.7134H221.605C222.07 64.7152 222.516 64.904 222.844 65.2385C223.172 65.573 223.356 66.0259 223.356 66.4981C223.356 66.9696 223.172 67.4218 222.843 67.7552C222.515 68.0886 222.069 68.276 221.605 68.276Z" fill="black"/>
<path opacity="0.1" d="M281.545 82.7018H201.878C201.647 82.7018 201.419 82.6556 201.206 82.5658C200.993 82.4761 200.8 82.3445 200.637 82.1787C200.474 82.0129 200.346 81.8161 200.258 81.5996C200.17 81.3831 200.126 81.1512 200.126 80.9172C200.126 80.4456 200.311 79.9934 200.64 79.66C200.968 79.3266 201.414 79.1393 201.878 79.1393H281.545C282.01 79.1393 282.455 79.3266 282.784 79.66C283.112 79.9934 283.297 80.4456 283.297 80.9172C283.297 81.3893 283.112 81.8422 282.784 82.1767C282.456 82.5112 282.01 82.7 281.545 82.7018Z" fill="black"/>
<path opacity="0.1" d="M281.545 89.7119H188.558C188.093 89.7119 187.648 89.5246 187.319 89.1912C186.991 88.8578 186.806 88.4056 186.806 87.9341C186.806 87.7 186.85 87.4681 186.938 87.2516C187.025 87.0351 187.154 86.8383 187.317 86.6725C187.48 86.5067 187.673 86.3752 187.886 86.2854C188.099 86.1956 188.327 86.1494 188.558 86.1494H281.545C282.01 86.1512 282.456 86.34 282.784 86.6745C283.112 87.009 283.296 87.4619 283.296 87.9341C283.296 88.4056 283.112 88.8578 282.783 89.1912C282.455 89.5246 282.009 89.7119 281.545 89.7119Z" fill="black"/>
<path opacity="0.1" d="M281.545 97.6347H188.558C188.327 97.6347 188.099 97.5885 187.886 97.4987C187.673 97.4089 187.48 97.2774 187.317 97.1115C187.154 96.9457 187.025 96.7489 186.938 96.5325C186.85 96.316 186.806 96.0841 186.806 95.85C186.806 95.3785 186.991 94.9263 187.319 94.5929C187.648 94.2595 188.093 94.0721 188.558 94.0721H281.545C282.009 94.0721 282.455 94.2595 282.783 94.5929C283.112 94.9263 283.296 95.3785 283.296 95.85C283.296 96.3222 283.112 96.7751 282.784 97.1096C282.456 97.4441 282.01 97.6329 281.545 97.6347Z" fill="black"/>
<path opacity="0.1" d="M281.545 105.551H188.558C188.093 105.551 187.648 105.363 187.319 105.03C186.991 104.696 186.806 104.244 186.806 103.773C186.806 103.301 186.991 102.849 187.319 102.516C187.648 102.182 188.093 101.995 188.558 101.995H281.545C282.009 101.995 282.455 102.182 282.783 102.516C283.112 102.849 283.296 103.301 283.296 103.773C283.296 104.244 283.112 104.696 282.783 105.03C282.455 105.363 282.009 105.551 281.545 105.551Z" fill="black"/>
<path opacity="0.1" d="M281.545 113.473H188.558C188.093 113.473 187.648 113.286 187.319 112.953C186.991 112.619 186.806 112.167 186.806 111.695C186.806 111.462 186.85 111.23 186.938 111.014C187.026 110.798 187.155 110.602 187.317 110.436C187.48 110.271 187.674 110.14 187.887 110.051C188.1 109.962 188.328 109.917 188.558 109.918H281.545C282.009 109.918 282.455 110.105 282.783 110.438C283.112 110.772 283.296 111.224 283.296 111.695C283.296 112.167 283.112 112.619 282.783 112.953C282.455 113.286 282.009 113.473 281.545 113.473Z" fill="black"/>
<path opacity="0.1" d="M281.545 121.396H188.558C188.093 121.396 187.648 121.209 187.319 120.875C186.991 120.542 186.806 120.09 186.806 119.618C186.806 119.384 186.85 119.152 186.938 118.936C187.025 118.719 187.154 118.522 187.317 118.357C187.48 118.191 187.673 118.059 187.886 117.969C188.099 117.88 188.327 117.833 188.558 117.833H281.545C282.01 117.835 282.456 118.024 282.784 118.359C283.112 118.693 283.296 119.146 283.296 119.618C283.296 120.09 283.112 120.542 282.783 120.875C282.455 121.209 282.009 121.396 281.545 121.396Z" fill="black"/>
<path opacity="0.1" d="M281.552 125.756H188.558C187.591 125.756 186.806 126.552 186.806 127.534V127.541C186.806 128.523 187.591 129.319 188.558 129.319H281.552C282.519 129.319 283.303 128.523 283.303 127.541V127.534C283.303 126.552 282.519 125.756 281.552 125.756Z" fill="black"/>
<path opacity="0.1" d="M281.545 137.228H188.558C188.093 137.228 187.648 137.041 187.319 136.707C186.991 136.374 186.806 135.922 186.806 135.45C186.806 134.979 186.991 134.526 187.319 134.193C187.648 133.86 188.093 133.672 188.558 133.672H281.545C282.009 133.672 282.455 133.86 282.783 134.193C283.112 134.526 283.296 134.979 283.296 135.45C283.296 135.922 283.112 136.374 282.783 136.707C282.455 137.041 282.009 137.228 281.545 137.228Z" fill="black"/>
<path opacity="0.1" d="M281.545 145.157H188.558C188.093 145.157 187.648 144.97 187.319 144.637C186.991 144.303 186.806 143.851 186.806 143.38C186.806 143.146 186.85 142.914 186.938 142.698C187.026 142.482 187.155 142.286 187.317 142.12C187.48 141.955 187.674 141.824 187.887 141.735C188.1 141.646 188.328 141.601 188.558 141.602H281.545C282.009 141.602 282.455 141.789 282.783 142.122C283.112 142.456 283.296 142.908 283.296 143.38C283.296 143.851 283.112 144.303 282.783 144.637C282.455 144.97 282.009 145.157 281.545 145.157Z" fill="black"/>
<path opacity="0.1" d="M281.545 153.08H188.558C188.093 153.08 187.648 152.893 187.319 152.559C186.991 152.226 186.806 151.774 186.806 151.302C186.806 151.068 186.85 150.836 186.938 150.62C187.025 150.403 187.154 150.207 187.317 150.041C187.48 149.875 187.673 149.743 187.886 149.654C188.099 149.564 188.327 149.518 188.558 149.518H281.545C282.01 149.519 282.456 149.708 282.784 150.043C283.112 150.377 283.296 150.83 283.296 151.302C283.296 151.774 283.112 152.226 282.783 152.559C282.455 152.893 282.009 153.08 281.545 153.08Z" fill="black"/>
<path opacity="0.1" d="M281.545 161.003H188.558C188.327 161.003 188.099 160.957 187.886 160.867C187.673 160.777 187.48 160.646 187.317 160.48C187.154 160.314 187.025 160.117 186.938 159.901C186.85 159.684 186.806 159.452 186.806 159.218C186.806 158.747 186.991 158.295 187.319 157.961C187.648 157.628 188.093 157.44 188.558 157.44H281.545C282.009 157.44 282.455 157.628 282.783 157.961C283.112 158.295 283.296 158.747 283.296 159.218C283.296 159.69 283.112 160.143 282.784 160.478C282.456 160.812 282.01 161.001 281.545 161.003Z" fill="black"/>
<path opacity="0.1" d="M228.265 168.919H188.558C188.093 168.919 187.648 168.731 187.319 168.398C186.991 168.065 186.806 167.612 186.806 167.141C186.806 166.669 186.991 166.217 187.319 165.884C187.648 165.55 188.093 165.363 188.558 165.363H228.265C228.729 165.363 229.175 165.55 229.503 165.884C229.832 166.217 230.016 166.669 230.016 167.141C230.016 167.612 229.832 168.065 229.503 168.398C229.175 168.731 228.729 168.919 228.265 168.919Z" fill="black"/>
<path d="M274.392 90.3001L274.266 90.1919C273.906 89.9147 273.7 90.0094 273.533 89.4753C273.413 89.09 273.533 88.6574 273.393 88.2585C273.076 87.572 272.713 86.908 272.308 86.2711L270.669 83.2764C270.303 82.6133 269.694 82.1243 268.973 81.9165C268.253 81.7087 267.481 81.7991 266.826 82.1678L251.742 90.6989C251.682 91.2127 251.262 91.5642 251.175 92.0509C251.146 92.1947 251.153 92.3439 251.198 92.4838C251.242 92.6237 251.322 92.7494 251.428 92.8486C251.259 92.8452 251.095 92.7859 250.962 92.6796C250.063 92.1726 249.823 91.767 248.898 92.2807C248.498 92.4971 248.105 92.7269 247.712 92.9567L243.716 95.2213L231.195 102.299L216.543 110.6L204.336 117.502C202.671 118.442 200.653 119.267 199.167 120.463C199.58 120.68 199.654 121.011 199.287 121.335L198.621 121.95C198.621 122.119 198.861 122.119 199.014 122.052L199.84 121.694C199.266 122.433 198.575 123.07 197.796 123.58C196.486 124.351 195.079 124.938 193.613 125.324L194.319 124.425C194.372 124.35 194.439 124.256 194.392 124.168C194.346 124.08 194.259 124.073 194.179 124.066C193.826 124.026 193.473 124.066 193.213 123.803C190.936 125.155 188.551 126.439 186.234 127.75C185.58 128.122 185.099 128.741 184.894 129.472C184.689 130.203 184.778 130.986 185.142 131.651L200.353 159.367C200.533 159.696 200.775 159.985 201.065 160.219C201.355 160.453 201.688 160.626 202.044 160.729C202.401 160.832 202.774 160.863 203.142 160.819C203.51 160.776 203.866 160.659 204.189 160.476L208.192 158.184C208.192 157.704 208.565 157.17 208.285 156.731C208.245 156.677 208.22 156.614 208.212 156.548C208.212 156.46 208.292 156.393 208.365 156.345C208.775 156.081 209.245 155.927 209.73 155.899C209.897 155.899 210.117 155.973 210.09 156.136C210.09 155.987 210.949 155.676 211.089 155.629C211.155 155.994 210.909 156.386 211.329 156.46C211.748 156.535 212.388 155.784 212.661 155.649L216.657 153.384L229.311 146.239L243.19 138.391L252.414 133.172C252.747 132.976 253.14 132.746 253.46 132.584C253.575 131.964 253.872 131.394 254.312 130.948C254.978 130.482 256.031 130.995 256.583 130.333C256.69 130.204 256.757 130.049 256.85 129.914C257.036 129.694 257.262 129.512 257.516 129.38C257.677 129.251 257.871 129.174 258.075 129.157C258.275 129.157 258.488 129.326 258.461 129.528C259.833 129.204 261.072 128.264 262.284 127.568C262.724 127.318 266.58 125.479 266.567 125.188C266.513 124.289 267.053 123.519 267.026 122.593C267.026 122.417 266.687 121.241 266.84 121.153C263.377 123.248 259.78 125.155 256.25 127.142C256.13 127.216 255.678 127.372 255.584 127.507C255.584 127.507 255.551 127.568 255.538 127.602L255.438 127.825V127.879C255.294 128.339 255.125 128.79 254.932 129.231C254.932 129.292 254.179 130.238 254.119 130.015C253.826 128.927 253.453 128.758 252.634 129.204L251.462 129.88L247.739 131.982L235.198 139.08L220.42 147.436L208.105 154.398L202.944 157.312C201.914 155.419 200.877 153.529 199.833 151.64L197.835 147.997C197.633 147.492 197.334 147.032 196.956 146.645C196.67 146.428 196.184 146.482 195.931 146.286C195.311 145.806 194.865 144.934 194.279 144.373C193.879 143.995 193.273 142.859 193.44 142.23C193.64 142.312 193.839 142.399 194.039 142.46C193.935 142.044 193.958 141.605 194.106 141.203C192.108 137.789 190.27 134.22 188.358 130.732L188.232 130.509L192.894 127.872L196.297 125.946C196.997 125.64 197.666 125.267 198.295 124.83C198.728 124.452 199.167 123.978 199.627 123.573C199.935 123.335 200.271 123.135 200.626 122.978L201.885 122.356C201.949 122.317 202.023 122.293 202.098 122.288C202.173 122.297 202.247 122.315 202.318 122.342C202.984 122.484 204.635 121.234 205.235 120.896L209.111 118.706L220.806 112.088L235.378 103.854L249.963 95.5999L261.698 88.9683L267.692 85.5883L267.972 85.4329L274.452 97.2426C274.853 98.0386 275.495 98.6831 276.284 99.0813C276.55 99.1692 276.85 99.3585 276.816 99.6356C276.783 99.9128 276.384 100.143 276.477 100.427C276.57 100.71 277.083 100.602 277.203 100.859C277.323 101.116 276.996 101.535 277.036 101.887C277.174 102.308 277.379 102.703 277.642 103.056L279.527 106.497C280.579 108.403 281.625 110.316 282.684 112.243L271.162 118.76C271.219 118.806 271.267 118.864 271.302 118.929L271.362 119.084C271.591 119.166 271.813 119.266 272.028 119.382C272.12 119.434 272.196 119.51 272.247 119.603C272.299 119.696 272.325 119.802 272.321 119.909C272.319 120.014 272.29 120.118 272.236 120.208C272.182 120.298 272.106 120.372 272.015 120.423L271.309 120.828C271.284 120.985 271.212 121.13 271.104 121.245C270.996 121.36 270.856 121.438 270.703 121.47C270.621 121.477 270.538 121.477 270.456 121.47C270.386 121.523 270.306 121.559 270.221 121.576C270.136 121.594 270.048 121.592 269.963 121.572C269.813 121.525 269.685 121.42 269.609 121.281C269.532 121.141 269.511 120.976 269.55 120.821C269.578 120.752 269.614 120.686 269.657 120.625C269.606 120.527 269.583 120.416 269.59 120.305C269.598 120.195 269.634 120.088 269.697 119.997H269.484C269.364 119.997 269.257 119.929 269.144 119.895C268.545 120.271 268.079 120.829 267.812 121.491C267.783 121.527 267.769 121.573 267.772 121.619C267.772 121.714 267.919 121.721 268.005 121.761C268.205 121.856 268.158 122.153 268.059 122.349C267.959 122.545 267.839 122.795 267.972 122.971C268.022 123.03 268.078 123.085 268.138 123.133C268.425 123.465 267.985 124.425 268.685 124.032C268.635 123.824 268.666 123.604 268.771 123.417C268.889 123.229 269.072 123.092 269.284 123.032C269.802 122.904 270.33 122.827 270.862 122.802L284.748 114.92C285.402 114.549 285.884 113.93 286.088 113.199C286.293 112.468 286.204 111.684 285.841 111.019L285.761 110.878L279.487 99.4463L275.864 92.8351C275.511 92.2064 275.198 91.5507 274.812 90.9287C274.706 90.698 274.564 90.4858 274.392 90.3001Z" fill="#A4CE4A"/>
<path d="M210.23 127.649C209.77 127.081 209.91 127.068 209.823 126.459C209.823 126.459 209.823 126.459 209.823 126.419L209.77 126.358L209.69 126.263C209.377 126.405 209.064 126.561 208.751 126.736L202.617 130.204L205.088 134.7C204.742 134.078 205.967 134.26 206.014 134.254C206.144 134.215 206.278 134.192 206.413 134.186C206.546 134.215 206.663 134.295 206.74 134.409C206.996 134.864 207.072 135.4 206.953 135.91C206.88 136.586 207.233 137.262 206.853 137.938C207.179 138.479 210.13 143.927 210.143 143.92L216.277 140.452C216.63 140.25 217.469 139.891 217.675 139.533C217.882 139.175 217.556 138.614 217.922 138.445C218.06 138.393 218.207 138.374 218.354 138.388C218.5 138.402 218.642 138.449 218.768 138.526C219.936 137.352 220.687 135.817 220.903 134.163C221.118 132.509 220.787 130.829 219.96 129.386C218.235 126.243 214.319 124.37 210.889 125.831C210.649 125.932 210.969 127.02 210.396 127.142C210.506 126.924 210.663 126.734 210.856 126.588M214.678 137.904L211.821 139.52C211.588 139.094 211.362 138.668 211.122 138.255C211.422 138.769 210.596 138.607 210.423 138.492C210.003 138.208 209.89 137.39 209.877 136.931C209.867 136.142 209.636 135.373 209.211 134.713C208.54 133.483 207.874 132.253 207.213 131.022L210.07 129.407C212.734 127.892 215.398 128.521 216.836 131.144C218.275 133.767 217.362 136.41 214.678 137.904Z" fill="#A4CE4A"/>
<path d="M230.509 116.137C230.655 116.458 230.697 116.817 230.629 117.164C230.596 117.354 230.296 117.84 230.336 117.962C230.443 118.232 230.549 118.503 230.649 118.773C230.667 118.817 230.692 118.858 230.723 118.895C230.774 118.93 230.834 118.949 230.896 118.949C231.955 119.044 231.908 119.152 231.975 120.058C232.035 120.835 232.694 121.281 233.067 121.957C233.568 122.845 233.785 123.869 233.69 124.888C233.594 125.907 233.19 126.87 232.534 127.647C231.877 128.423 230.999 128.974 230.021 129.224C229.043 129.474 228.014 129.41 227.073 129.042C227.048 129.066 227.021 129.089 226.993 129.109C226.853 129.181 226.693 129.2 226.54 129.163C226.194 129.064 225.88 128.871 225.633 128.606C225.386 128.34 225.214 128.012 225.135 127.656C225.125 127.602 225.125 127.547 225.135 127.494C224.946 127.257 224.779 127.003 224.635 126.736C224.293 126.178 224.068 125.554 223.975 124.903C223.881 124.252 223.921 123.588 224.091 122.954C224.262 122.319 224.56 121.727 224.966 121.215C225.373 120.703 225.879 120.281 226.453 119.976C227.286 119.494 228.241 119.273 229.197 119.341L229.144 119.26C228.571 118.489 230.636 118.178 229.704 117.658C229.311 117.441 229.377 116.461 229.277 116.062C227.764 116.097 226.284 116.513 224.968 117.272C220.706 119.686 219.234 124.465 221.472 128.541C222.413 130.295 223.971 131.625 225.834 132.266C226.272 132.46 226.742 132.57 227.219 132.591C227.765 132.543 227.499 132.591 227.732 132.259C227.965 131.928 227.825 131.786 228.178 131.435C228.531 131.083 228.944 130.874 229.018 130.333C229.018 130.576 229.284 130.752 229.284 131.009C229.284 131.083 229.284 131.157 229.284 131.225C229.298 131.313 229.338 131.396 229.397 131.462C229.624 131.773 230.003 132.138 230.01 132.496C230.984 132.332 231.92 131.983 232.767 131.468C237.01 129.069 238.515 124.296 236.264 120.206C235.098 118.117 232.907 116.272 230.509 116.137Z" fill="#A4CE4A"/>
<path d="M244.129 106.727L248.698 115.048L237.416 110.519L234.832 111.986C236.577 115.163 238.428 118.307 240.067 121.545C240.18 121.193 240.446 121.126 240.766 121.078C241.365 120.997 241.345 121.301 241.672 121.903C241.712 121.977 241.758 122.052 241.831 122.065C241.905 122.079 242.051 121.957 242.171 121.971C242.291 121.984 242.338 122.133 242.304 122.248C242.262 122.36 242.206 122.467 242.138 122.565C241.945 122.937 242.264 123.174 242.224 123.512C242.224 123.688 241.645 124.404 241.712 124.526L242.378 125.689L245.468 123.945L244.642 122.444H244.489C243.59 122.565 243.989 121.369 243.789 120.875C243.466 120.176 243.099 119.499 242.691 118.847L240.872 115.596L250.043 119.26C250.019 118.992 250.051 118.723 250.136 118.469C250.21 118.327 250.802 118.063 250.802 117.928C250.837 118.364 251.037 118.769 251.362 119.057C251.715 119.375 251.715 119.327 251.648 119.889L252.194 120.112L254.765 118.658L247.239 104.956L244.129 106.727Z" fill="#A4CE4A"/>
<path d="M259.653 112.574L257.909 109.404L264.182 105.855L262.85 103.387L256.583 106.936L254.951 103.955L259.187 101.562C259.366 101.328 259.594 101.137 259.853 101.001C259.985 100.933 260.136 100.916 260.279 100.954L262.071 99.9466C262.071 99.9466 260.799 97.6414 260.679 97.3981C260.066 97.682 260.679 98.4662 260.06 98.8447C260.186 98.9799 260.373 99.4599 260.06 99.5207C259.88 99.5207 259.747 99.2909 259.567 99.3112C259.387 99.3314 259.38 99.4193 259.287 99.3923C259.259 99.3842 259.233 99.3696 259.211 99.3497C259.189 99.3298 259.172 99.305 259.161 99.2774C259.074 99.0735 258.965 98.8806 258.834 98.7027C258.415 98.2904 254.585 100.879 254.052 101.184L250.489 103.212L258.008 116.914L261.012 115.217L261.072 115.136C261.292 114.852 261.505 114.562 261.738 114.298C261.833 114.207 261.954 114.149 262.083 114.133C262.213 114.117 262.344 114.144 262.457 114.21C262.511 114.239 262.559 114.278 262.597 114.325L268.465 111.006L267.066 108.457L259.653 112.574Z" fill="#A4CE4A"/>
<path d="M267.665 258.374C267.665 258.374 263.283 248.68 268.285 239.115C273.286 229.549 274.745 227.298 271.555 225.345C268.365 223.391 266.893 232.99 266.893 232.99C266.893 232.99 264.229 226.379 266.42 219.47C268.611 212.562 270.036 201.286 267.006 200.076C263.976 198.866 266.427 214.13 263.796 219.335C262.455 215.681 261.588 211.866 261.219 207.985C260.859 202.428 261.425 193.559 259.027 191.281C256.63 189.003 255.105 190.605 257.456 202.841C258.869 210.169 259.651 217.608 259.793 225.074C259.793 225.074 254.592 208.985 251.135 208.519C247.679 208.053 247.652 213.251 250.642 217.773C253.633 222.296 259.36 230.381 260.299 234.572C260.299 234.572 254.599 222.472 249.464 226.176C244.329 229.881 253.933 237.202 258.208 239.845C262.484 242.488 265.461 259.043 265.461 259.043L267.665 258.374Z" fill="#A4CE4A"/>
<path opacity="0.2" d="M267.665 258.374C267.665 258.374 263.283 248.68 268.285 239.115C273.286 229.549 274.745 227.298 271.555 225.345C268.365 223.391 266.893 232.99 266.893 232.99C266.893 232.99 264.229 226.379 266.42 219.47C268.611 212.562 270.036 201.286 267.006 200.076C263.976 198.866 266.427 214.13 263.796 219.335C262.455 215.681 261.588 211.866 261.219 207.985C260.859 202.428 261.425 193.559 259.027 191.281C256.63 189.003 255.105 190.605 257.456 202.841C258.869 210.169 259.651 217.608 259.793 225.074C259.793 225.074 254.592 208.985 251.135 208.519C247.679 208.053 247.652 213.251 250.642 217.773C253.633 222.296 259.36 230.381 260.299 234.572C260.299 234.572 254.599 222.472 249.464 226.176C244.329 229.881 253.933 237.202 258.208 239.845C262.484 242.488 265.461 259.043 265.461 259.043L267.665 258.374Z" fill="black"/>
<path d="M264.202 262.356C264.202 262.356 268.471 252.587 263.356 243.103C258.241 233.619 256.756 231.388 259.926 229.38C263.097 227.373 264.668 236.958 264.668 236.958C264.668 236.958 267.279 230.313 264.981 223.438C262.684 216.563 261.152 205.308 264.169 204.057C267.186 202.807 264.915 218.105 267.605 223.263C268.905 219.592 269.724 215.765 270.043 211.879C270.343 206.315 269.67 197.453 272.041 195.141C274.412 192.829 275.964 194.384 273.753 206.68C272.427 214.025 271.734 221.474 271.681 228.941C271.681 228.941 276.69 212.778 280.173 212.257C283.656 211.737 283.709 216.942 280.779 221.505C277.849 226.068 272.188 234.248 271.288 238.405C271.288 238.405 276.85 226.237 282.024 229.854C287.199 233.47 277.689 240.94 273.446 243.644C269.204 246.348 266.4 262.964 266.4 262.964L264.202 262.356Z" fill="#A4CE4A"/>
<path d="M283.876 255.393H248.645L251.495 280.986H281.025L283.876 255.393Z" fill="#263238"/>
<path d="M103.65 94.4709H80.3996C79.504 94.4709 78.6452 94.832 78.0119 95.4748C77.3787 96.1175 77.0229 96.9893 77.0229 97.8983V120.842C77.0229 121.751 77.3787 122.622 78.0119 123.265C78.6452 123.908 79.504 124.269 80.3996 124.269H87.8388L82.8305 131.178L91.4885 124.269H103.643C104.538 124.269 105.397 123.908 106.031 123.265C106.664 122.622 107.02 121.751 107.02 120.842V97.8983C107.02 96.9905 106.665 96.1197 106.033 95.4772C105.401 94.8346 104.544 94.4727 103.65 94.4709Z" fill="#A4CE4A"/>
<path opacity="0.6" d="M103.65 94.4709H80.3996C79.504 94.4709 78.6452 94.832 78.0119 95.4748C77.3787 96.1175 77.0229 96.9893 77.0229 97.8983V120.842C77.0229 121.751 77.3787 122.622 78.0119 123.265C78.6452 123.908 79.504 124.269 80.3996 124.269H87.8388L82.8305 131.178L91.4885 124.269H103.643C104.538 124.269 105.397 123.908 106.031 123.265C106.664 122.622 107.02 121.751 107.02 120.842V97.8983C107.02 96.9905 106.665 96.1197 106.033 95.4772C105.401 94.8346 104.544 94.4727 103.65 94.4709Z" fill="white"/>
<path d="M92.028 120.085C97.858 120.085 102.584 115.288 102.584 109.37C102.584 103.452 97.858 98.6554 92.028 98.6554C86.198 98.6554 81.4719 103.452 81.4719 109.37C81.4719 115.288 86.198 120.085 92.028 120.085Z" fill="#A4CE4A"/>
<path opacity="0.2" d="M100.833 111.473C101.982 106.535 98.9686 101.587 94.1036 100.422C89.2385 99.2564 84.3638 102.315 83.2156 107.253C82.0673 112.191 85.0804 117.139 89.9454 118.304C94.8104 119.47 99.6851 116.411 100.833 111.473Z" fill="black"/>
<path d="M90.9025 113.757C90.7798 113.76 90.6579 113.738 90.5436 113.693C90.4293 113.647 90.3249 113.58 90.2365 113.494L86.3936 109.674C86.217 109.5 86.1157 109.262 86.1119 109.012C86.1082 108.763 86.2023 108.522 86.3737 108.342C86.545 108.163 86.7795 108.06 87.0255 108.056C87.2716 108.053 87.5091 108.148 87.6857 108.322L90.8359 111.452L96.2837 105.28C96.4508 105.109 96.6761 105.01 96.9131 105.003C97.1502 104.996 97.3809 105.081 97.5578 105.241C97.7346 105.402 97.8441 105.625 97.8635 105.865C97.883 106.105 97.811 106.343 97.6624 106.531L91.5685 113.433C91.4844 113.528 91.3819 113.605 91.2673 113.658C91.1527 113.712 91.0286 113.741 90.9025 113.744V113.757Z" fill="white"/>
<path d="M61.8714 265.614L81.0589 263.694V241.731H88.6646V263.687L107.932 265.614C108.855 265.705 109.712 266.141 110.335 266.839C110.958 267.536 111.303 268.444 111.302 269.386V272.313H58.5015V269.386C58.5005 268.444 58.8451 267.536 59.4683 266.839C60.0914 266.141 60.9482 265.705 61.8714 265.614Z" fill="#263238"/>
<path opacity="0.1" d="M61.8714 265.614L81.0589 263.694V241.731H88.6646V263.687L107.932 265.614C108.855 265.705 109.712 266.141 110.335 266.839C110.958 267.536 111.303 268.444 111.302 269.386V272.313H58.5015V269.386C58.5005 268.444 58.8451 267.536 59.4683 266.839C60.0914 266.141 60.9482 265.705 61.8714 265.614Z" fill="white"/>
<path d="M109.271 280.986C112.018 280.986 114.246 278.725 114.246 275.936C114.246 273.148 112.018 270.887 109.271 270.887C106.523 270.887 104.296 273.148 104.296 275.936C104.296 278.725 106.523 280.986 109.271 280.986Z" fill="#263238"/>
<path d="M60.5329 280.986C63.2805 280.986 65.5079 278.725 65.5079 275.936C65.5079 273.148 63.2805 270.887 60.5329 270.887C57.7853 270.887 55.5579 273.148 55.5579 275.936C55.5579 278.725 57.7853 280.986 60.5329 280.986Z" fill="#263238"/>
<path d="M87.2194 247.612H82.4775C81.748 247.612 81.0484 247.318 80.5325 246.794C80.0167 246.271 79.7269 245.561 79.7269 244.82V223.229H89.97V244.82C89.97 245.561 89.6802 246.271 89.1643 246.794C88.6485 247.318 87.9489 247.612 87.2194 247.612Z" fill="#263238"/>
<path opacity="0.2" d="M87.2194 247.612H82.4775C81.748 247.612 81.0484 247.318 80.5325 246.794C80.0167 246.271 79.7269 245.561 79.7269 244.82V223.229H89.97V244.82C89.97 245.561 89.6802 246.271 89.1643 246.794C88.6485 247.318 87.9489 247.612 87.2194 247.612Z" fill="white"/>
<path d="M58.3017 180.911C58.3017 180.911 64.0026 216.996 75.258 223.236H63.8162C63.8162 223.236 52.4941 210.932 49.0842 180.911H58.3017Z" fill="#263238"/>
<path opacity="0.1" d="M58.3017 180.911C58.3017 180.911 64.0026 216.996 75.258 223.236H63.8162C63.8162 223.236 52.4941 210.932 49.0842 180.911H58.3017Z" fill="white"/>
<path d="M63.2702 218.132H107.839C108.722 218.132 109.569 218.488 110.194 219.122C110.818 219.755 111.169 220.615 111.169 221.512V226.034H59.9402V221.512C59.9402 220.615 60.291 219.755 60.9155 219.122C61.54 218.488 62.387 218.132 63.2702 218.132Z" fill="#A4CE4A"/>
<path d="M111.941 222.079H59.1209C58.3816 222.079 57.7822 222.688 57.7822 223.438V224.669C57.7822 225.419 58.3816 226.027 59.1209 226.027H111.941C112.681 226.027 113.28 225.419 113.28 224.669V223.438C113.28 222.688 112.681 222.079 111.941 222.079Z" fill="#263238"/>
<path opacity="0.6" d="M111.941 222.079H59.1209C58.3816 222.079 57.7822 222.688 57.7822 223.438V224.669C57.7822 225.419 58.3816 226.027 59.1209 226.027H111.941C112.681 226.027 113.28 225.419 113.28 224.669V223.438C113.28 222.688 112.681 222.079 111.941 222.079Z" fill="white"/>
<path d="M47.7323 188.252H66.0406C71.4086 188.252 74.8918 183.886 73.8262 178.498L72.4009 171.305C71.3353 165.897 66.1206 161.557 60.7593 161.557H42.4509C37.083 161.557 33.5998 165.924 34.6654 171.305L36.0906 178.498C37.1562 183.872 42.3643 188.252 47.7323 188.252Z" fill="#A4CE4A"/>
<path d="M144.882 248.694L140.686 250.363L137.669 244.59L134.925 239.338L139.574 236.512L142.384 242.954L144.882 248.694Z" fill="#E4897B"/>
<path opacity="0.2" d="M142.384 242.954L137.669 244.59L134.925 239.338L139.574 236.512L142.384 242.954Z" fill="black"/>
<path d="M141.512 239.804L135.804 242.914C135.804 242.914 114.232 204.416 110.916 204.74C107.599 205.065 76.1305 225.412 66.5335 217.895C56.9364 210.378 66.2737 187.745 66.2737 187.745C66.2737 187.745 86.1272 181.986 88.2517 186.393C88.8117 187.713 89.2877 189.068 89.677 190.449C90.0965 191.835 90.4162 193.005 90.4162 193.005C91.0223 192.755 110.629 184.595 119.381 188.949C128.312 193.424 141.512 239.804 141.512 239.804Z" fill="#263238"/>
<path opacity="0.3" d="M141.512 239.804L135.804 242.914C135.804 242.914 114.232 204.416 110.916 204.74C107.599 205.065 76.1305 225.412 66.5335 217.895C56.9364 210.378 66.2737 187.745 66.2737 187.745C66.2737 187.745 86.1272 181.986 88.2517 186.393C88.8117 187.713 89.2877 189.068 89.677 190.449C90.0965 191.835 90.4162 193.005 90.4162 193.005C91.0223 192.755 110.629 184.595 119.381 188.949C128.312 193.424 141.512 239.804 141.512 239.804Z" fill="white"/>
<path d="M110.503 271.198L106.027 270.677L106.001 264.269L105.994 258.387L111.408 258.131L110.929 265.046L110.503 271.198Z" fill="#E4897B"/>
<path opacity="0.2" d="M110.916 265.188L105.987 264.39V258.448L111.402 258.158L110.916 265.188Z" fill="black"/>
<path d="M133.014 241.001L141.365 236.755L142.238 240.352L135.911 243.664L133.014 241.001Z" fill="#A4CE4A"/>
<path d="M81.3586 217.956C81.3586 217.956 82.7306 217.8 103.836 213.832C103.836 213.832 104.316 241.224 105.315 261.646L111.815 261.855C111.815 261.855 121.139 216.563 120.04 209.695C118.941 202.827 110.922 201.928 110.922 201.928C110.922 201.928 96.9963 212.94 81.3586 217.956Z" fill="#263238"/>
<path opacity="0.4" d="M81.3586 217.956C81.3586 217.956 82.7306 217.8 103.836 213.832C103.836 213.832 104.316 241.224 105.315 261.646L111.815 261.855C111.815 261.855 121.139 216.563 120.04 209.695C118.941 202.827 110.922 201.928 110.922 201.928C110.922 201.928 96.9963 212.94 81.3586 217.956Z" fill="white"/>
<path opacity="0.3" d="M81.3586 217.956C81.3586 217.956 82.7306 217.8 103.836 213.832C103.836 213.832 104.316 241.224 105.315 261.646L111.815 261.855C111.815 261.855 121.139 216.563 120.04 209.695C118.941 202.827 110.922 201.928 110.922 201.928C110.922 201.928 96.9963 212.94 81.3586 217.956Z" fill="black"/>
<path d="M104.123 259.821L112.987 259.611L111.775 263.316L104.582 263.383L104.123 259.821Z" fill="#A4CE4A"/>
<path opacity="0.3" d="M90.443 193.018L78.9412 197.176C78.9412 197.176 84.9884 192.592 89.7037 190.463C90.1233 191.849 90.443 193.018 90.443 193.018Z" fill="black"/>
<path d="M64.9417 186.353L65.3679 189.591L86.9263 184.947L86.4268 181.121L64.9417 186.353Z" fill="#263238"/>
<path opacity="0.2" d="M64.9417 186.353L65.3679 189.591L86.9263 184.947L86.4268 181.121L64.9417 186.353Z" fill="black"/>
<path d="M72.0849 184L71.011 184.203L72.0254 189.752L73.0993 189.55L72.0849 184Z" fill="#263238"/>
<path d="M81.4854 182.596L76.7815 183.672L77.5853 187.292L82.2892 186.216L81.4854 182.596Z" fill="white"/>
<path d="M84.5101 180.335L83.4397 180.534L84.4407 186.066L85.5111 185.866L84.5101 180.335Z" fill="#263238"/>
<path opacity="0.3" d="M72.0849 184L71.011 184.203L72.0254 189.752L73.0993 189.55L72.0849 184Z" fill="white"/>
<path opacity="0.3" d="M84.5101 180.335L83.4397 180.534L84.4407 186.066L85.5111 185.866L84.5101 180.335Z" fill="white"/>
<path d="M153.22 256.251C152.52 256.033 151.786 255.948 151.056 256.001C151.056 256.001 148.345 254.852 145.062 249.383L142.264 249.755C141.794 249.827 141.356 250.044 141.011 250.376C140.665 250.709 140.429 251.141 140.333 251.614C140.313 251.748 140.313 251.885 140.333 252.02C140.453 252.706 140.618 253.383 140.826 254.048C141.543 256.245 142.39 258.396 143.363 260.49L143.816 260.301L142.371 256.204C141.891 254.805 143.563 255.988 144.449 257.34C145.335 258.692 146.593 260.003 149.584 258.854C153.06 257.475 154.439 256.745 153.22 256.251Z" fill="#263238"/>
<path d="M144.362 247.93C144.362 247.93 148.851 254.852 151.056 256.001C151.056 256.001 148.585 258.029 145.288 254.771C141.032 250.586 140.32 252.019 140.32 252.019C140.282 251.2 140.32 250.378 140.433 249.566C140.773 247.977 144.362 247.93 144.362 247.93Z" fill="#E4897B"/>
<path d="M117.216 279.256C116.578 278.882 115.879 278.63 115.152 278.512C115.152 278.512 112.787 276.748 110.889 270.65L108.085 270.339C107.609 270.293 107.131 270.399 106.717 270.641C106.303 270.883 105.974 271.25 105.774 271.691C105.714 271.812 105.674 271.942 105.654 272.076C105.608 272.767 105.608 273.461 105.654 274.152C105.835 276.459 106.155 278.753 106.613 281.02L107.1 280.946L106.667 276.606C106.527 275.132 107.879 276.687 108.425 278.215C108.971 279.742 109.883 281.317 113.054 280.919C116.757 280.412 118.262 280.033 117.216 279.256Z" fill="#263238"/>
<path d="M110.556 269.048C110.556 269.048 113.3 276.856 115.171 278.512C115.171 278.512 112.301 279.864 109.843 275.93C106.68 270.839 105.661 272.063 105.661 272.063C105.81 271.259 106.033 270.472 106.327 269.71C107.033 268.223 110.556 269.048 110.556 269.048Z" fill="#E4897B"/>
<path d="M60.2465 131.144L54.6122 132.293C54.392 132.481 54.132 132.615 53.8524 132.684C53.5728 132.754 53.2812 132.756 53.0004 132.692C51.3221 132.016 48.9045 130.035 48.5982 129.312C48.1453 128.291 48.5982 125.297 49.7837 124.756C50.9691 124.215 55.0517 129.217 55.0517 129.217L61.1057 127.832L60.2465 131.144Z" fill="#E4897B"/>
<path d="M78.0153 150.153C78.0153 150.153 77.5024 131.624 75.3912 130.833C73.28 130.042 57.4092 132.253 57.4092 132.253L57.0229 128.021C57.0229 128.021 75.4911 125.134 79.0675 126.845C82.644 128.555 83.8228 156.17 83.1701 161.49L78.0153 150.153Z" fill="#A4CE4A"/>
<path opacity="0.6" d="M78.0153 150.153C78.0153 150.153 77.5024 131.624 75.3912 130.833C73.28 130.042 57.4092 132.253 57.4092 132.253L57.0229 128.021C57.0229 128.021 75.4911 125.134 79.0675 126.845C82.644 128.555 83.8228 156.17 83.1701 161.49L78.0153 150.153Z" fill="white"/>
<path d="M57.6822 132.658L56.5767 128.007L58.1617 127.426L59.1674 132.8L57.6822 132.658Z" fill="#A4CE4A"/>
<path opacity="0.7" d="M57.6822 132.658L56.5767 128.007L58.1617 127.426L59.1674 132.8L57.6822 132.658Z" fill="white"/>
<path d="M77.9221 147.841C77.9221 147.841 76.5035 153.479 69.6703 155.277C62.8372 157.075 55.2781 152.377 55.2781 152.377L56.7832 165.83L65.1482 187.022L86.5268 181.364C86.5268 181.364 85.2481 156.71 77.9221 147.841Z" fill="#A4CE4A"/>
<path opacity="0.7" d="M77.9221 147.841C77.9221 147.841 76.5035 153.479 69.6703 155.277C62.8372 157.075 55.2781 152.377 55.2781 152.377L56.7832 165.83L65.1482 187.022L86.5268 181.364C86.5268 181.364 85.2481 156.71 77.9221 147.841Z" fill="white"/>
<path opacity="0.6" d="M81.6376 170.196L84.1401 169.395C84.4172 169.306 84.571 169.006 84.4835 168.725L82.9927 163.928C82.9053 163.647 82.6098 163.491 82.3327 163.58L79.8302 164.381C79.5531 164.47 79.3993 164.77 79.4867 165.051L80.9776 169.848C81.065 170.129 81.3605 170.285 81.6376 170.196Z" fill="#A4CE4A"/>
<path opacity="0.2" d="M81.128 168.734L83.9734 167.823L82.7451 163.871L79.8996 164.782L81.128 168.734Z" fill="black"/>
<path d="M81.0326 162.442L80.4038 162.644L81.1272 164.971L81.756 164.77L81.0326 162.442Z" fill="#263238"/>
<path d="M63.3899 126.784C58.1218 126.784 54.6453 132.449 55.8774 141.433C57.1095 150.417 62.0446 153.006 62.0446 153.006L61.7316 150.836C67.2102 152.098 72.8586 152.418 78.4415 151.782C78.4415 151.782 75.8974 144.454 76.7232 136.971C76.7232 136.971 78.3949 126.77 63.3899 126.784Z" fill="#263238"/>
<path opacity="0.2" d="M73.8529 153.452L76.0041 161.564L72.2212 158.637C72.2212 158.637 75.9042 167.182 76.8832 172.157C76.8832 172.157 73.6997 163.687 70.9558 159.043L69.3508 163.693L62.8972 157.021C62.8972 157.021 68.5982 152.587 73.8529 153.452Z" fill="black"/>
<path d="M70.7092 156.068L64.1425 156.271C67.0529 152.492 61.7915 145.908 61.7915 145.908L68.2783 147.334C69.8235 153.851 72.4941 154.047 72.4941 154.047L70.7092 156.068Z" fill="#E4897B"/>
<path opacity="0.2" d="M70.0899 152.012C67.5841 151.799 65.2536 150.621 63.5764 148.72C63.0582 147.743 62.4612 146.812 61.7915 145.935L68.2783 147.368C68.6219 149.008 69.2342 150.578 70.0899 152.012Z" fill="black"/>
<path d="M68.2717 129.535C73.926 130.015 75.4978 133.24 75.4245 139.195C75.3379 146.631 73.2866 151.748 66.3469 149.572C56.9164 146.618 58.8744 128.737 68.2717 129.535Z" fill="#E4897B"/>
<path d="M71.7949 138.58C72.1778 139.476 72.6652 140.323 73.2468 141.101C73.0606 141.323 72.8182 141.489 72.5458 141.581C72.2734 141.672 71.9815 141.687 71.7017 141.622L71.7949 138.58Z" fill="#DE5753"/>
<path d="M67.9653 137.62L69.1908 137.214C69.1908 137.214 68.5381 138.201 67.9653 137.62Z" fill="#263238"/>
<path d="M68.3916 137.478C68.1637 137.364 67.9029 137.339 67.6578 137.406C67.4127 137.473 67.2001 137.629 67.0596 137.843C67.2687 137.746 67.4958 137.696 67.7256 137.696C67.9554 137.696 68.1825 137.746 68.3916 137.843V137.478Z" fill="#263238"/>
<path d="M66.114 134.74C66.051 134.739 65.9912 134.712 65.9475 134.666C65.9243 134.644 65.9058 134.617 65.8932 134.588C65.8805 134.558 65.874 134.526 65.874 134.494C65.874 134.461 65.8805 134.429 65.8932 134.4C65.9058 134.37 65.9243 134.343 65.9475 134.321C66.3188 133.992 66.7606 133.754 67.238 133.627C67.7153 133.501 68.2152 133.488 68.698 133.591C68.7607 133.605 68.8156 133.643 68.8506 133.697C68.8856 133.752 68.8978 133.818 68.8845 133.882C68.8713 133.945 68.8337 134.001 68.7799 134.037C68.7262 134.072 68.6608 134.085 68.5981 134.071C68.1952 133.988 67.7789 133.997 67.38 134.099C66.9811 134.201 66.6099 134.392 66.2938 134.659C66.2714 134.685 66.2438 134.706 66.2127 134.72C66.1817 134.734 66.1479 134.741 66.114 134.74Z" fill="#263238"/>
<path d="M74.985 134.842C74.9322 134.844 74.8804 134.827 74.8384 134.794C74.5719 134.546 74.2543 134.362 73.9086 134.254C73.563 134.147 73.1981 134.119 72.8404 134.172C72.8098 134.181 72.7779 134.183 72.7464 134.179C72.715 134.175 72.6846 134.165 72.6571 134.149C72.6296 134.133 72.6054 134.111 72.586 134.086C72.5666 134.06 72.5524 134.031 72.5441 134C72.5358 133.969 72.5336 133.937 72.5376 133.905C72.5416 133.873 72.5518 133.842 72.5676 133.814C72.5834 133.786 72.6044 133.762 72.6295 133.742C72.6546 133.722 72.6833 133.708 72.7139 133.699C73.1456 133.622 73.589 133.645 74.0103 133.768C74.4316 133.892 74.8197 134.111 75.1448 134.409C75.1941 134.45 75.2258 134.509 75.2333 134.573C75.2408 134.638 75.2234 134.702 75.1848 134.754C75.1607 134.783 75.13 134.807 75.0953 134.822C75.0605 134.837 75.0227 134.844 74.985 134.842Z" fill="#263238"/>
<path d="M61.272 138.688C61.272 138.688 64.3023 134.2 64.2024 130.522C64.2024 130.522 75.7975 126.818 75.4045 138.418C75.4045 138.418 77.3359 128.278 67.6323 127.203C57.9287 126.128 56.8032 140.608 61.4718 145.34C61.4718 145.34 59.4139 141.5 61.272 138.688Z" fill="#263238"/>
<path d="M62.118 139.979C62.118 139.31 61.8565 138.668 61.3908 138.194C60.9251 137.72 60.2933 137.453 59.6338 137.451C57.8623 137.498 56.7301 141.081 61.0191 142.332C61.6318 142.508 62.0381 141.919 62.118 139.979Z" fill="#E4897B"/>
<path d="M71.7484 143.312C71.3336 143.877 70.9618 144.474 70.6361 145.097C70.5229 145.056 70.403 145.022 70.2898 144.975C68.7247 144.414 68.1786 143.623 68.0521 142.947C67.9924 142.604 68.0176 142.251 68.1253 141.919C68.1808 141.729 68.2614 141.547 68.3651 141.379C69.1788 142.164 70.1517 142.759 71.2156 143.123C71.5352 143.244 71.7484 143.312 71.7484 143.312Z" fill="#263238"/>
<path d="M71.2155 143.109L70.8758 143.63C69.3973 143.096 68.4316 142.521 68.1252 141.906C68.1807 141.715 68.2614 141.534 68.365 141.365C69.1788 142.15 70.1516 142.745 71.2155 143.109Z" fill="white"/>
<path d="M70.2898 144.975C68.7247 144.414 68.1785 143.623 68.052 142.947C68.6441 143.168 69.1922 143.496 69.6704 143.914C69.9804 144.193 70.1969 144.564 70.2898 144.975Z" fill="#DE5753"/>
<path d="M68.1186 129.961C68.1186 129.961 65.0617 139.215 59.2142 138.58C53.3667 137.945 63.39 126.764 63.39 126.764C63.39 126.764 73.2535 123.904 77.5492 129.468C81.8449 135.031 75.4247 138.404 75.4247 138.404C75.4247 138.404 76.3837 131.144 68.1186 129.961Z" fill="#263238"/>
<path d="M63.4566 137.836C63.4228 137.835 63.3901 137.824 63.3619 137.805C63.3338 137.786 63.3113 137.759 63.2968 137.728C63.2816 137.685 63.2835 137.638 63.3021 137.596C63.3208 137.554 63.3547 137.522 63.3967 137.505C68.0587 135.7 67.9521 129.353 67.9521 129.285C67.9502 129.263 67.953 129.241 67.9602 129.22C67.9675 129.199 67.9791 129.18 67.9942 129.164C68.0094 129.148 68.0277 129.135 68.048 129.127C68.0683 129.119 68.0901 129.115 68.112 129.116C68.1553 129.117 68.1966 129.135 68.2284 129.164C68.2602 129.194 68.2804 129.235 68.2851 129.278C68.2851 129.346 68.3917 135.93 63.5166 137.823L63.4566 137.836Z" fill="#263238"/>
<path d="M73.7063 138.181L74.9317 137.782C74.9317 137.782 74.2724 138.763 73.7063 138.181Z" fill="#263238"/>
<path d="M74.1325 138.039C73.9042 137.925 73.6424 137.899 73.3968 137.968C73.1513 138.036 72.9391 138.194 72.8005 138.411C73.0065 138.307 73.2322 138.249 73.4622 138.242C73.6921 138.235 73.9208 138.279 74.1325 138.37V138.039Z" fill="#263238"/>
<path d="M65.0682 153.54L70.0166 156.095L69.9367 161.185L62.8638 157.001L65.0682 153.54Z" fill="#A4CE4A"/>
<path d="M70.7693 152.58L71.0623 155.669L74.2924 159.137L73.8529 153.432L70.7693 152.58Z" fill="#A4CE4A"/>
<path d="M47.9055 117.624L45.8409 112.216C45.8786 111.927 45.8495 111.633 45.7559 111.357C45.6622 111.081 45.5067 110.832 45.3015 110.627C43.8629 109.539 40.8925 108.552 40.1466 108.667C39.061 108.829 36.8166 110.823 37.0098 112.128C37.2029 113.433 43.5432 114.237 43.5432 114.237L45.6478 120.166L47.9055 117.624Z" fill="#E4897B"/>
<path d="M56.7965 165.83C56.7965 165.83 60.7925 162.605 59.2007 155.48L54.905 135.768L47.5257 115.407L43.916 117.259C43.916 117.259 49.9766 137.154 50.5361 138.499C50.8224 139.175 51.9613 149.497 53.5131 156.413C54.9383 162.781 56.7965 165.83 56.7965 165.83Z" fill="#A4CE4A"/>
<path opacity="0.6" d="M56.7965 165.83C56.7965 165.83 60.7925 162.605 59.2007 155.48L54.905 135.768L47.5257 115.407L43.916 117.259C43.916 117.259 49.9766 137.154 50.5361 138.499C50.8224 139.175 51.9613 149.497 53.5131 156.413C54.9383 162.781 56.7965 165.83 56.7965 165.83Z" fill="white"/>
<path d="M43.2834 116.678L47.4992 114.535L48.4183 115.961L43.4899 118.178L43.2834 116.678Z" fill="#A4CE4A"/>
<path opacity="0.7" d="M43.2834 116.678L47.4992 114.535L48.4183 115.961L43.4899 118.178L43.2834 116.678Z" fill="white"/>
<path opacity="0.6" d="M65.0682 153.54L70.0166 156.095L69.9367 161.185L62.8638 157.001L65.0682 153.54Z" fill="white"/>
<path opacity="0.6" d="M70.7693 152.58L71.0623 155.669L74.2924 159.137L73.8529 153.432L70.7693 152.58Z" fill="white"/>
<path d="M211.295 142.913H191.342V158.65H211.295V142.913Z" fill="white"/>
<path opacity="0.1" d="M211.295 142.913H206.18V158.65H211.295V142.913Z" fill="black"/>
<path d="M190.196 172.549H212.754V143.988H205.488L190.196 151.417V172.549Z" fill="#A4CE4A"/>
<path opacity="0.2" d="M212.754 143.988H205.488V172.549H212.754V143.988Z" fill="black"/>
<path opacity="0.7" d="M203.084 157.048H192.521V162.186H203.084V157.048Z" fill="white"/>
<path opacity="0.7" d="M203.084 163.903H192.521V164.64H203.084V163.903Z" fill="white"/>
<path opacity="0.7" d="M212.048 166.059H206.18V170.42H212.048V166.059Z" fill="white"/>
<path d="M202.817 142.055H182.864V158.65H202.817V142.055Z" fill="white"/>
<path opacity="0.1" d="M202.817 142.055H197.702V158.65H202.817V142.055Z" fill="black"/>
<path d="M181.718 172.549H204.276V143.988H197.01L181.718 151.417V172.549Z" fill="#A4CE4A"/>
<path opacity="0.2" d="M204.276 143.988H197.01V172.549H204.276V143.988Z" fill="black"/>
<path opacity="0.7" d="M194.605 157.048H184.042V162.186H194.605V157.048Z" fill="white"/>
<path opacity="0.7" d="M194.605 163.903H184.042V164.64H194.605V163.903Z" fill="white"/>
<path opacity="0.7" d="M203.57 166.059H197.702V170.42H203.57V166.059Z" fill="white"/>
<path d="M167.706 280.986H171.788L179.114 177.389H173.7L167.706 280.986Z" fill="#263238"/>
<path opacity="0.1" d="M167.706 280.986H171.788L178.755 182.534L179.114 177.558H173.7L173.413 182.534L167.706 280.986Z" fill="white"/>
<path opacity="0.2" d="M173.413 182.29H178.754L179.114 177.558H173.699L173.413 182.29Z" fill="black"/>
<path d="M137.762 280.986H141.845L142.511 177.389H137.096L137.762 280.986Z" fill="#263238"/>
<path opacity="0.1" d="M137.09 177.558L137.203 194.269L137.756 280.986H141.838L142.398 194.269L142.504 177.558H137.09Z" fill="white"/>
<path opacity="0.2" d="M137.09 177.558L137.203 194.458H142.398L142.504 177.558H137.09Z" fill="black"/>
<path d="M94.4456 280.986H98.5281L105.854 177.389H100.44L94.4456 280.986Z" fill="#263238"/>
<path opacity="0.1" d="M94.4456 280.986H98.5281L105.501 182.534L105.854 177.558H100.44L100.153 182.534L94.4456 280.986Z" fill="white"/>
<path opacity="0.2" d="M100.153 182.29H105.501L105.854 177.558H100.439L100.153 182.29Z" fill="black"/>
<path d="M214.379 280.986H218.461L212.461 177.389H207.046L214.379 280.986Z" fill="#263238"/>
<path opacity="0.1" d="M207.046 177.558L207.412 182.534L214.379 280.986H218.455L212.754 182.534L212.461 177.558H207.046Z" fill="white"/>
<path opacity="0.2" d="M212.461 177.558H207.046L207.412 182.29H212.754L212.461 177.558Z" fill="black"/>
<path d="M215.318 179.985L97.5956 179.985C97.4067 179.985 97.2196 179.947 97.0451 179.874C96.8706 179.801 96.712 179.693 96.5784 179.557C96.4448 179.422 96.3389 179.261 96.2666 179.084C96.1943 178.907 96.1571 178.717 96.1571 178.525V174.8L216.756 174.8V178.525C216.756 178.717 216.719 178.907 216.647 179.084C216.575 179.261 216.469 179.422 216.335 179.557C216.201 179.693 216.043 179.801 215.868 179.874C215.694 179.947 215.507 179.985 215.318 179.985Z" fill="#A4CE4A"/>
<path opacity="0.4" d="M215.318 179.985L97.5956 179.985C97.4067 179.985 97.2196 179.947 97.0451 179.874C96.8706 179.801 96.712 179.693 96.5784 179.557C96.4448 179.422 96.3389 179.261 96.2666 179.084C96.1943 178.907 96.1571 178.717 96.1571 178.525V174.8L216.756 174.8V178.525C216.756 178.717 216.719 178.907 216.647 179.084C216.575 179.261 216.469 179.422 216.335 179.557C216.201 179.693 216.043 179.801 215.868 179.874C215.694 179.947 215.507 179.985 215.318 179.985Z" fill="white"/>
<path opacity="0.2" d="M96.1571 177.389L216.756 177.389V174.793L96.1571 174.793V177.389Z" fill="black"/>
<path d="M93.6264 175.469H219.281C219.47 175.47 219.657 175.433 219.832 175.36C220.007 175.287 220.166 175.179 220.3 175.044C220.434 174.908 220.539 174.747 220.611 174.569C220.683 174.392 220.72 174.201 220.719 174.009C220.719 173.622 220.568 173.251 220.298 172.977C220.028 172.703 219.662 172.549 219.281 172.549H93.6264C93.2442 172.549 92.8776 172.703 92.6068 172.976C92.336 173.25 92.1829 173.621 92.1812 174.009C92.1812 174.202 92.2186 174.392 92.2913 174.57C92.364 174.747 92.4706 174.908 92.6049 175.044C92.7391 175.18 92.8985 175.287 93.0738 175.36C93.2491 175.433 93.4369 175.47 93.6264 175.469Z" fill="#A4CE4A"/>
<path opacity="0.4" d="M93.6264 175.469H219.281C219.47 175.47 219.657 175.433 219.832 175.36C220.007 175.287 220.166 175.179 220.3 175.044C220.434 174.908 220.539 174.747 220.611 174.569C220.683 174.392 220.72 174.201 220.719 174.009C220.719 173.622 220.568 173.251 220.298 172.977C220.028 172.703 219.662 172.549 219.281 172.549H93.6264C93.2442 172.549 92.8776 172.703 92.6068 172.976C92.336 173.25 92.1829 173.621 92.1812 174.009C92.1812 174.202 92.2186 174.392 92.2913 174.57C92.364 174.747 92.4706 174.908 92.6049 175.044C92.7391 175.18 92.8985 175.287 93.0738 175.36C93.2491 175.433 93.4369 175.47 93.6264 175.469Z" fill="white"/>
<path d="M192.281 172.536V170.251H193.793L192.281 169.358H193.413L191.901 168.358H190.469V167.209H192.134L190.469 166.539V164.045H192.134V162.416H193.793L192.134 161.848V160.685H193.32L192.348 159.705L191.508 158.847H165.774V160.016H164.076L165.967 160.881V161.848H162.497V163.646H160.959L162.497 164.43V166.438H163.59V167.398H165.774V170.251H164.549L165.554 171.271V172.549L192.281 172.536Z" fill="#A4CE4A"/>
<path opacity="0.7" d="M192.281 172.536V170.251H193.793L192.281 169.358H193.413L191.901 168.358H190.469V167.209H192.134L190.469 166.539V164.045H192.134V162.416H193.793L192.134 161.848V160.685H193.32L192.348 159.705L191.508 158.847H165.774V160.016H164.076L165.967 160.881V161.848H162.497V163.646H160.959L162.497 164.43V166.438H163.59V167.398H165.774V170.251H164.549L165.554 171.271V172.549L192.281 172.536Z" fill="white"/>
<path opacity="0.1" d="M192.281 172.536V170.251H193.793L192.281 169.358H193.413L191.901 168.358H190.47V167.209H192.135L190.47 166.539V164.045H192.135V162.416H193.793L192.135 161.848V160.685H193.32L192.348 159.705L191.508 158.847H177.955V160.016H176.257L178.142 160.881V161.848H174.672V163.646H173.134L174.672 164.43V166.438H175.764V167.398H177.955V170.251H176.73L177.729 171.271V172.549L192.281 172.536Z" fill="black"/>
<path opacity="0.1" d="M165.967 161.848H178.142L165.967 161.402V161.848Z" fill="black"/>
<path opacity="0.1" d="M165.774 167.398H177.955L178.009 168.263L165.774 167.398Z" fill="black"/>
<path opacity="0.1" d="M163.59 166.438H175.764L163.59 166.871V166.438Z" fill="black"/>
<path opacity="0.1" d="M165.774 170.251H177.955L165.774 169.798V170.251Z" fill="black"/>
<path opacity="0.1" d="M165.554 171.271H177.729V171.745L165.554 171.271Z" fill="black"/>
<path opacity="0.1" d="M162.498 163.646H174.672L162.498 163.254V163.646Z" fill="black"/>
<path opacity="0.1" d="M165.774 160.016H177.955L165.774 159.583V160.016Z" fill="black"/>
<path opacity="0.1" d="M192.134 160.685H179.78L192.134 161.071V160.685Z" fill="black"/>
<path opacity="0.1" d="M178.142 161.848H192.134L179.447 162.267L178.142 161.848Z" fill="black"/>
<path opacity="0.1" d="M174.672 163.646L192.134 164.045V163.646H174.672Z" fill="black"/>
<path opacity="0.1" d="M174.672 164.43H183.31L174.672 164.856V164.43Z" fill="black"/>
<path opacity="0.1" d="M190.469 166.539L177.955 166.438L190.469 166.154V166.539Z" fill="black"/>
<path opacity="0.1" d="M190.469 167.209H177.729L190.469 167.641V167.209Z" fill="black"/>
<path opacity="0.1" d="M192.281 169.358H178.142V169.798L192.281 169.358Z" fill="black"/>
<path opacity="0.1" d="M192.281 170.251H182.038L192.281 170.541V170.251Z" fill="black"/>
<path d="M159.514 169.588V171.758C159.514 172.312 158.848 172.542 158.321 172.542H115.618C115.071 172.542 114.412 172.312 114.412 171.758V169.588H159.514Z" fill="#263238"/>
<path opacity="0.4" d="M159.514 169.588V171.758C159.514 172.312 158.848 172.542 158.321 172.542H115.618C115.071 172.542 114.412 172.312 114.412 171.758V169.588H159.514Z" fill="white"/>
<path opacity="0.2" d="M159.514 169.588V171.758C159.514 172.312 158.848 172.542 158.322 172.542H130.157C129.61 172.542 128.958 172.312 128.958 171.758V169.588H159.514Z" fill="black"/>
<path d="M166.66 147.064L161.572 170.474C161.484 170.854 161.274 171.193 160.975 171.438C160.676 171.683 160.304 171.819 159.92 171.826H132.154C131.982 171.822 131.812 171.777 131.659 171.696C131.506 171.615 131.374 171.498 131.272 171.356C131.171 171.214 131.104 171.05 131.075 170.877C131.047 170.704 131.058 170.527 131.109 170.359L136.184 147.131C136.288 146.777 136.509 146.469 136.809 146.26C137.11 146.051 137.472 145.953 137.835 145.982H165.608C166.354 145.955 166.82 146.3 166.66 147.064Z" fill="#263238"/>
<path opacity="0.4" d="M166.66 147.064L161.572 170.474C161.484 170.854 161.274 171.193 160.975 171.438C160.676 171.683 160.304 171.819 159.92 171.826H133.094C132.921 171.822 132.751 171.777 132.598 171.696C132.445 171.614 132.313 171.498 132.212 171.356C132.11 171.214 132.043 171.05 132.014 170.877C131.986 170.704 131.998 170.527 132.048 170.359L137.13 147.131C137.233 146.776 137.453 146.468 137.754 146.259C138.055 146.049 138.418 145.952 138.781 145.982H165.608C166.354 145.955 166.82 146.3 166.66 147.064Z" fill="white"/>
<path opacity="0.2" d="M152.967 158.961C152.967 160.989 150.849 162.592 149.297 162.592C147.746 162.592 146.826 160.962 147.299 158.961C147.772 156.961 149.297 155.399 150.802 155.338C150.363 157.366 151.309 158.961 152.854 158.961H152.967Z" fill="black"/>
</svg>
